<svg width="1939" height="300" viewBox="0 0 1939 300" fill="none" xmlns="http://www.w3.org/2000/svg">
<path id="Dark Version" d="M93.9 45.6C115.9 45.6 135.2 49.9 151.8 58.5C168.6 67.1 181.5 79.4 190.5 95.4C199.7 111.2 204.3 129.6 204.3 150.6C204.3 171.6 199.7 190 190.5 205.8C181.5 221.4 168.6 233.5 151.8 242.1C135.2 250.7 115.9 255 93.9 255H20.7V45.6H93.9ZM92.4 219.3C114.4 219.3 131.4 213.3 143.4 201.3C155.4 189.3 161.4 172.4 161.4 150.6C161.4 128.8 155.4 111.8 143.4 99.6C131.4 87.2 114.4 81 92.4 81H62.7V219.3H92.4ZM224.539 171.3C224.539 154.5 227.839 139.6 234.439 126.6C241.239 113.6 250.339 103.6 261.739 96.6C273.339 89.6 286.239 86.1 300.439 86.1C312.839 86.1 323.639 88.6 332.839 93.6C342.239 98.6 349.739 104.9 355.339 112.5V88.8H397.639V255H355.339V230.7C349.939 238.5 342.439 245 332.839 250.2C323.439 255.2 312.539 257.7 300.139 257.7C286.139 257.7 273.339 254.1 261.739 246.9C250.339 239.7 241.239 229.6 234.439 216.6C227.839 203.4 224.539 188.3 224.539 171.3ZM355.339 171.9C355.339 161.7 353.339 153 349.339 145.8C345.339 138.4 339.939 132.8 333.139 129C326.339 125 319.039 123 311.239 123C303.439 123 296.239 124.9 289.639 128.7C283.039 132.5 277.639 138.1 273.439 145.5C269.439 152.7 267.439 161.3 267.439 171.3C267.439 181.3 269.439 190.1 273.439 197.7C277.639 205.1 283.039 210.8 289.639 214.8C296.439 218.8 303.639 220.8 311.239 220.8C319.039 220.8 326.339 218.9 333.139 215.1C339.939 211.1 345.339 205.5 349.339 198.3C353.339 190.9 355.339 182.1 355.339 171.9ZM480.259 114.6C485.659 105.8 492.659 98.9 501.259 93.9C510.059 88.9 520.059 86.4 531.259 86.4V130.5H520.159C506.959 130.5 496.959 133.6 490.159 139.8C483.559 146 480.259 156.8 480.259 172.2V255H438.259V88.8H480.259V114.6ZM657.548 255L601.148 184.2V255H559.148V33H601.148V159.3L656.948 88.8H711.548L638.348 172.2L712.148 255H657.548ZM993.128 45.6L916.328 255H865.328L788.528 45.6H833.528L891.128 212.1L948.428 45.6H993.128ZM1172.41 168.3C1172.41 174.3 1172.01 179.7 1171.21 184.5H1049.71C1050.71 196.5 1054.91 205.9 1062.31 212.7C1069.71 219.5 1078.81 222.9 1089.61 222.9C1105.21 222.9 1116.31 216.2 1122.91 202.8H1168.21C1163.41 218.8 1154.21 232 1140.61 242.4C1127.01 252.6 1110.31 257.7 1090.51 257.7C1074.51 257.7 1060.11 254.2 1047.31 247.2C1034.71 240 1024.81 229.9 1017.61 216.9C1010.61 203.9 1007.11 188.9 1007.11 171.9C1007.11 154.7 1010.61 139.6 1017.61 126.6C1024.61 113.6 1034.41 103.6 1047.01 96.6C1059.61 89.6 1074.11 86.1 1090.51 86.1C1106.31 86.1 1120.41 89.5 1132.81 96.3C1145.41 103.1 1155.11 112.8 1161.91 125.4C1168.91 137.8 1172.41 152.1 1172.41 168.3ZM1128.91 156.3C1128.71 145.5 1124.81 136.9 1117.21 130.5C1109.61 123.9 1100.31 120.6 1089.31 120.6C1078.91 120.6 1070.11 123.8 1062.91 130.2C1055.91 136.4 1051.61 145.1 1050.01 156.3H1128.91ZM1244.67 114.6C1250.07 105.8 1257.07 98.9 1265.67 93.9C1274.47 88.9 1284.47 86.4 1295.67 86.4V130.5H1284.57C1271.37 130.5 1261.37 133.6 1254.57 139.8C1247.97 146 1244.67 156.8 1244.67 172.2V255H1202.67V88.8H1244.67V114.6ZM1387.15 257.7C1373.55 257.7 1361.35 255.3 1350.55 250.5C1339.75 245.5 1331.15 238.8 1324.75 230.4C1318.55 222 1315.15 212.7 1314.55 202.5H1356.85C1357.65 208.9 1360.75 214.2 1366.15 218.4C1371.75 222.6 1378.65 224.7 1386.85 224.7C1394.85 224.7 1401.05 223.1 1405.45 219.9C1410.05 216.7 1412.35 212.6 1412.35 207.6C1412.35 202.2 1409.55 198.2 1403.95 195.6C1398.55 192.8 1389.85 189.8 1377.85 186.6C1365.45 183.6 1355.25 180.5 1347.25 177.3C1339.45 174.1 1332.65 169.2 1326.85 162.6C1321.25 156 1318.45 147.1 1318.45 135.9C1318.45 126.7 1321.05 118.3 1326.25 110.7C1331.65 103.1 1339.25 97.1 1349.05 92.7C1359.05 88.3 1370.75 86.1 1384.15 86.1C1403.95 86.1 1419.75 91.1 1431.55 101.1C1443.35 110.9 1449.85 124.2 1451.05 141H1410.85C1410.25 134.4 1407.45 129.2 1402.45 125.4C1397.65 121.4 1391.15 119.4 1382.95 119.4C1375.35 119.4 1369.45 120.8 1365.25 123.6C1361.25 126.4 1359.25 130.3 1359.25 135.3C1359.25 140.9 1362.05 145.2 1367.65 148.2C1373.25 151 1381.95 153.9 1393.75 156.9C1405.75 159.9 1415.65 163 1423.45 166.2C1431.25 169.4 1437.95 174.4 1443.55 181.2C1449.35 187.8 1452.35 196.6 1452.55 207.6C1452.55 217.2 1449.85 225.8 1444.45 233.4C1439.25 241 1431.65 247 1421.65 251.4C1411.85 255.6 1400.35 257.7 1387.15 257.7ZM1507.93 69C1500.53 69 1494.33 66.7 1489.33 62.1C1484.53 57.3 1482.13 51.4 1482.13 44.4C1482.13 37.4 1484.53 31.6 1489.33 27C1494.33 22.2 1500.53 19.8 1507.93 19.8C1515.33 19.8 1521.43 22.2 1526.23 27C1531.23 31.6 1533.73 37.4 1533.73 44.4C1533.73 51.4 1531.23 57.3 1526.23 62.1C1521.43 66.7 1515.33 69 1507.93 69ZM1528.63 88.8V255H1486.63V88.8H1528.63ZM1643.53 257.7C1627.53 257.7 1613.13 254.2 1600.33 247.2C1587.53 240 1577.43 229.9 1570.03 216.9C1562.83 203.9 1559.23 188.9 1559.23 171.9C1559.23 154.9 1562.93 139.9 1570.33 126.9C1577.93 113.9 1588.23 103.9 1601.23 96.9C1614.23 89.7 1628.73 86.1 1644.73 86.1C1660.73 86.1 1675.23 89.7 1688.23 96.9C1701.23 103.9 1711.43 113.9 1718.83 126.9C1726.43 139.9 1730.23 154.9 1730.23 171.9C1730.23 188.9 1726.33 203.9 1718.53 216.9C1710.93 229.9 1700.53 240 1687.33 247.2C1674.33 254.2 1659.73 257.7 1643.53 257.7ZM1643.53 221.1C1651.13 221.1 1658.23 219.3 1664.83 215.7C1671.63 211.9 1677.03 206.3 1681.03 198.9C1685.03 191.5 1687.03 182.5 1687.03 171.9C1687.03 156.1 1682.83 144 1674.43 135.6C1666.23 127 1656.13 122.7 1644.13 122.7C1632.13 122.7 1622.03 127 1613.83 135.6C1605.83 144 1601.83 156.1 1601.83 171.9C1601.83 187.7 1605.73 199.9 1613.53 208.5C1621.53 216.9 1631.53 221.1 1643.53 221.1ZM1852.74 86.4C1872.54 86.4 1888.54 92.7 1900.74 105.3C1912.94 117.7 1919.04 135.1 1919.04 157.5V255H1877.04V163.2C1877.04 150 1873.74 139.9 1867.14 132.9C1860.54 125.7 1851.54 122.1 1840.14 122.1C1828.54 122.1 1819.34 125.7 1812.54 132.9C1805.94 139.9 1802.64 150 1802.64 163.2V255H1760.64V88.8H1802.64V109.5C1808.24 102.3 1815.34 96.7 1823.94 92.7C1832.74 88.5 1842.34 86.4 1852.74 86.4Z" fill="black"/>
</svg>
