<svg width="573" height="1153" viewBox="0 0 573 1153" fill="none" xmlns="http://www.w3.org/2000/svg">
<g id="Group">
<g id="Vector">
<path d="M4.07668 22C1.81186 22 0 24 0 26.5C0 29 1.81186 31 4.07668 31C6.3415 31 8.15336 29 8.15336 26.5C8.15336 24 6.3415 22 4.07668 22Z" fill="white"/>
<path d="M574.061 27.5607C574.646 26.9749 574.646 26.0251 574.061 25.4393L564.515 15.8934C563.929 15.3076 562.979 15.3076 562.393 15.8934C561.808 16.4792 561.808 17.4289 562.393 18.0147L570.879 26.5L562.393 34.9853C561.808 35.5711 561.808 36.5208 562.393 37.1066C562.979 37.6924 563.929 37.6924 564.515 37.1066L574.061 27.5607ZM1.5 26.5C1.5 24.6856 2.77628 23.5 4.07668 23.5V20.5C0.847436 20.5 -1.5 23.3144 -1.5 26.5H1.5ZM4.07668 23.5C5.37708 23.5 6.65336 24.6856 6.65336 26.5H9.65336C9.65336 23.3144 7.30592 20.5 4.07668 20.5V23.5ZM6.65336 26.5C6.65336 28.3144 5.37708 29.5 4.07668 29.5V32.5C7.30592 32.5 9.65336 29.6856 9.65336 26.5H6.65336ZM4.07668 29.5C2.77628 29.5 1.5 28.3144 1.5 26.5H-1.5C-1.5 29.6856 0.847436 32.5 4.07668 32.5V29.5ZM8.15336 28H573V25H8.15336V28Z" fill="black"/>
</g>
<g id="Vector_2">
<path d="M4.07668 22C1.81186 22 0 24.0009 0 26.502C0 29.0031 1.81186 31.004 4.07668 31.004C6.3415 31.004 8.15336 29.0031 8.15336 26.502C8.15336 24.0009 6.3415 22 4.07668 22Z" fill="white"/>
<path d="M574.061 1154.06C574.646 1153.47 574.646 1152.53 574.061 1151.94L564.515 1142.39C563.929 1141.81 562.979 1141.81 562.393 1142.39C561.808 1142.98 561.808 1143.93 562.393 1144.51L570.879 1153L562.393 1161.49C561.808 1162.07 561.808 1163.02 562.393 1163.61C562.979 1164.19 563.929 1164.19 564.515 1163.61L574.061 1154.06ZM1.5 26.502C1.5 24.6858 2.77687 23.5 4.07668 23.5V20.5C0.846845 20.5 -1.5 23.316 -1.5 26.502H1.5ZM4.07668 23.5C5.37649 23.5 6.65336 24.6858 6.65336 26.502H9.65336C9.65336 23.316 7.30651 20.5 4.07668 20.5V23.5ZM6.65336 26.502C6.65336 28.3182 5.37649 29.504 4.07668 29.504V32.504C7.30651 32.504 9.65336 29.688 9.65336 26.502H6.65336ZM4.07668 29.504C2.77687 29.504 1.5 28.3182 1.5 26.502H-1.5C-1.5 29.688 0.846845 32.504 4.07668 32.504V29.504ZM8.15336 28.002H268.538V25.002H8.15336V28.002ZM287.038 46.502V1133H290.038V46.502H287.038ZM308.538 1154.5H573V1151.5H308.538V1154.5ZM287.038 1133C287.038 1144.87 296.664 1154.5 308.538 1154.5V1151.5C298.321 1151.5 290.038 1143.22 290.038 1133H287.038ZM268.538 28.002C278.756 28.002 287.038 36.2847 287.038 46.502H290.038C290.038 34.6279 280.412 25.002 268.538 25.002V28.002Z" fill="black"/>
</g>
<path id="Settings" d="M312.616 1137.23C311.92 1137.23 311.251 1137.13 310.609 1136.91C309.973 1136.69 309.415 1136.37 308.935 1135.96C308.455 1135.55 308.11 1135.06 307.9 1134.48L309.961 1133.72C310.045 1133.96 310.216 1134.18 310.474 1134.38C310.732 1134.58 311.047 1134.74 311.419 1134.86C311.791 1134.98 312.19 1135.04 312.616 1135.04C313.054 1135.04 313.462 1134.97 313.84 1134.84C314.224 1134.7 314.533 1134.51 314.767 1134.27C315.001 1134.03 315.118 1133.74 315.118 1133.42C315.118 1133.09 314.995 1132.82 314.749 1132.61C314.503 1132.39 314.188 1132.22 313.804 1132.09C313.42 1131.97 313.024 1131.87 312.616 1131.81C311.722 1131.67 310.921 1131.46 310.213 1131.17C309.505 1130.88 308.944 1130.48 308.53 1129.97C308.122 1129.46 307.918 1128.8 307.918 1127.99C307.918 1127.23 308.137 1126.56 308.575 1125.99C309.013 1125.42 309.589 1124.98 310.303 1124.66C311.017 1124.34 311.788 1124.18 312.616 1124.18C313.306 1124.18 313.972 1124.29 314.614 1124.51C315.256 1124.72 315.817 1125.04 316.297 1125.45C316.783 1125.87 317.131 1126.36 317.341 1126.95L315.271 1127.69C315.187 1127.45 315.016 1127.24 314.758 1127.04C314.5 1126.84 314.185 1126.68 313.813 1126.57C313.441 1126.45 313.042 1126.39 312.616 1126.39C312.19 1126.38 311.785 1126.45 311.401 1126.6C311.023 1126.73 310.714 1126.92 310.474 1127.16C310.234 1127.4 310.114 1127.68 310.114 1127.99C310.114 1128.39 310.225 1128.7 310.447 1128.9C310.675 1129.1 310.978 1129.25 311.356 1129.35C311.734 1129.44 312.154 1129.52 312.616 1129.6C313.456 1129.73 314.233 1129.96 314.947 1130.27C315.661 1130.58 316.234 1131 316.666 1131.52C317.098 1132.03 317.314 1132.67 317.314 1133.42C317.314 1134.18 317.098 1134.85 316.666 1135.42C316.234 1135.99 315.661 1136.44 314.947 1136.76C314.233 1137.08 313.456 1137.23 312.616 1137.23ZM322.991 1137.23C322.163 1137.23 321.407 1137.02 320.723 1136.59C320.045 1136.17 319.502 1135.6 319.094 1134.88C318.692 1134.16 318.491 1133.36 318.491 1132.49C318.491 1131.84 318.608 1131.22 318.842 1130.65C319.076 1130.08 319.397 1129.57 319.805 1129.14C320.219 1128.7 320.699 1128.36 321.245 1128.12C321.791 1127.87 322.373 1127.75 322.991 1127.75C323.693 1127.75 324.335 1127.9 324.917 1128.2C325.505 1128.49 326.003 1128.9 326.411 1129.41C326.819 1129.93 327.116 1130.52 327.302 1131.18C327.488 1131.84 327.53 1132.53 327.428 1133.25H320.849C320.933 1133.58 321.071 1133.89 321.263 1134.16C321.455 1134.42 321.698 1134.63 321.992 1134.79C322.286 1134.95 322.619 1135.03 322.991 1135.04C323.375 1135.04 323.723 1134.95 324.035 1134.77C324.353 1134.58 324.617 1134.32 324.827 1133.99L327.068 1134.52C326.702 1135.31 326.156 1135.97 325.43 1136.48C324.704 1136.98 323.891 1137.23 322.991 1137.23ZM320.777 1131.6H325.205C325.139 1131.24 324.998 1130.92 324.782 1130.63C324.572 1130.33 324.311 1130.1 323.999 1129.93C323.687 1129.75 323.351 1129.66 322.991 1129.66C322.631 1129.66 322.298 1129.75 321.992 1129.93C321.686 1130.09 321.425 1130.32 321.209 1130.62C320.999 1130.91 320.855 1131.23 320.777 1131.6ZM333.822 1130.2H332.076V1137H329.88V1130.2H328.548V1128H329.88V1125.17H332.076V1128H333.822V1130.2ZM340.273 1130.2H338.527V1137H336.331V1130.2H334.999V1128H336.331V1125.17H338.527V1128H340.273V1130.2ZM341.408 1128H343.604V1137H341.408V1128ZM342.515 1126.66C342.197 1126.66 341.927 1126.55 341.705 1126.34C341.483 1126.13 341.372 1125.86 341.372 1125.53C341.372 1125.22 341.483 1124.95 341.705 1124.73C341.927 1124.52 342.197 1124.41 342.515 1124.41C342.833 1124.41 343.1 1124.52 343.316 1124.73C343.538 1124.95 343.649 1125.22 343.649 1125.53C343.649 1125.86 343.538 1126.13 343.316 1126.34C343.1 1126.55 342.833 1126.66 342.515 1126.66ZM355.127 1132.35V1137H352.931V1132.38C352.931 1131.92 352.835 1131.5 352.643 1131.12C352.451 1130.74 352.184 1130.43 351.842 1130.2C351.506 1129.98 351.116 1129.86 350.672 1129.86C350.24 1129.86 349.865 1129.98 349.547 1130.2C349.229 1130.43 348.983 1130.74 348.809 1131.12C348.641 1131.5 348.557 1131.92 348.557 1132.38V1137H346.361V1128H348.557V1129.06C348.857 1128.66 349.214 1128.34 349.628 1128.11C350.048 1127.87 350.522 1127.75 351.05 1127.75C351.878 1127.75 352.595 1127.96 353.201 1128.38C353.813 1128.79 354.284 1129.35 354.614 1130.04C354.95 1130.74 355.121 1131.51 355.127 1132.35ZM363.467 1128H365.663V1137.17C365.663 1137.82 365.531 1138.41 365.267 1138.94C365.003 1139.47 364.643 1139.93 364.187 1140.3C363.731 1140.69 363.209 1140.98 362.621 1141.19C362.033 1141.4 361.415 1141.5 360.767 1141.5C360.137 1141.5 359.531 1141.37 358.949 1141.11C358.367 1140.86 357.851 1140.5 357.401 1140.05C356.957 1139.61 356.618 1139.1 356.384 1138.53L358.391 1137.62C358.511 1137.95 358.691 1138.24 358.931 1138.49C359.177 1138.74 359.459 1138.93 359.777 1139.07C360.095 1139.21 360.425 1139.29 360.767 1139.29C361.115 1139.29 361.448 1139.24 361.766 1139.14C362.09 1139.05 362.381 1138.91 362.639 1138.72C362.897 1138.54 363.098 1138.32 363.242 1138.05C363.392 1137.8 363.467 1137.5 363.467 1137.17V1135.9C363.185 1136.3 362.831 1136.62 362.405 1136.86C361.979 1137.11 361.487 1137.23 360.929 1137.23C360.281 1137.23 359.675 1137.11 359.111 1136.86C358.547 1136.62 358.049 1136.28 357.617 1135.85C357.191 1135.41 356.855 1134.91 356.609 1134.34C356.369 1133.77 356.249 1133.15 356.249 1132.5C356.249 1131.85 356.369 1131.23 356.609 1130.66C356.855 1130.09 357.191 1129.59 357.617 1129.16C358.049 1128.72 358.547 1128.38 359.111 1128.13C359.675 1127.89 360.281 1127.77 360.929 1127.77C361.487 1127.77 361.979 1127.89 362.405 1128.13C362.831 1128.37 363.185 1128.69 363.467 1129.09V1128ZM360.956 1135.12C361.418 1135.12 361.826 1135 362.18 1134.77C362.54 1134.53 362.822 1134.21 363.026 1133.81C363.23 1133.41 363.332 1132.97 363.332 1132.5C363.332 1132.02 363.227 1131.58 363.017 1131.19C362.813 1130.79 362.531 1130.47 362.171 1130.23C361.817 1129.99 361.412 1129.87 360.956 1129.87C360.506 1129.87 360.095 1129.99 359.723 1130.23C359.351 1130.47 359.054 1130.78 358.832 1131.18C358.61 1131.57 358.499 1132.01 358.499 1132.5C358.499 1132.99 358.61 1133.43 358.832 1133.82C359.054 1134.22 359.351 1134.53 359.723 1134.77C360.095 1135 360.506 1135.12 360.956 1135.12ZM370.573 1137.16C370.105 1137.13 369.652 1137.04 369.214 1136.88C368.782 1136.72 368.398 1136.5 368.062 1136.23C367.726 1135.95 367.468 1135.62 367.288 1135.24L369.142 1134.44C369.214 1134.56 369.331 1134.69 369.493 1134.83C369.655 1134.96 369.847 1135.07 370.069 1135.16C370.297 1135.25 370.546 1135.3 370.816 1135.3C371.044 1135.3 371.26 1135.27 371.464 1135.21C371.674 1135.14 371.842 1135.04 371.968 1134.91C372.1 1134.78 372.166 1134.61 372.166 1134.4C372.166 1134.18 372.088 1134.01 371.932 1133.89C371.782 1133.76 371.59 1133.67 371.356 1133.61C371.128 1133.54 370.906 1133.48 370.69 1133.43C370.12 1133.31 369.589 1133.14 369.097 1132.9C368.611 1132.66 368.218 1132.35 367.918 1131.97C367.624 1131.58 367.477 1131.12 367.477 1130.58C367.477 1129.99 367.633 1129.48 367.945 1129.04C368.257 1128.61 368.668 1128.28 369.178 1128.04C369.688 1127.81 370.237 1127.69 370.825 1127.69C371.539 1127.69 372.193 1127.84 372.787 1128.14C373.387 1128.44 373.861 1128.85 374.209 1129.39L372.472 1130.42C372.388 1130.28 372.271 1130.14 372.121 1130.02C371.971 1129.9 371.8 1129.8 371.608 1129.72C371.416 1129.63 371.215 1129.59 371.005 1129.57C370.735 1129.56 370.489 1129.59 370.267 1129.65C370.045 1129.71 369.865 1129.81 369.727 1129.95C369.595 1130.1 369.529 1130.29 369.529 1130.53C369.529 1130.76 369.619 1130.93 369.799 1131.04C369.979 1131.15 370.195 1131.23 370.447 1131.29C370.705 1131.35 370.951 1131.42 371.185 1131.49C371.713 1131.67 372.208 1131.88 372.67 1132.13C373.138 1132.38 373.513 1132.69 373.795 1133.06C374.077 1133.42 374.212 1133.86 374.2 1134.37C374.2 1134.95 374.026 1135.46 373.678 1135.9C373.33 1136.33 372.88 1136.66 372.328 1136.89C371.782 1137.12 371.197 1137.21 370.573 1137.16Z" fill="#212121"/>
<path id="Profile Action Menu" d="M308.08 17V4.4H312.58C313.264 4.4 313.882 4.571 314.434 4.913C314.992 5.255 315.433 5.714 315.757 6.29C316.081 6.866 316.243 7.499 316.243 8.189C316.243 8.897 316.075 9.539 315.739 10.115C315.409 10.685 314.965 11.141 314.407 11.483C313.849 11.819 313.24 11.987 312.58 11.987H310.276V17H308.08ZM310.276 9.791H312.346C312.658 9.791 312.943 9.713 313.201 9.557C313.459 9.401 313.663 9.191 313.813 8.927C313.969 8.663 314.047 8.369 314.047 8.045C314.047 7.715 313.969 7.418 313.813 7.154C313.663 6.89 313.459 6.68 313.201 6.524C312.943 6.368 312.658 6.29 312.346 6.29H310.276V9.791ZM323.115 10.232C322.953 10.124 322.776 10.037 322.584 9.971C322.398 9.905 322.191 9.872 321.963 9.872C321.525 9.872 321.147 9.986 320.829 10.214C320.517 10.442 320.277 10.748 320.109 11.132C319.941 11.51 319.857 11.93 319.857 12.392V17H317.643V8H319.839V9.062C320.139 8.666 320.496 8.351 320.91 8.117C321.33 7.883 321.804 7.766 322.332 7.766C322.536 7.766 322.731 7.772 322.917 7.784C323.109 7.796 323.292 7.829 323.466 7.883L323.115 10.232ZM328.194 17.234C327.366 17.234 326.61 17.021 325.926 16.595C325.248 16.169 324.705 15.599 324.297 14.885C323.895 14.165 323.694 13.37 323.694 12.5C323.694 11.84 323.811 11.225 324.045 10.655C324.279 10.079 324.6 9.575 325.008 9.143C325.422 8.705 325.902 8.363 326.448 8.117C326.994 7.871 327.576 7.748 328.194 7.748C329.022 7.748 329.775 7.961 330.453 8.387C331.137 8.813 331.68 9.386 332.082 10.106C332.49 10.826 332.694 11.624 332.694 12.5C332.694 13.154 332.577 13.766 332.343 14.336C332.109 14.906 331.785 15.41 331.371 15.848C330.963 16.28 330.486 16.619 329.94 16.865C329.4 17.111 328.818 17.234 328.194 17.234ZM328.194 15.038C328.632 15.038 329.025 14.921 329.373 14.687C329.721 14.453 329.994 14.144 330.192 13.76C330.396 13.376 330.498 12.956 330.498 12.5C330.498 12.032 330.393 11.606 330.183 11.222C329.979 10.832 329.7 10.523 329.346 10.295C328.998 10.061 328.614 9.944 328.194 9.944C327.762 9.944 327.372 10.061 327.024 10.295C326.676 10.529 326.4 10.841 326.196 11.231C325.992 11.621 325.89 12.044 325.89 12.5C325.89 12.974 325.995 13.403 326.205 13.787C326.415 14.171 326.694 14.477 327.042 14.705C327.396 14.927 327.78 15.038 328.194 15.038ZM336.854 6.11V8H339.311V10.196H336.854V17H334.658V10.196H333.677V8H334.658V6.11C334.658 5.594 334.784 5.123 335.036 4.697C335.294 4.265 335.639 3.923 336.071 3.671C336.503 3.413 336.98 3.284 337.502 3.284C337.88 3.284 338.255 3.362 338.627 3.518C338.999 3.674 339.329 3.914 339.617 4.238L338.033 5.786C337.979 5.684 337.901 5.609 337.799 5.561C337.703 5.507 337.604 5.48 337.502 5.48C337.328 5.48 337.175 5.543 337.043 5.669C336.917 5.789 336.854 5.936 336.854 6.11ZM340.723 8H342.919V17H340.723V8ZM341.83 6.659C341.512 6.659 341.242 6.554 341.02 6.344C340.798 6.128 340.687 5.858 340.687 5.534C340.687 5.216 340.798 4.949 341.02 4.733C341.242 4.517 341.512 4.409 341.83 4.409C342.148 4.409 342.415 4.517 342.631 4.733C342.853 4.949 342.964 5.216 342.964 5.534C342.964 5.858 342.853 6.128 342.631 6.344C342.415 6.554 342.148 6.659 341.83 6.659ZM345.989 17V3.5H348.185V17H345.989ZM354.368 17.234C353.54 17.234 352.784 17.021 352.1 16.595C351.422 16.169 350.879 15.596 350.471 14.876C350.069 14.156 349.868 13.361 349.868 12.491C349.868 11.837 349.985 11.225 350.219 10.655C350.453 10.079 350.774 9.575 351.182 9.143C351.596 8.705 352.076 8.363 352.622 8.117C353.168 7.871 353.75 7.748 354.368 7.748C355.07 7.748 355.712 7.898 356.294 8.198C356.882 8.492 357.38 8.897 357.788 9.413C358.196 9.929 358.493 10.517 358.679 11.177C358.865 11.837 358.907 12.527 358.805 13.247H352.226C352.31 13.583 352.448 13.886 352.64 14.156C352.832 14.42 353.075 14.633 353.369 14.795C353.663 14.951 353.996 15.032 354.368 15.038C354.752 15.044 355.1 14.954 355.412 14.768C355.73 14.576 355.994 14.318 356.204 13.994L358.445 14.516C358.079 15.314 357.533 15.968 356.807 16.478C356.081 16.982 355.268 17.234 354.368 17.234ZM352.154 11.6H356.582C356.516 11.24 356.375 10.916 356.159 10.628C355.949 10.334 355.688 10.1 355.376 9.926C355.064 9.752 354.728 9.665 354.368 9.665C354.008 9.665 353.675 9.752 353.369 9.926C353.063 10.094 352.802 10.325 352.586 10.619C352.376 10.907 352.232 11.234 352.154 11.6ZM369.017 4.4H371.546L376.127 17H373.796L372.986 14.768H367.586L366.776 17H364.445L369.017 4.4ZM368.387 12.572H372.176L370.277 7.379L368.387 12.572ZM382.601 14.291L384.581 15.362C384.167 15.926 383.648 16.379 383.024 16.721C382.4 17.063 381.719 17.234 380.981 17.234C380.153 17.234 379.397 17.021 378.713 16.595C378.035 16.169 377.492 15.599 377.084 14.885C376.682 14.165 376.481 13.37 376.481 12.5C376.481 11.84 376.598 11.225 376.832 10.655C377.066 10.079 377.387 9.575 377.795 9.143C378.209 8.705 378.689 8.363 379.235 8.117C379.781 7.871 380.363 7.748 380.981 7.748C381.719 7.748 382.4 7.919 383.024 8.261C383.648 8.603 384.167 9.062 384.581 9.638L382.601 10.7C382.391 10.46 382.142 10.274 381.854 10.142C381.572 10.01 381.281 9.944 380.981 9.944C380.549 9.944 380.159 10.064 379.811 10.304C379.463 10.538 379.187 10.85 378.983 11.24C378.779 11.624 378.677 12.044 378.677 12.5C378.677 12.95 378.779 13.37 378.983 13.76C379.187 14.144 379.463 14.453 379.811 14.687C380.159 14.921 380.549 15.038 380.981 15.038C381.293 15.038 381.59 14.972 381.872 14.84C382.154 14.702 382.397 14.519 382.601 14.291ZM391.021 10.196H389.275V17H387.079V10.196H385.747V8H387.079V5.174H389.275V8H391.021V10.196ZM392.156 8H394.352V17H392.156V8ZM393.263 6.659C392.945 6.659 392.675 6.554 392.453 6.344C392.231 6.128 392.12 5.858 392.12 5.534C392.12 5.216 392.231 4.949 392.453 4.733C392.675 4.517 392.945 4.409 393.263 4.409C393.581 4.409 393.848 4.517 394.064 4.733C394.286 4.949 394.397 5.216 394.397 5.534C394.397 5.858 394.286 6.128 394.064 6.344C393.848 6.554 393.581 6.659 393.263 6.659ZM401.319 17.234C400.491 17.234 399.735 17.021 399.051 16.595C398.373 16.169 397.83 15.599 397.422 14.885C397.02 14.165 396.819 13.37 396.819 12.5C396.819 11.84 396.936 11.225 397.17 10.655C397.404 10.079 397.725 9.575 398.133 9.143C398.547 8.705 399.027 8.363 399.573 8.117C400.119 7.871 400.701 7.748 401.319 7.748C402.147 7.748 402.9 7.961 403.578 8.387C404.262 8.813 404.805 9.386 405.207 10.106C405.615 10.826 405.819 11.624 405.819 12.5C405.819 13.154 405.702 13.766 405.468 14.336C405.234 14.906 404.91 15.41 404.496 15.848C404.088 16.28 403.611 16.619 403.065 16.865C402.525 17.111 401.943 17.234 401.319 17.234ZM401.319 15.038C401.757 15.038 402.15 14.921 402.498 14.687C402.846 14.453 403.119 14.144 403.317 13.76C403.521 13.376 403.623 12.956 403.623 12.5C403.623 12.032 403.518 11.606 403.308 11.222C403.104 10.832 402.825 10.523 402.471 10.295C402.123 10.061 401.739 9.944 401.319 9.944C400.887 9.944 400.497 10.061 400.149 10.295C399.801 10.529 399.525 10.841 399.321 11.231C399.117 11.621 399.015 12.044 399.015 12.5C399.015 12.974 399.12 13.403 399.33 13.787C399.54 14.171 399.819 14.477 400.167 14.705C400.521 14.927 400.905 15.038 401.319 15.038ZM415.807 12.347V17H413.611V12.383C413.611 11.921 413.515 11.501 413.323 11.123C413.131 10.739 412.864 10.433 412.522 10.205C412.186 9.977 411.796 9.863 411.352 9.863C410.92 9.863 410.545 9.977 410.227 10.205C409.909 10.433 409.663 10.739 409.489 11.123C409.321 11.501 409.237 11.921 409.237 12.383V17H407.041V8H409.237V9.062C409.537 8.66 409.894 8.342 410.308 8.108C410.728 7.868 411.202 7.748 411.73 7.748C412.558 7.748 413.275 7.958 413.881 8.378C414.493 8.792 414.964 9.347 415.294 10.043C415.63 10.739 415.801 11.507 415.807 12.347ZM422.109 17L424.557 4.4H426.375L429.444 12.473L432.513 4.4H434.331L436.779 17H434.538L433.026 9.206L430.191 16.712H428.688L425.853 9.206L424.35 17H422.109ZM441.942 17.234C441.114 17.234 440.358 17.021 439.674 16.595C438.996 16.169 438.453 15.596 438.045 14.876C437.643 14.156 437.442 13.361 437.442 12.491C437.442 11.837 437.559 11.225 437.793 10.655C438.027 10.079 438.348 9.575 438.756 9.143C439.17 8.705 439.65 8.363 440.196 8.117C440.742 7.871 441.324 7.748 441.942 7.748C442.644 7.748 443.286 7.898 443.868 8.198C444.456 8.492 444.954 8.897 445.362 9.413C445.77 9.929 446.067 10.517 446.253 11.177C446.439 11.837 446.481 12.527 446.379 13.247H439.8C439.884 13.583 440.022 13.886 440.214 14.156C440.406 14.42 440.649 14.633 440.943 14.795C441.237 14.951 441.57 15.032 441.942 15.038C442.326 15.044 442.674 14.954 442.986 14.768C443.304 14.576 443.568 14.318 443.778 13.994L446.019 14.516C445.653 15.314 445.107 15.968 444.381 16.478C443.655 16.982 442.842 17.234 441.942 17.234ZM439.728 11.6H444.156C444.09 11.24 443.949 10.916 443.733 10.628C443.523 10.334 443.262 10.1 442.95 9.926C442.638 9.752 442.302 9.665 441.942 9.665C441.582 9.665 441.249 9.752 440.943 9.926C440.637 10.094 440.376 10.325 440.16 10.619C439.95 10.907 439.806 11.234 439.728 11.6ZM456.43 12.347V17H454.234V12.383C454.234 11.921 454.138 11.501 453.946 11.123C453.754 10.739 453.487 10.433 453.145 10.205C452.809 9.977 452.419 9.863 451.975 9.863C451.543 9.863 451.168 9.977 450.85 10.205C450.532 10.433 450.286 10.739 450.112 11.123C449.944 11.501 449.86 11.921 449.86 12.383V17H447.664V8H449.86V9.062C450.16 8.66 450.517 8.342 450.931 8.108C451.351 7.868 451.825 7.748 452.353 7.748C453.181 7.748 453.898 7.958 454.504 8.378C455.116 8.792 455.587 9.347 455.917 10.043C456.253 10.739 456.424 11.507 456.43 12.347ZM458.408 12.635V8H460.604V12.599C460.604 13.061 460.7 13.484 460.892 13.868C461.084 14.252 461.351 14.558 461.693 14.786C462.035 15.008 462.425 15.119 462.863 15.119C463.301 15.119 463.676 15.008 463.988 14.786C464.306 14.558 464.549 14.252 464.717 13.868C464.891 13.484 464.978 13.061 464.978 12.599V8H467.174V17H464.978V15.929C464.684 16.325 464.327 16.646 463.907 16.892C463.493 17.132 463.022 17.252 462.494 17.252C461.66 17.252 460.94 17.045 460.334 16.631C459.728 16.211 459.257 15.653 458.921 14.957C458.585 14.255 458.414 13.481 458.408 12.635Z" fill="#212121"/>
</g>
</svg>
