<svg width="1345" height="2910" viewBox="0 0 1345 2910" fill="none" xmlns="http://www.w3.org/2000/svg">
<g id="Group">
<g id="Vector">
<path d="M4 512C1.77778 512 0 513.952 0 516.393C0 518.833 1.77778 520.786 4 520.786C6.22222 520.786 8 518.833 8 516.393C8 513.952 6.22222 512 4 512Z" fill="white"/>
<path d="M2.93934 2911.06C3.52513 2911.65 4.47487 2911.65 5.06066 2911.06L14.6066 2901.51C15.1924 2900.93 15.1924 2899.98 14.6066 2899.39C14.0208 2898.81 13.0711 2898.81 12.4853 2899.39L4 2907.88L-4.48528 2899.39C-5.07107 2898.81 -6.02082 2898.81 -6.6066 2899.39C-7.19239 2899.98 -7.19239 2900.93 -6.6066 2901.51L2.93934 2911.06ZM1.5 516.393C1.5 514.645 2.73535 513.5 4 513.5V510.5C0.820201 510.5 -1.5 513.259 -1.5 516.393H1.5ZM4 513.5C5.26465 513.5 6.5 514.645 6.5 516.393H9.5C9.5 513.259 7.1798 510.5 4 510.5V513.5ZM6.5 516.393C6.5 518.14 5.26465 519.286 4 519.286V522.286C7.1798 522.286 9.5 519.526 9.5 516.393H6.5ZM4 519.286C2.73535 519.286 1.5 518.14 1.5 516.393H-1.5C-1.5 519.526 0.820201 522.286 4 522.286V519.286ZM2.5 520.786V2910H5.5V520.786H2.5Z" fill="black"/>
</g>
<g id="Vector_2">
<path d="M779.055 22C776.802 22 775 24 775 26.5C775 29 776.802 31 779.055 31C781.308 31 783.111 29 783.111 26.5C783.111 24 781.308 22 779.055 22Z" fill="white"/>
<path d="M1346.06 27.5607C1346.65 26.9749 1346.65 26.0251 1346.06 25.4393L1336.51 15.8934C1335.93 15.3076 1334.98 15.3076 1334.39 15.8934C1333.81 16.4792 1333.81 17.4289 1334.39 18.0147L1342.88 26.5L1334.39 34.9853C1333.81 35.5711 1333.81 36.5208 1334.39 37.1066C1334.98 37.6924 1335.93 37.6924 1336.51 37.1066L1346.06 27.5607ZM776.5 26.5C776.5 24.6778 777.774 23.5 779.055 23.5V20.5C775.831 20.5 773.5 23.3222 773.5 26.5H776.5ZM779.055 23.5C780.337 23.5 781.611 24.6778 781.611 26.5H784.611C784.611 23.3222 782.28 20.5 779.055 20.5V23.5ZM781.611 26.5C781.611 28.3222 780.337 29.5 779.055 29.5V32.5C782.28 32.5 784.611 29.6778 784.611 26.5H781.611ZM779.055 29.5C777.774 29.5 776.5 28.3222 776.5 26.5H773.5C773.5 29.6778 775.831 32.5 779.055 32.5V29.5ZM783.111 28H1345V25H783.111V28Z" fill="black"/>
</g>
<g id="Vector_3">
<path d="M779.055 22C776.802 22 775 23.9991 775 26.498C775 28.9969 776.802 30.996 779.055 30.996C781.308 30.996 783.111 28.9969 783.111 26.498C783.111 23.9991 781.308 22 779.055 22Z" fill="white"/>
<path d="M1346.06 1153.06C1346.65 1152.47 1346.65 1151.53 1346.06 1150.94L1336.51 1141.39C1335.93 1140.81 1334.98 1140.81 1334.39 1141.39C1333.81 1141.98 1333.81 1142.93 1334.39 1143.51L1342.88 1152L1334.39 1160.49C1333.81 1161.07 1333.81 1162.02 1334.39 1162.61C1334.98 1163.19 1335.93 1163.19 1336.51 1162.61L1346.06 1153.06ZM776.5 26.498C776.5 24.6776 777.773 23.5 779.055 23.5V20.5C775.832 20.5 773.5 23.3207 773.5 26.498H776.5ZM779.055 23.5C780.337 23.5 781.611 24.6776 781.611 26.498H784.611C784.611 23.3207 782.279 20.5 779.055 20.5V23.5ZM781.611 26.498C781.611 28.3184 780.337 29.496 779.055 29.496V32.496C782.279 32.496 784.611 29.6754 784.611 26.498H781.611ZM779.055 29.496C777.773 29.496 776.5 28.3184 776.5 26.498H773.5C773.5 29.6754 775.832 32.496 779.055 32.496V29.496ZM783.111 27.998H1042.03V24.998H783.111V27.998ZM1060.53 46.498V1132H1063.53V46.498H1060.53ZM1082.03 1153.5H1345V1150.5H1082.03V1153.5ZM1060.53 1132C1060.53 1143.87 1070.15 1153.5 1082.03 1153.5V1150.5C1071.81 1150.5 1063.53 1142.22 1063.53 1132H1060.53ZM1042.03 27.998C1052.24 27.998 1060.53 36.2807 1060.53 46.498H1063.53C1063.53 34.6239 1053.9 24.998 1042.03 24.998V27.998Z" fill="black"/>
</g>
<g id="Vector_4">
<path d="M779.055 22C776.802 22 775 23.9996 775 26.499C775 28.9984 776.802 30.998 779.055 30.998C781.308 30.998 783.111 28.9984 783.111 26.499C783.111 23.9996 781.308 22 779.055 22Z" fill="white"/>
<path d="M1346.06 2279.06C1346.65 2278.47 1346.65 2277.53 1346.06 2276.94L1336.51 2267.39C1335.93 2266.81 1334.98 2266.81 1334.39 2267.39C1333.81 2267.98 1333.81 2268.93 1334.39 2269.51L1342.88 2278L1334.39 2286.49C1333.81 2287.07 1333.81 2288.02 1334.39 2288.61C1334.98 2289.19 1335.93 2289.19 1336.51 2288.61L1346.06 2279.06ZM776.5 26.499C776.5 24.6777 777.774 23.5 779.055 23.5V20.5C775.831 20.5 773.5 23.3214 773.5 26.499H776.5ZM779.055 23.5C780.337 23.5 781.611 24.6777 781.611 26.499H784.611C784.611 23.3214 782.279 20.5 779.055 20.5V23.5ZM781.611 26.499C781.611 28.3203 780.337 29.498 779.055 29.498V32.498C782.279 32.498 784.611 29.6766 784.611 26.499H781.611ZM779.055 29.498C777.774 29.498 776.5 28.3203 776.5 26.499H773.5C773.5 29.6766 775.831 32.498 779.055 32.498V29.498ZM783.111 27.999H1042.03V24.999H783.111V27.999ZM1060.53 46.499V2258H1063.53V46.499H1060.53ZM1082.03 2279.5H1345V2276.5H1082.03V2279.5ZM1060.53 2258C1060.53 2269.87 1070.15 2279.5 1082.03 2279.5V2276.5C1071.81 2276.5 1063.53 2268.22 1063.53 2258H1060.53ZM1042.03 27.999C1052.24 27.999 1060.53 36.2817 1060.53 46.499H1063.53C1063.53 34.6249 1053.9 24.999 1042.03 24.999V27.999Z" fill="black"/>
</g>
<path id="Search" d="M1085.62 2267.23C1084.92 2267.23 1084.25 2267.13 1083.61 2266.91C1082.97 2266.69 1082.42 2266.37 1081.94 2265.96C1081.46 2265.55 1081.11 2265.06 1080.9 2264.48L1082.96 2263.72C1083.05 2263.96 1083.22 2264.18 1083.47 2264.38C1083.73 2264.58 1084.05 2264.74 1084.42 2264.86C1084.79 2264.98 1085.19 2265.04 1085.62 2265.04C1086.05 2265.04 1086.46 2264.97 1086.84 2264.84C1087.22 2264.7 1087.53 2264.51 1087.77 2264.27C1088 2264.03 1088.12 2263.74 1088.12 2263.42C1088.12 2263.09 1088 2262.82 1087.75 2262.61C1087.5 2262.39 1087.19 2262.22 1086.8 2262.09C1086.42 2261.97 1086.02 2261.87 1085.62 2261.81C1084.72 2261.67 1083.92 2261.46 1083.21 2261.17C1082.51 2260.88 1081.94 2260.48 1081.53 2259.97C1081.12 2259.46 1080.92 2258.8 1080.92 2257.99C1080.92 2257.23 1081.14 2256.56 1081.58 2255.99C1082.01 2255.42 1082.59 2254.98 1083.3 2254.66C1084.02 2254.34 1084.79 2254.18 1085.62 2254.18C1086.31 2254.18 1086.97 2254.29 1087.61 2254.51C1088.26 2254.72 1088.82 2255.04 1089.3 2255.45C1089.78 2255.87 1090.13 2256.36 1090.34 2256.95L1088.27 2257.69C1088.19 2257.45 1088.02 2257.24 1087.76 2257.04C1087.5 2256.84 1087.19 2256.68 1086.81 2256.57C1086.44 2256.45 1086.04 2256.39 1085.62 2256.39C1085.19 2256.38 1084.79 2256.45 1084.4 2256.6C1084.02 2256.73 1083.71 2256.92 1083.47 2257.16C1083.23 2257.4 1083.11 2257.68 1083.11 2257.99C1083.11 2258.39 1083.23 2258.7 1083.45 2258.9C1083.68 2259.1 1083.98 2259.25 1084.36 2259.35C1084.73 2259.44 1085.15 2259.52 1085.62 2259.6C1086.46 2259.73 1087.23 2259.96 1087.95 2260.27C1088.66 2260.58 1089.23 2261 1089.67 2261.52C1090.1 2262.03 1090.31 2262.67 1090.31 2263.42C1090.31 2264.18 1090.1 2264.85 1089.67 2265.42C1089.23 2265.99 1088.66 2266.44 1087.95 2266.76C1087.23 2267.08 1086.46 2267.23 1085.62 2267.23ZM1095.99 2267.23C1095.16 2267.23 1094.41 2267.02 1093.72 2266.59C1093.05 2266.17 1092.5 2265.6 1092.09 2264.88C1091.69 2264.16 1091.49 2263.36 1091.49 2262.49C1091.49 2261.84 1091.61 2261.22 1091.84 2260.65C1092.08 2260.08 1092.4 2259.57 1092.81 2259.14C1093.22 2258.7 1093.7 2258.36 1094.25 2258.12C1094.79 2257.87 1095.37 2257.75 1095.99 2257.75C1096.69 2257.75 1097.34 2257.9 1097.92 2258.2C1098.51 2258.49 1099 2258.9 1099.41 2259.41C1099.82 2259.93 1100.12 2260.52 1100.3 2261.18C1100.49 2261.84 1100.53 2262.53 1100.43 2263.25H1093.85C1093.93 2263.58 1094.07 2263.89 1094.26 2264.16C1094.46 2264.42 1094.7 2264.63 1094.99 2264.79C1095.29 2264.95 1095.62 2265.03 1095.99 2265.04C1096.38 2265.04 1096.72 2264.95 1097.04 2264.77C1097.35 2264.58 1097.62 2264.32 1097.83 2263.99L1100.07 2264.52C1099.7 2265.31 1099.16 2265.97 1098.43 2266.48C1097.7 2266.98 1096.89 2267.23 1095.99 2267.23ZM1093.78 2261.6H1098.21C1098.14 2261.24 1098 2260.92 1097.78 2260.63C1097.57 2260.33 1097.31 2260.1 1097 2259.93C1096.69 2259.75 1096.35 2259.66 1095.99 2259.66C1095.63 2259.66 1095.3 2259.75 1094.99 2259.93C1094.69 2260.09 1094.43 2260.32 1094.21 2260.62C1094 2260.91 1093.86 2261.23 1093.78 2261.6ZM1108.82 2258H1111.02V2267H1108.81L1108.72 2265.88C1108.47 2266.29 1108.14 2266.61 1107.73 2266.86C1107.33 2267.11 1106.86 2267.23 1106.31 2267.23C1105.64 2267.23 1105.02 2267.11 1104.44 2266.86C1103.86 2266.6 1103.34 2266.26 1102.9 2265.81C1102.46 2265.37 1102.11 2264.85 1101.86 2264.27C1101.62 2263.69 1101.5 2263.07 1101.5 2262.4C1101.5 2261.76 1101.61 2261.16 1101.85 2260.59C1102.08 2260.03 1102.41 2259.53 1102.84 2259.11C1103.26 2258.68 1103.75 2258.35 1104.31 2258.11C1104.87 2257.87 1105.47 2257.75 1106.11 2257.75C1106.71 2257.75 1107.25 2257.88 1107.71 2258.14C1108.19 2258.41 1108.59 2258.74 1108.92 2259.15L1108.82 2258ZM1106.37 2265.12C1106.85 2265.12 1107.27 2265 1107.62 2264.75C1107.98 2264.5 1108.25 2264.18 1108.43 2263.77C1108.61 2263.35 1108.69 2262.9 1108.65 2262.4C1108.61 2261.93 1108.47 2261.51 1108.24 2261.13C1108 2260.75 1107.7 2260.44 1107.34 2260.21C1106.97 2259.99 1106.56 2259.87 1106.1 2259.87C1105.63 2259.87 1105.2 2259.99 1104.83 2260.24C1104.45 2260.49 1104.17 2260.82 1103.96 2261.23C1103.76 2261.64 1103.68 2262.09 1103.72 2262.6C1103.77 2263.06 1103.92 2263.48 1104.17 2263.87C1104.42 2264.25 1104.74 2264.55 1105.12 2264.78C1105.51 2265 1105.93 2265.12 1106.37 2265.12ZM1118.65 2260.23C1118.49 2260.12 1118.31 2260.04 1118.12 2259.97C1117.93 2259.9 1117.73 2259.87 1117.5 2259.87C1117.06 2259.87 1116.68 2259.99 1116.36 2260.21C1116.05 2260.44 1115.81 2260.75 1115.64 2261.13C1115.48 2261.51 1115.39 2261.93 1115.39 2262.39V2267H1113.18V2258H1115.37V2259.06C1115.67 2258.67 1116.03 2258.35 1116.44 2258.12C1116.86 2257.88 1117.34 2257.77 1117.87 2257.77C1118.07 2257.77 1118.27 2257.77 1118.45 2257.78C1118.64 2257.8 1118.83 2257.83 1119 2257.88L1118.65 2260.23ZM1125.35 2264.29L1127.33 2265.36C1126.92 2265.93 1126.4 2266.38 1125.77 2266.72C1125.15 2267.06 1124.47 2267.23 1123.73 2267.23C1122.9 2267.23 1122.15 2267.02 1121.46 2266.59C1120.78 2266.17 1120.24 2265.6 1119.83 2264.88C1119.43 2264.16 1119.23 2263.37 1119.23 2262.5C1119.23 2261.84 1119.35 2261.22 1119.58 2260.65C1119.81 2260.08 1120.14 2259.57 1120.54 2259.14C1120.96 2258.7 1121.44 2258.36 1121.98 2258.12C1122.53 2257.87 1123.11 2257.75 1123.73 2257.75C1124.47 2257.75 1125.15 2257.92 1125.77 2258.26C1126.4 2258.6 1126.92 2259.06 1127.33 2259.64L1125.35 2260.7C1125.14 2260.46 1124.89 2260.27 1124.6 2260.14C1124.32 2260.01 1124.03 2259.94 1123.73 2259.94C1123.3 2259.94 1122.91 2260.06 1122.56 2260.3C1122.21 2260.54 1121.94 2260.85 1121.73 2261.24C1121.53 2261.62 1121.43 2262.04 1121.43 2262.5C1121.43 2262.95 1121.53 2263.37 1121.73 2263.76C1121.94 2264.14 1122.21 2264.45 1122.56 2264.69C1122.91 2264.92 1123.3 2265.04 1123.73 2265.04C1124.04 2265.04 1124.34 2264.97 1124.62 2264.84C1124.9 2264.7 1125.15 2264.52 1125.35 2264.29ZM1137.24 2262.36V2267H1135.04V2262.39C1135.04 2261.93 1134.95 2261.51 1134.76 2261.13C1134.57 2260.75 1134.31 2260.44 1133.99 2260.21C1133.67 2259.99 1133.32 2259.87 1132.93 2259.87C1132.48 2259.87 1132.12 2259.99 1131.82 2260.21C1131.53 2260.44 1131.31 2260.75 1131.16 2261.13C1131.02 2261.51 1130.95 2261.93 1130.95 2262.39V2267H1128.73V2253.5H1130.93V2258.85C1131.15 2258.42 1131.45 2258.13 1131.83 2257.98C1132.21 2257.84 1132.65 2257.77 1133.14 2257.77C1133.97 2257.77 1134.69 2257.98 1135.3 2258.4C1135.91 2258.81 1136.38 2259.36 1136.72 2260.06C1137.05 2260.76 1137.23 2261.52 1137.24 2262.36Z" fill="#212121"/>
<path id="Profile" d="M1081.08 1139V1126.4H1085.58C1086.26 1126.4 1086.88 1126.57 1087.43 1126.91C1087.99 1127.25 1088.43 1127.71 1088.76 1128.29C1089.08 1128.87 1089.24 1129.5 1089.24 1130.19C1089.24 1130.9 1089.08 1131.54 1088.74 1132.11C1088.41 1132.68 1087.97 1133.14 1087.41 1133.48C1086.85 1133.82 1086.24 1133.99 1085.58 1133.99H1083.28V1139H1081.08ZM1083.28 1131.79H1085.35C1085.66 1131.79 1085.94 1131.71 1086.2 1131.56C1086.46 1131.4 1086.66 1131.19 1086.81 1130.93C1086.97 1130.66 1087.05 1130.37 1087.05 1130.04C1087.05 1129.71 1086.97 1129.42 1086.81 1129.15C1086.66 1128.89 1086.46 1128.68 1086.2 1128.52C1085.94 1128.37 1085.66 1128.29 1085.35 1128.29H1083.28V1131.79ZM1096.11 1132.23C1095.95 1132.12 1095.78 1132.04 1095.58 1131.97C1095.4 1131.9 1095.19 1131.87 1094.96 1131.87C1094.52 1131.87 1094.15 1131.99 1093.83 1132.21C1093.52 1132.44 1093.28 1132.75 1093.11 1133.13C1092.94 1133.51 1092.86 1133.93 1092.86 1134.39V1139H1090.64V1130H1092.84V1131.06C1093.14 1130.67 1093.5 1130.35 1093.91 1130.12C1094.33 1129.88 1094.8 1129.77 1095.33 1129.77C1095.54 1129.77 1095.73 1129.77 1095.92 1129.78C1096.11 1129.8 1096.29 1129.83 1096.47 1129.88L1096.11 1132.23ZM1101.19 1139.23C1100.37 1139.23 1099.61 1139.02 1098.93 1138.59C1098.25 1138.17 1097.71 1137.6 1097.3 1136.88C1096.9 1136.16 1096.69 1135.37 1096.69 1134.5C1096.69 1133.84 1096.81 1133.22 1097.05 1132.65C1097.28 1132.08 1097.6 1131.57 1098.01 1131.14C1098.42 1130.7 1098.9 1130.36 1099.45 1130.12C1099.99 1129.87 1100.58 1129.75 1101.19 1129.75C1102.02 1129.75 1102.78 1129.96 1103.45 1130.39C1104.14 1130.81 1104.68 1131.39 1105.08 1132.11C1105.49 1132.83 1105.69 1133.62 1105.69 1134.5C1105.69 1135.15 1105.58 1135.77 1105.34 1136.34C1105.11 1136.91 1104.79 1137.41 1104.37 1137.85C1103.96 1138.28 1103.49 1138.62 1102.94 1138.86C1102.4 1139.11 1101.82 1139.23 1101.19 1139.23ZM1101.19 1137.04C1101.63 1137.04 1102.03 1136.92 1102.37 1136.69C1102.72 1136.45 1102.99 1136.14 1103.19 1135.76C1103.4 1135.38 1103.5 1134.96 1103.5 1134.5C1103.5 1134.03 1103.39 1133.61 1103.18 1133.22C1102.98 1132.83 1102.7 1132.52 1102.35 1132.29C1102 1132.06 1101.61 1131.94 1101.19 1131.94C1100.76 1131.94 1100.37 1132.06 1100.02 1132.29C1099.68 1132.53 1099.4 1132.84 1099.2 1133.23C1098.99 1133.62 1098.89 1134.04 1098.89 1134.5C1098.89 1134.97 1099 1135.4 1099.21 1135.79C1099.42 1136.17 1099.69 1136.48 1100.04 1136.7C1100.4 1136.93 1100.78 1137.04 1101.19 1137.04ZM1109.85 1128.11V1130H1112.31V1132.2H1109.85V1139H1107.66V1132.2H1106.68V1130H1107.66V1128.11C1107.66 1127.59 1107.78 1127.12 1108.04 1126.7C1108.29 1126.26 1108.64 1125.92 1109.07 1125.67C1109.5 1125.41 1109.98 1125.28 1110.5 1125.28C1110.88 1125.28 1111.25 1125.36 1111.63 1125.52C1112 1125.67 1112.33 1125.91 1112.62 1126.24L1111.03 1127.79C1110.98 1127.68 1110.9 1127.61 1110.8 1127.56C1110.7 1127.51 1110.6 1127.48 1110.5 1127.48C1110.33 1127.48 1110.17 1127.54 1110.04 1127.67C1109.92 1127.79 1109.85 1127.94 1109.85 1128.11ZM1113.72 1130H1115.92V1139H1113.72V1130ZM1114.83 1128.66C1114.51 1128.66 1114.24 1128.55 1114.02 1128.34C1113.8 1128.13 1113.69 1127.86 1113.69 1127.53C1113.69 1127.22 1113.8 1126.95 1114.02 1126.73C1114.24 1126.52 1114.51 1126.41 1114.83 1126.41C1115.15 1126.41 1115.41 1126.52 1115.63 1126.73C1115.85 1126.95 1115.96 1127.22 1115.96 1127.53C1115.96 1127.86 1115.85 1128.13 1115.63 1128.34C1115.41 1128.55 1115.15 1128.66 1114.83 1128.66ZM1118.99 1139V1125.5H1121.18V1139H1118.99ZM1127.37 1139.23C1126.54 1139.23 1125.78 1139.02 1125.1 1138.59C1124.42 1138.17 1123.88 1137.6 1123.47 1136.88C1123.07 1136.16 1122.87 1135.36 1122.87 1134.49C1122.87 1133.84 1122.99 1133.22 1123.22 1132.65C1123.45 1132.08 1123.77 1131.57 1124.18 1131.14C1124.6 1130.7 1125.08 1130.36 1125.62 1130.12C1126.17 1129.87 1126.75 1129.75 1127.37 1129.75C1128.07 1129.75 1128.71 1129.9 1129.29 1130.2C1129.88 1130.49 1130.38 1130.9 1130.79 1131.41C1131.2 1131.93 1131.49 1132.52 1131.68 1133.18C1131.87 1133.84 1131.91 1134.53 1131.81 1135.25H1125.23C1125.31 1135.58 1125.45 1135.89 1125.64 1136.16C1125.83 1136.42 1126.08 1136.63 1126.37 1136.79C1126.66 1136.95 1127 1137.03 1127.37 1137.04C1127.75 1137.04 1128.1 1136.95 1128.41 1136.77C1128.73 1136.58 1128.99 1136.32 1129.2 1135.99L1131.45 1136.52C1131.08 1137.31 1130.53 1137.97 1129.81 1138.48C1129.08 1138.98 1128.27 1139.23 1127.37 1139.23ZM1125.15 1133.6H1129.58C1129.52 1133.24 1129.38 1132.92 1129.16 1132.63C1128.95 1132.33 1128.69 1132.1 1128.38 1131.93C1128.06 1131.75 1127.73 1131.66 1127.37 1131.66C1127.01 1131.66 1126.68 1131.75 1126.37 1131.93C1126.06 1132.09 1125.8 1132.32 1125.59 1132.62C1125.38 1132.91 1125.23 1133.23 1125.15 1133.6Z" fill="#212121"/>
<path id="See LIVE" d="M8.766 545.616C8.766 544.92 8.874 544.251 9.09 543.609C9.312 542.973 9.627 542.415 10.035 541.935C10.449 541.455 10.944 541.11 11.52 540.9L12.276 542.961C12.036 543.045 11.817 543.216 11.619 543.474C11.421 543.732 11.262 544.047 11.142 544.419C11.022 544.791 10.962 545.19 10.962 545.616C10.962 546.054 11.028 546.462 11.16 546.84C11.298 547.224 11.487 547.533 11.727 547.767C11.973 548.001 12.258 548.118 12.582 548.118C12.912 548.118 13.182 547.995 13.392 547.749C13.608 547.503 13.779 547.188 13.905 546.804C14.031 546.42 14.127 546.024 14.193 545.616C14.331 544.722 14.544 543.921 14.832 543.213C15.12 542.505 15.519 541.944 16.029 541.53C16.539 541.122 17.199 540.918 18.009 540.918C18.771 540.918 19.437 541.137 20.007 541.575C20.577 542.013 21.021 542.589 21.339 543.303C21.657 544.017 21.816 544.788 21.816 545.616C21.816 546.306 21.708 546.972 21.492 547.614C21.276 548.256 20.961 548.817 20.547 549.297C20.133 549.783 19.635 550.131 19.053 550.341L18.306 548.271C18.546 548.187 18.765 548.016 18.963 547.758C19.161 547.5 19.317 547.185 19.431 546.813C19.551 546.441 19.611 546.042 19.611 545.616C19.617 545.19 19.548 544.785 19.404 544.401C19.266 544.023 19.077 543.714 18.837 543.474C18.597 543.234 18.321 543.114 18.009 543.114C17.607 543.114 17.304 543.225 17.1 543.447C16.896 543.675 16.746 543.978 16.65 544.356C16.56 544.734 16.476 545.154 16.398 545.616C16.266 546.456 16.044 547.233 15.732 547.947C15.42 548.661 15.003 549.234 14.481 549.666C13.965 550.098 13.332 550.314 12.582 550.314C11.82 550.314 11.151 550.098 10.575 549.666C10.005 549.234 9.561 548.661 9.243 547.947C8.925 547.233 8.766 546.456 8.766 545.616ZM8.766 555.991C8.766 555.163 8.979 554.407 9.405 553.723C9.831 553.045 10.404 552.502 11.124 552.094C11.844 551.692 12.639 551.491 13.509 551.491C14.163 551.491 14.775 551.608 15.345 551.842C15.921 552.076 16.425 552.397 16.857 552.805C17.295 553.219 17.637 553.699 17.883 554.245C18.129 554.791 18.252 555.373 18.252 555.991C18.252 556.693 18.102 557.335 17.802 557.917C17.508 558.505 17.103 559.003 16.587 559.411C16.071 559.819 15.483 560.116 14.823 560.302C14.163 560.488 13.473 560.53 12.753 560.428L12.753 553.849C12.417 553.933 12.114 554.071 11.844 554.263C11.58 554.455 11.367 554.698 11.205 554.992C11.049 555.286 10.968 555.619 10.962 555.991C10.956 556.375 11.046 556.723 11.232 557.035C11.424 557.353 11.682 557.617 12.006 557.827L11.484 560.068C10.686 559.702 10.032 559.156 9.522 558.43C9.018 557.704 8.766 556.891 8.766 555.991ZM14.4 553.777L14.4 558.205C14.76 558.139 15.084 557.998 15.372 557.782C15.666 557.572 15.9 557.311 16.074 556.999C16.248 556.687 16.335 556.351 16.335 555.991C16.335 555.631 16.248 555.298 16.074 554.992C15.906 554.686 15.675 554.425 15.381 554.209C15.093 553.999 14.766 553.855 14.4 553.777ZM8.766 565.888C8.766 565.06 8.979 564.304 9.405 563.62C9.831 562.942 10.404 562.399 11.124 561.991C11.844 561.589 12.639 561.388 13.509 561.388C14.163 561.388 14.775 561.505 15.345 561.739C15.921 561.973 16.425 562.294 16.857 562.702C17.295 563.116 17.637 563.596 17.883 564.142C18.129 564.688 18.252 565.27 18.252 565.888C18.252 566.59 18.102 567.232 17.802 567.814C17.508 568.402 17.103 568.9 16.587 569.308C16.071 569.716 15.483 570.013 14.823 570.199C14.163 570.385 13.473 570.427 12.753 570.325L12.753 563.746C12.417 563.83 12.114 563.968 11.844 564.16C11.58 564.352 11.367 564.595 11.205 564.889C11.049 565.183 10.968 565.516 10.962 565.888C10.956 566.272 11.046 566.62 11.232 566.932C11.424 567.25 11.682 567.514 12.006 567.724L11.484 569.965C10.686 569.599 10.032 569.053 9.522 568.327C9.018 567.601 8.766 566.788 8.766 565.888ZM14.4 563.674L14.4 568.102C14.76 568.036 15.084 567.895 15.372 567.679C15.666 567.469 15.9 567.208 16.074 566.896C16.248 566.584 16.335 566.248 16.335 565.888C16.335 565.528 16.248 565.195 16.074 564.889C15.906 564.583 15.675 564.322 15.381 564.106C15.093 563.896 14.766 563.752 14.4 563.674ZM9 576.324L21.6 576.324L21.6 578.52L11.196 578.52L11.196 583.767L9 583.767L9 576.324ZM9 586.016L21.6 586.016L21.6 588.212L9 588.212L9 586.016ZM9 594.41L21.6 589.838L21.6 592.169L11.565 595.814L21.6 599.459L21.6 601.79L9 597.209L9 594.41ZM9 602.85L21.6 602.85L21.6 610.752L19.404 610.752L19.404 605.046L16.848 605.046L16.848 609.573L14.652 609.573L14.652 605.046L11.196 605.046L11.196 610.752L9 610.752L9 602.85Z" fill="#212121"/>
<path id="Home Menu" d="M1088.5 4.4H1090.69V17H1088.5V11.348H1083.28V17H1081.08V4.4H1083.28V9.152H1088.5V4.4ZM1096.47 17.234C1095.64 17.234 1094.88 17.021 1094.2 16.595C1093.52 16.169 1092.98 15.599 1092.57 14.885C1092.17 14.165 1091.97 13.37 1091.97 12.5C1091.97 11.84 1092.08 11.225 1092.32 10.655C1092.55 10.079 1092.87 9.575 1093.28 9.143C1093.69 8.705 1094.17 8.363 1094.72 8.117C1095.27 7.871 1095.85 7.748 1096.47 7.748C1097.29 7.748 1098.05 7.961 1098.72 8.387C1099.41 8.813 1099.95 9.386 1100.35 10.106C1100.76 10.826 1100.97 11.624 1100.97 12.5C1100.97 13.154 1100.85 13.766 1100.61 14.336C1100.38 14.906 1100.06 15.41 1099.64 15.848C1099.23 16.28 1098.76 16.619 1098.21 16.865C1097.67 17.111 1097.09 17.234 1096.47 17.234ZM1096.47 15.038C1096.9 15.038 1097.3 14.921 1097.64 14.687C1097.99 14.453 1098.27 14.144 1098.46 13.76C1098.67 13.376 1098.77 12.956 1098.77 12.5C1098.77 12.032 1098.66 11.606 1098.45 11.222C1098.25 10.832 1097.97 10.523 1097.62 10.295C1097.27 10.061 1096.89 9.944 1096.47 9.944C1096.03 9.944 1095.64 10.061 1095.3 10.295C1094.95 10.529 1094.67 10.841 1094.47 11.231C1094.26 11.621 1094.16 12.044 1094.16 12.5C1094.16 12.974 1094.27 13.403 1094.48 13.787C1094.69 14.171 1094.97 14.477 1095.31 14.705C1095.67 14.927 1096.05 15.038 1096.47 15.038ZM1102.05 17V8H1104.25V8.909C1104.51 8.615 1104.79 8.378 1105.09 8.198C1105.39 8.012 1105.72 7.919 1106.1 7.919C1106.71 7.919 1107.27 8.048 1107.78 8.306C1108.29 8.558 1108.72 8.918 1109.09 9.386C1109.46 8.918 1109.89 8.558 1110.4 8.306C1110.91 8.048 1111.47 7.919 1112.08 7.919C1112.85 7.919 1113.54 8.111 1114.15 8.495C1114.76 8.879 1115.24 9.395 1115.6 10.043C1115.95 10.685 1116.13 11.396 1116.13 12.176V17H1113.93V12.176C1113.93 11.792 1113.85 11.447 1113.7 11.141C1113.54 10.829 1113.32 10.58 1113.04 10.394C1112.77 10.208 1112.44 10.115 1112.08 10.115C1111.71 10.115 1111.39 10.208 1111.1 10.394C1110.82 10.58 1110.59 10.829 1110.43 11.141C1110.27 11.447 1110.19 11.792 1110.19 12.176V17H1107.99V12.176C1107.99 11.792 1107.91 11.447 1107.74 11.141C1107.58 10.829 1107.35 10.58 1107.07 10.394C1106.78 10.208 1106.46 10.115 1106.1 10.115C1105.75 10.115 1105.44 10.211 1105.16 10.403C1104.88 10.595 1104.65 10.85 1104.49 11.168C1104.33 11.486 1104.25 11.834 1104.25 12.212V17H1102.05ZM1121.6 17.234C1120.77 17.234 1120.02 17.021 1119.33 16.595C1118.66 16.169 1118.11 15.596 1117.71 14.876C1117.3 14.156 1117.1 13.361 1117.1 12.491C1117.1 11.837 1117.22 11.225 1117.45 10.655C1117.69 10.079 1118.01 9.575 1118.42 9.143C1118.83 8.705 1119.31 8.363 1119.86 8.117C1120.4 7.871 1120.98 7.748 1121.6 7.748C1122.3 7.748 1122.95 7.898 1123.53 8.198C1124.12 8.492 1124.61 8.897 1125.02 9.413C1125.43 9.929 1125.73 10.517 1125.91 11.177C1126.1 11.837 1126.14 12.527 1126.04 13.247H1119.46C1119.54 13.583 1119.68 13.886 1119.87 14.156C1120.07 14.42 1120.31 14.633 1120.6 14.795C1120.9 14.951 1121.23 15.032 1121.6 15.038C1121.99 15.044 1122.33 14.954 1122.65 14.768C1122.96 14.576 1123.23 14.318 1123.44 13.994L1125.68 14.516C1125.31 15.314 1124.77 15.968 1124.04 16.478C1123.32 16.982 1122.5 17.234 1121.6 17.234ZM1119.39 11.6H1123.82C1123.75 11.24 1123.61 10.916 1123.39 10.628C1123.18 10.334 1122.92 10.1 1122.61 9.926C1122.3 9.752 1121.96 9.665 1121.6 9.665C1121.24 9.665 1120.91 9.752 1120.6 9.926C1120.3 10.094 1120.04 10.325 1119.82 10.619C1119.61 10.907 1119.47 11.234 1119.39 11.6ZM1132.04 17L1134.49 4.4H1136.3L1139.37 12.473L1142.44 4.4H1144.26L1146.71 17H1144.47L1142.96 9.206L1140.12 16.712H1138.62L1135.78 9.206L1134.28 17H1132.04ZM1151.87 17.234C1151.04 17.234 1150.29 17.021 1149.6 16.595C1148.93 16.169 1148.38 15.596 1147.98 14.876C1147.57 14.156 1147.37 13.361 1147.37 12.491C1147.37 11.837 1147.49 11.225 1147.72 10.655C1147.96 10.079 1148.28 9.575 1148.69 9.143C1149.1 8.705 1149.58 8.363 1150.13 8.117C1150.67 7.871 1151.25 7.748 1151.87 7.748C1152.57 7.748 1153.22 7.898 1153.8 8.198C1154.39 8.492 1154.88 8.897 1155.29 9.413C1155.7 9.929 1156 10.517 1156.18 11.177C1156.37 11.837 1156.41 12.527 1156.31 13.247H1149.73C1149.81 13.583 1149.95 13.886 1150.14 14.156C1150.34 14.42 1150.58 14.633 1150.87 14.795C1151.17 14.951 1151.5 15.032 1151.87 15.038C1152.26 15.044 1152.6 14.954 1152.92 14.768C1153.23 14.576 1153.5 14.318 1153.71 13.994L1155.95 14.516C1155.58 15.314 1155.04 15.968 1154.31 16.478C1153.59 16.982 1152.77 17.234 1151.87 17.234ZM1149.66 11.6H1154.09C1154.02 11.24 1153.88 10.916 1153.66 10.628C1153.45 10.334 1153.19 10.1 1152.88 9.926C1152.57 9.752 1152.23 9.665 1151.87 9.665C1151.51 9.665 1151.18 9.752 1150.87 9.926C1150.57 10.094 1150.31 10.325 1150.09 10.619C1149.88 10.907 1149.74 11.234 1149.66 11.6ZM1166.36 12.347V17H1164.16V12.383C1164.16 11.921 1164.07 11.501 1163.88 11.123C1163.68 10.739 1163.42 10.433 1163.07 10.205C1162.74 9.977 1162.35 9.863 1161.9 9.863C1161.47 9.863 1161.1 9.977 1160.78 10.205C1160.46 10.433 1160.22 10.739 1160.04 11.123C1159.87 11.501 1159.79 11.921 1159.79 12.383V17H1157.59V8H1159.79V9.062C1160.09 8.66 1160.45 8.342 1160.86 8.108C1161.28 7.868 1161.75 7.748 1162.28 7.748C1163.11 7.748 1163.83 7.958 1164.43 8.378C1165.05 8.792 1165.52 9.347 1165.85 10.043C1166.18 10.739 1166.35 11.507 1166.36 12.347ZM1168.34 12.635V8H1170.53V12.599C1170.53 13.061 1170.63 13.484 1170.82 13.868C1171.01 14.252 1171.28 14.558 1171.62 14.786C1171.96 15.008 1172.35 15.119 1172.79 15.119C1173.23 15.119 1173.61 15.008 1173.92 14.786C1174.24 14.558 1174.48 14.252 1174.65 13.868C1174.82 13.484 1174.91 13.061 1174.91 12.599V8H1177.1V17H1174.91V15.929C1174.61 16.325 1174.26 16.646 1173.84 16.892C1173.42 17.132 1172.95 17.252 1172.42 17.252C1171.59 17.252 1170.87 17.045 1170.26 16.631C1169.66 16.211 1169.19 15.653 1168.85 14.957C1168.51 14.255 1168.34 13.481 1168.34 12.635Z" fill="#212121"/>
</g>
</svg>
