<svg width="1963" height="300" viewBox="0 0 1963 300" fill="none" xmlns="http://www.w3.org/2000/svg">
<path id="Light Version" d="M62.7 221.7H131.7V255H20.7V45.6H62.7V221.7ZM179.295 69C171.895 69 165.695 66.7 160.695 62.1C155.895 57.3 153.495 51.4 153.495 44.4C153.495 37.4 155.895 31.6 160.695 27C165.695 22.2 171.895 19.8 179.295 19.8C186.695 19.8 192.795 22.2 197.595 27C202.595 31.6 205.095 37.4 205.095 44.4C205.095 51.4 202.595 57.3 197.595 62.1C192.795 66.7 186.695 69 179.295 69ZM199.995 88.8V255H157.995V88.8H199.995ZM306.191 86.1C318.591 86.1 329.491 88.6 338.891 93.6C348.291 98.4 355.691 104.7 361.091 112.5V88.8H403.391V256.2C403.391 271.6 400.291 285.3 394.091 297.3C387.891 309.5 378.591 319.1 366.191 326.1C353.791 333.3 338.791 336.9 321.191 336.9C297.591 336.9 278.191 331.4 262.991 320.4C247.991 309.4 239.491 294.4 237.491 275.4H279.191C281.391 283 286.091 289 293.291 293.4C300.691 298 309.591 300.3 319.991 300.3C332.191 300.3 342.091 296.6 349.691 289.2C357.291 282 361.091 271 361.091 256.2V230.4C355.691 238.2 348.191 244.7 338.591 249.9C329.191 255.1 318.391 257.7 306.191 257.7C292.191 257.7 279.391 254.1 267.791 246.9C256.191 239.7 246.991 229.6 240.191 216.6C233.591 203.4 230.291 188.3 230.291 171.3C230.291 154.5 233.591 139.6 240.191 126.6C246.991 113.6 256.091 103.6 267.491 96.6C279.091 89.6 291.991 86.1 306.191 86.1ZM361.091 171.9C361.091 161.7 359.091 153 355.091 145.8C351.091 138.4 345.691 132.8 338.891 129C332.091 125 324.791 123 316.991 123C309.191 123 301.991 124.9 295.391 128.7C288.791 132.5 283.391 138.1 279.191 145.5C275.191 152.7 273.191 161.3 273.191 171.3C273.191 181.3 275.191 190.1 279.191 197.7C283.391 205.1 288.791 210.8 295.391 214.8C302.191 218.8 309.391 220.8 316.991 220.8C324.791 220.8 332.091 218.9 338.891 215.1C345.691 211.1 351.091 205.5 355.091 198.3C359.091 190.9 361.091 182.1 361.091 171.9ZM537.612 86.4C550.212 86.4 561.412 89.2 571.212 94.8C581.012 100.2 588.612 108.3 594.012 119.1C599.612 129.7 602.412 142.5 602.412 157.5V255H560.412V163.2C560.412 150 557.112 139.9 550.512 132.9C543.912 125.7 534.912 122.1 523.512 122.1C511.912 122.1 502.712 125.7 495.912 132.9C489.312 139.9 486.012 150 486.012 163.2V255H444.012V33H486.012V109.5C491.412 102.3 498.612 96.7 507.612 92.7C516.612 88.5 526.612 86.4 537.612 86.4ZM690.852 123.3V203.7C690.852 209.3 692.152 213.4 694.752 216C697.552 218.4 702.152 219.6 708.552 219.6H728.052V255H701.652C666.252 255 648.552 237.8 648.552 203.4V123.3H628.752V88.8H648.552V47.7H690.852V88.8H728.052V123.3H690.852ZM1017.04 45.6L940.245 255H889.245L812.445 45.6H857.445L915.045 212.1L972.345 45.6H1017.04ZM1196.33 168.3C1196.33 174.3 1195.93 179.7 1195.13 184.5H1073.63C1074.63 196.5 1078.83 205.9 1086.23 212.7C1093.63 219.5 1102.73 222.9 1113.53 222.9C1129.13 222.9 1140.23 216.2 1146.83 202.8H1192.13C1187.33 218.8 1178.13 232 1164.53 242.4C1150.93 252.6 1134.23 257.7 1114.43 257.7C1098.43 257.7 1084.03 254.2 1071.23 247.2C1058.63 240 1048.73 229.9 1041.53 216.9C1034.53 203.9 1031.03 188.9 1031.03 171.9C1031.03 154.7 1034.53 139.6 1041.53 126.6C1048.53 113.6 1058.33 103.6 1070.93 96.6C1083.53 89.6 1098.03 86.1 1114.43 86.1C1130.23 86.1 1144.33 89.5 1156.73 96.3C1169.33 103.1 1179.03 112.8 1185.83 125.4C1192.83 137.8 1196.33 152.1 1196.33 168.3ZM1152.83 156.3C1152.63 145.5 1148.73 136.9 1141.13 130.5C1133.53 123.9 1124.23 120.6 1113.23 120.6C1102.83 120.6 1094.03 123.8 1086.83 130.2C1079.83 136.4 1075.53 145.1 1073.93 156.3H1152.83ZM1268.58 114.6C1273.98 105.8 1280.98 98.9 1289.58 93.9C1298.38 88.9 1308.38 86.4 1319.58 86.4V130.5H1308.48C1295.28 130.5 1285.28 133.6 1278.48 139.8C1271.88 146 1268.58 156.8 1268.58 172.2V255H1226.58V88.8H1268.58V114.6ZM1411.07 257.7C1397.47 257.7 1385.27 255.3 1374.47 250.5C1363.67 245.5 1355.07 238.8 1348.67 230.4C1342.47 222 1339.07 212.7 1338.47 202.5H1380.77C1381.57 208.9 1384.67 214.2 1390.07 218.4C1395.67 222.6 1402.57 224.7 1410.77 224.7C1418.77 224.7 1424.97 223.1 1429.37 219.9C1433.97 216.7 1436.27 212.6 1436.27 207.6C1436.27 202.2 1433.47 198.2 1427.87 195.6C1422.47 192.8 1413.77 189.8 1401.77 186.6C1389.37 183.6 1379.17 180.5 1371.17 177.3C1363.37 174.1 1356.57 169.2 1350.77 162.6C1345.17 156 1342.37 147.1 1342.37 135.9C1342.37 126.7 1344.97 118.3 1350.17 110.7C1355.57 103.1 1363.17 97.1 1372.97 92.7C1382.97 88.3 1394.67 86.1 1408.07 86.1C1427.87 86.1 1443.67 91.1 1455.47 101.1C1467.27 110.9 1473.77 124.2 1474.97 141H1434.77C1434.17 134.4 1431.37 129.2 1426.37 125.4C1421.57 121.4 1415.07 119.4 1406.87 119.4C1399.27 119.4 1393.37 120.8 1389.17 123.6C1385.17 126.4 1383.17 130.3 1383.17 135.3C1383.17 140.9 1385.97 145.2 1391.57 148.2C1397.17 151 1405.87 153.9 1417.67 156.9C1429.67 159.9 1439.57 163 1447.37 166.2C1455.17 169.4 1461.87 174.4 1467.47 181.2C1473.27 187.8 1476.27 196.6 1476.47 207.6C1476.47 217.2 1473.77 225.8 1468.37 233.4C1463.17 241 1455.57 247 1445.57 251.4C1435.77 255.6 1424.27 257.7 1411.07 257.7ZM1531.85 69C1524.45 69 1518.25 66.7 1513.25 62.1C1508.45 57.3 1506.05 51.4 1506.05 44.4C1506.05 37.4 1508.45 31.6 1513.25 27C1518.25 22.2 1524.45 19.8 1531.85 19.8C1539.25 19.8 1545.35 22.2 1550.15 27C1555.15 31.6 1557.65 37.4 1557.65 44.4C1557.65 51.4 1555.15 57.3 1550.15 62.1C1545.35 66.7 1539.25 69 1531.85 69ZM1552.55 88.8V255H1510.55V88.8H1552.55ZM1667.44 257.7C1651.44 257.7 1637.04 254.2 1624.24 247.2C1611.44 240 1601.34 229.9 1593.94 216.9C1586.74 203.9 1583.14 188.9 1583.14 171.9C1583.14 154.9 1586.84 139.9 1594.24 126.9C1601.84 113.9 1612.14 103.9 1625.14 96.9C1638.14 89.7 1652.64 86.1 1668.64 86.1C1684.64 86.1 1699.14 89.7 1712.14 96.9C1725.14 103.9 1735.34 113.9 1742.74 126.9C1750.34 139.9 1754.14 154.9 1754.14 171.9C1754.14 188.9 1750.24 203.9 1742.44 216.9C1734.84 229.9 1724.44 240 1711.24 247.2C1698.24 254.2 1683.64 257.7 1667.44 257.7ZM1667.44 221.1C1675.04 221.1 1682.14 219.3 1688.74 215.7C1695.54 211.9 1700.94 206.3 1704.94 198.9C1708.94 191.5 1710.94 182.5 1710.94 171.9C1710.94 156.1 1706.74 144 1698.34 135.6C1690.14 127 1680.04 122.7 1668.04 122.7C1656.04 122.7 1645.94 127 1637.74 135.6C1629.74 144 1625.74 156.1 1625.74 171.9C1625.74 187.7 1629.64 199.9 1637.44 208.5C1645.44 216.9 1655.44 221.1 1667.44 221.1ZM1876.65 86.4C1896.45 86.4 1912.45 92.7 1924.65 105.3C1936.85 117.7 1942.95 135.1 1942.95 157.5V255H1900.95V163.2C1900.95 150 1897.65 139.9 1891.05 132.9C1884.45 125.7 1875.45 122.1 1864.05 122.1C1852.45 122.1 1843.25 125.7 1836.45 132.9C1829.85 139.9 1826.55 150 1826.55 163.2V255H1784.55V88.8H1826.55V109.5C1832.15 102.3 1839.25 96.7 1847.85 92.7C1856.65 88.5 1866.25 86.4 1876.65 86.4Z" fill="black"/>
</svg>
