<svg width="620" height="152" viewBox="0 0 620 152" fill="none" xmlns="http://www.w3.org/2000/svg">
<g id="Elements/Marker Navigation">
<g id="Auto Layout Vertical">
<path d="M0 24C0 10.7452 10.7452 0 24 0H152V152H24C10.7452 152 0 141.255 0 128V24Z" fill="url(#paint0_linear_103_2367)"/>
<path id="00" d="M57.0829 100.897C54.2769 100.897 51.7239 100.253 49.4239 98.965C47.1239 97.654 45.1344 95.8485 43.4554 93.5485C41.7994 91.2485 40.5229 88.592 39.6259 85.579C38.7289 82.543 38.2804 79.3 38.2804 75.85C38.2804 72.4 38.7289 69.1685 39.6259 66.1555C40.5229 63.1195 41.7994 60.4515 43.4554 58.1515C45.1344 55.8515 47.1239 54.0575 49.4239 52.7695C51.7239 51.4585 54.2769 50.803 57.0829 50.803C59.889 50.803 62.442 51.4585 64.7419 52.7695C67.042 54.0575 69.0085 55.8515 70.6415 58.1515C72.2975 60.4515 73.574 63.1195 74.471 66.1555C75.391 69.1685 75.851 72.4 75.851 75.85C75.851 79.3 75.391 82.543 74.471 85.579C73.574 88.592 72.2975 91.2485 70.6415 93.5485C69.0085 95.8485 67.042 97.654 64.7419 98.965C62.442 100.253 59.889 100.897 57.0829 100.897ZM57.0829 92.479C59.5439 92.479 61.5795 91.697 63.1895 90.133C64.7995 88.569 65.9955 86.522 66.7775 83.992C67.5595 81.462 67.9504 78.748 67.9504 75.85C67.9504 72.791 67.5365 70.008 66.7085 67.501C65.8805 64.971 64.6615 62.9585 63.0515 61.4635C61.4414 59.9685 59.4519 59.221 57.0829 59.221C55.22 59.221 53.5985 59.681 52.2184 60.601C50.8615 61.498 49.7345 62.7285 48.8375 64.2925C47.9405 65.8565 47.2735 67.639 46.8365 69.64C46.3994 71.618 46.1809 73.688 46.1809 75.85C46.1809 78.725 46.5719 81.439 47.3539 83.992C48.1589 86.522 49.3664 88.569 50.9765 90.133C52.6094 91.697 54.6449 92.479 57.0829 92.479ZM87.9254 100L97.2059 83.9575C94.9289 84.0955 92.7554 83.785 90.6854 83.026C88.6384 82.267 86.8099 81.14 85.1999 79.645C83.5899 78.15 82.3134 76.379 81.3704 74.332C80.4504 72.285 79.9904 70.0655 79.9904 67.6735C79.9904 65.3505 80.4274 63.177 81.3014 61.153C82.1754 59.106 83.3829 57.312 84.9239 55.771C86.4879 54.207 88.2819 52.988 90.3059 52.114C92.3529 51.24 94.5494 50.803 96.8954 50.803C99.9544 50.803 102.749 51.562 105.279 53.08C107.832 54.598 109.867 56.6335 111.385 59.1865C112.926 61.7395 113.697 64.5685 113.697 67.6735C113.697 69.2145 113.501 70.675 113.11 72.055C112.742 73.412 112.156 74.792 111.351 76.195L97.6544 100H87.9254ZM96.8264 76.126C98.4824 76.126 99.9429 75.7235 101.208 74.9185C102.496 74.1135 103.496 73.067 104.209 71.779C104.922 70.491 105.279 69.111 105.279 67.639C105.279 66.029 104.888 64.5915 104.106 63.3265C103.324 62.0385 102.289 61.038 101.001 60.325C99.7129 59.589 98.3444 59.221 96.8954 59.221C95.2394 59.221 93.7674 59.6235 92.4794 60.4285C91.2144 61.2105 90.2139 62.2455 89.4779 63.5335C88.7419 64.8215 88.3739 66.19 88.3739 67.639C88.3739 69.18 88.7419 70.5945 89.4779 71.8825C90.2369 73.1705 91.2489 74.2055 92.5139 74.9875C93.8019 75.7465 95.2394 76.126 96.8264 76.126Z" fill="white"/>
</g>
<g id="Auto Layout Vertical_2">
<path d="M152 0H596C609.255 0 620 10.7452 620 24V128C620 141.255 609.255 152 596 152H152V0Z" fill="#35383F"/>
<path id="Section" d="M202.88 93V59.4H214.448C216.256 59.4 217.888 59.848 219.344 60.744C220.816 61.64 221.984 62.848 222.848 64.368C223.728 65.888 224.168 67.568 224.168 69.408C224.168 71.28 223.72 72.976 222.824 74.496C221.944 76 220.768 77.2 219.296 78.096C217.824 78.992 216.208 79.44 214.448 79.44H207.872V93H202.88ZM207.872 74.448H213.944C214.904 74.448 215.776 74.208 216.56 73.728C217.36 73.248 217.992 72.608 218.456 71.808C218.936 71.008 219.176 70.104 219.176 69.096C219.176 68.088 218.936 67.184 218.456 66.384C217.992 65.568 217.36 64.928 216.56 64.464C215.776 63.984 214.904 63.744 213.944 63.744H207.872V74.448ZM242.283 74.016C241.867 73.76 241.411 73.56 240.915 73.416C240.435 73.256 239.907 73.176 239.331 73.176C238.083 73.176 236.995 73.504 236.067 74.16C235.139 74.816 234.411 75.704 233.883 76.824C233.371 77.944 233.115 79.184 233.115 80.544V93H228.099V69H233.091V72.24C233.923 71.04 234.931 70.096 236.115 69.408C237.315 68.704 238.651 68.352 240.123 68.352C240.667 68.352 241.179 68.376 241.659 68.424C242.155 68.472 242.627 68.568 243.075 68.712L242.283 74.016ZM255.628 93.624C253.42 93.624 251.404 93.056 249.58 91.92C247.772 90.784 246.324 89.264 245.236 87.36C244.164 85.44 243.628 83.32 243.628 81C243.628 79.24 243.94 77.6 244.564 76.08C245.188 74.544 246.044 73.2 247.132 72.048C248.236 70.88 249.516 69.968 250.972 69.312C252.428 68.656 253.98 68.328 255.628 68.328C257.836 68.328 259.844 68.896 261.652 70.032C263.476 71.168 264.924 72.696 265.996 74.616C267.084 76.536 267.628 78.664 267.628 81C267.628 82.744 267.316 84.376 266.692 85.896C266.068 87.416 265.204 88.76 264.1 89.928C263.012 91.08 261.74 91.984 260.284 92.64C258.844 93.296 257.292 93.624 255.628 93.624ZM255.628 88.632C256.956 88.632 258.148 88.28 259.204 87.576C260.26 86.872 261.092 85.944 261.7 84.792C262.324 83.624 262.636 82.36 262.636 81C262.636 79.608 262.316 78.328 261.676 77.16C261.052 75.992 260.212 75.064 259.156 74.376C258.1 73.672 256.924 73.32 255.628 73.32C254.316 73.32 253.124 73.672 252.052 74.376C250.996 75.08 250.156 76.016 249.532 77.184C248.924 78.352 248.62 79.624 248.62 81C248.62 82.424 248.94 83.712 249.58 84.864C250.22 86.016 251.068 86.936 252.124 87.624C253.196 88.296 254.364 88.632 255.628 88.632ZM278.095 63.552V69H284.863V73.992H278.095V93H273.103V73.992H270.247V69H273.103V63.552C273.103 62.24 273.423 61.048 274.063 59.976C274.703 58.888 275.559 58.024 276.631 57.384C277.719 56.744 278.927 56.424 280.255 56.424C281.215 56.424 282.151 56.616 283.063 57C283.975 57.384 284.791 57.976 285.511 58.776L281.935 62.304C281.759 62.016 281.511 61.8 281.191 61.656C280.887 61.496 280.575 61.416 280.255 61.416C279.663 61.416 279.151 61.624 278.719 62.04C278.303 62.456 278.095 62.96 278.095 63.552ZM288.568 69H293.56V93H288.568V69ZM291.088 65.04C290.336 65.04 289.704 64.792 289.192 64.296C288.68 63.8 288.424 63.176 288.424 62.424C288.424 61.688 288.68 61.072 289.192 60.576C289.704 60.064 290.336 59.808 291.088 59.808C291.824 59.808 292.448 60.064 292.96 60.576C293.472 61.072 293.728 61.688 293.728 62.424C293.728 63.176 293.472 63.8 292.96 64.296C292.448 64.792 291.824 65.04 291.088 65.04ZM301.418 93V57H306.386V93H301.418ZM322.987 93.624C320.779 93.624 318.763 93.056 316.939 91.92C315.131 90.784 313.683 89.264 312.595 87.36C311.523 85.44 310.987 83.32 310.987 81C310.987 79.24 311.299 77.6 311.923 76.08C312.547 74.544 313.403 73.2 314.491 72.048C315.595 70.88 316.875 69.968 318.331 69.312C319.787 68.656 321.339 68.328 322.987 68.328C324.827 68.328 326.515 68.712 328.051 69.48C329.587 70.232 330.899 71.28 331.987 72.624C333.075 73.952 333.875 75.488 334.387 77.232C334.899 78.96 335.051 80.8 334.843 82.752H316.339C316.547 83.856 316.947 84.856 317.539 85.752C318.147 86.632 318.915 87.328 319.843 87.84C320.787 88.352 321.835 88.616 322.987 88.632C324.203 88.632 325.307 88.328 326.299 87.72C327.307 87.112 328.131 86.272 328.771 85.2L333.835 86.376C332.875 88.504 331.427 90.248 329.491 91.608C327.555 92.952 325.387 93.624 322.987 93.624ZM316.171 78.936H329.803C329.643 77.784 329.235 76.744 328.579 75.816C327.939 74.872 327.131 74.128 326.155 73.584C325.195 73.024 324.139 72.744 322.987 72.744C321.851 72.744 320.795 73.016 319.819 73.56C318.859 74.104 318.059 74.848 317.419 75.792C316.795 76.72 316.379 77.768 316.171 78.936ZM359.986 93.624C358.034 93.624 356.29 93.152 354.754 92.208C353.234 91.264 352.034 90.024 351.154 88.488C350.29 86.936 349.858 85.264 349.858 83.472C349.858 82.448 349.954 81.552 350.146 80.784C350.354 80.016 350.698 79.264 351.178 78.528C351.674 77.792 352.346 76.968 353.194 76.056C354.058 75.144 355.146 74.032 356.458 72.72C355.722 71.968 355.106 71.312 354.61 70.752C354.114 70.192 353.722 69.672 353.434 69.192C353.146 68.696 352.938 68.184 352.81 67.656C352.698 67.128 352.642 66.528 352.642 65.856C352.642 64.448 352.978 63.192 353.65 62.088C354.322 60.968 355.218 60.088 356.338 59.448C357.458 58.792 358.674 58.464 359.986 58.464C361.33 58.464 362.562 58.8 363.682 59.472C364.802 60.128 365.69 61.016 366.346 62.136C367.018 63.24 367.354 64.48 367.354 65.856C367.354 66.544 367.29 67.16 367.162 67.704C367.034 68.232 366.818 68.744 366.514 69.24C366.226 69.736 365.834 70.264 365.338 70.824C364.842 71.368 364.234 72 363.514 72.72L370.762 79.968L376.546 74.184V81.24L374.266 83.52L380.242 89.472L376.714 93L370.762 87.072C369.434 88.4 368.306 89.488 367.378 90.336C366.466 91.184 365.642 91.848 364.906 92.328C364.17 92.808 363.418 93.144 362.65 93.336C361.898 93.528 361.01 93.624 359.986 93.624ZM359.986 88.632C360.626 88.632 361.17 88.56 361.618 88.416C362.082 88.256 362.554 87.992 363.034 87.624C363.514 87.24 364.074 86.72 364.714 86.064C365.37 85.392 366.21 84.536 367.234 83.496L359.986 76.248C358.93 77.304 358.066 78.168 357.394 78.84C356.722 79.496 356.202 80.056 355.834 80.52C355.482 80.984 355.234 81.448 355.09 81.912C354.946 82.36 354.874 82.896 354.874 83.52C354.874 84.496 355.106 85.368 355.57 86.136C356.05 86.904 356.674 87.512 357.442 87.96C358.226 88.408 359.074 88.632 359.986 88.632ZM359.986 69.888C360.802 69.072 361.418 68.464 361.834 68.064C362.266 67.648 362.554 67.288 362.698 66.984C362.858 66.664 362.938 66.256 362.938 65.76C362.938 64.88 362.626 64.176 362.002 63.648C361.394 63.104 360.722 62.832 359.986 62.832C359.186 62.832 358.498 63.12 357.922 63.696C357.346 64.272 357.058 64.96 357.058 65.76C357.058 66.256 357.138 66.672 357.298 67.008C357.474 67.328 357.77 67.696 358.186 68.112C358.618 68.528 359.218 69.12 359.986 69.888ZM408.544 93.624C406.704 93.624 404.936 93.336 403.24 92.76C401.544 92.184 400.064 91.36 398.8 90.288C397.536 89.2 396.632 87.912 396.088 86.424L400.768 84.672C401.04 85.44 401.56 86.128 402.328 86.736C403.112 87.328 404.04 87.792 405.112 88.128C406.2 88.464 407.344 88.632 408.544 88.632C409.824 88.632 411.024 88.424 412.144 88.008C413.28 87.592 414.192 87.016 414.88 86.28C415.584 85.544 415.936 84.68 415.936 83.688C415.936 82.664 415.568 81.824 414.832 81.168C414.112 80.512 413.184 79.992 412.048 79.608C410.928 79.224 409.76 78.936 408.544 78.744C406.192 78.36 404.08 77.8 402.208 77.064C400.352 76.328 398.88 75.296 397.792 73.968C396.72 72.64 396.184 70.912 396.184 68.784C396.184 66.784 396.752 65.04 397.888 63.552C399.04 62.064 400.552 60.912 402.424 60.096C404.312 59.264 406.352 58.848 408.544 58.848C410.352 58.848 412.096 59.136 413.776 59.712C415.472 60.272 416.96 61.096 418.24 62.184C419.536 63.256 420.464 64.56 421.024 66.096L416.296 67.8C416.024 67.016 415.504 66.336 414.736 65.76C413.968 65.168 413.04 64.704 411.952 64.368C410.88 64.032 409.744 63.864 408.544 63.864C407.264 63.848 406.064 64.056 404.944 64.488C403.84 64.904 402.936 65.48 402.232 66.216C401.528 66.952 401.176 67.808 401.176 68.784C401.176 69.984 401.504 70.896 402.16 71.52C402.816 72.144 403.696 72.608 404.8 72.912C405.92 73.2 407.168 73.464 408.544 73.704C410.752 74.056 412.792 74.64 414.664 75.456C416.552 76.272 418.064 77.36 419.2 78.72C420.352 80.064 420.928 81.72 420.928 83.688C420.928 85.672 420.352 87.416 419.2 88.92C418.064 90.408 416.552 91.568 414.664 92.4C412.792 93.216 410.752 93.624 408.544 93.624ZM436.237 93.624C434.029 93.624 432.013 93.056 430.189 91.92C428.381 90.784 426.933 89.264 425.845 87.36C424.773 85.44 424.237 83.32 424.237 81C424.237 79.24 424.549 77.6 425.173 76.08C425.797 74.544 426.653 73.2 427.741 72.048C428.845 70.88 430.125 69.968 431.581 69.312C433.037 68.656 434.589 68.328 436.237 68.328C438.077 68.328 439.765 68.712 441.301 69.48C442.837 70.232 444.149 71.28 445.237 72.624C446.325 73.952 447.125 75.488 447.637 77.232C448.149 78.96 448.301 80.8 448.093 82.752H429.589C429.797 83.856 430.197 84.856 430.789 85.752C431.397 86.632 432.165 87.328 433.093 87.84C434.037 88.352 435.085 88.616 436.237 88.632C437.453 88.632 438.557 88.328 439.549 87.72C440.557 87.112 441.381 86.272 442.021 85.2L447.085 86.376C446.125 88.504 444.677 90.248 442.741 91.608C440.805 92.952 438.637 93.624 436.237 93.624ZM429.421 78.936H443.053C442.893 77.784 442.485 76.744 441.829 75.816C441.189 74.872 440.381 74.128 439.405 73.584C438.445 73.024 437.389 72.744 436.237 72.744C435.101 72.744 434.045 73.016 433.069 73.56C432.109 74.104 431.309 74.848 430.669 75.792C430.045 76.72 429.629 77.768 429.421 78.936ZM464.74 73.992H459.7L459.676 93H454.684L454.708 73.992H450.892V69H454.708L454.684 61.464H459.676L459.7 69H464.74V73.992ZM481.708 73.992H476.668L476.644 93H471.652L471.676 73.992H467.86V69H471.676L471.652 61.464H476.644L476.668 69H481.708V73.992ZM484.974 69H489.966V93H484.974V69ZM487.494 65.04C486.742 65.04 486.11 64.792 485.598 64.296C485.086 63.8 484.83 63.176 484.83 62.424C484.83 61.688 485.086 61.072 485.598 60.576C486.11 60.064 486.742 59.808 487.494 59.808C488.23 59.808 488.854 60.064 489.366 60.576C489.878 61.072 490.134 61.688 490.134 62.424C490.134 63.176 489.878 63.8 489.366 64.296C488.854 64.792 488.23 65.04 487.494 65.04ZM519.621 80.424V93H514.629V80.52C514.629 79.16 514.341 77.928 513.765 76.824C513.205 75.704 512.429 74.816 511.437 74.16C510.461 73.488 509.349 73.152 508.101 73.152C506.853 73.152 505.757 73.488 504.813 74.16C503.885 74.816 503.157 75.704 502.629 76.824C502.117 77.928 501.861 79.16 501.861 80.52V93H496.869V69H501.861V72.24C502.693 71.024 503.701 70.072 504.885 69.384C506.069 68.68 507.405 68.328 508.893 68.328C511.053 68.328 512.925 68.88 514.509 69.984C516.109 71.088 517.357 72.552 518.253 74.376C519.149 76.2 519.605 78.216 519.621 80.424ZM542.378 69H547.37V93.624C547.37 95.272 547.018 96.792 546.314 98.184C545.626 99.576 544.69 100.776 543.506 101.784C542.322 102.808 540.962 103.6 539.426 104.16C537.906 104.72 536.314 105 534.65 105C532.97 105 531.354 104.64 529.802 103.92C528.25 103.216 526.882 102.256 525.698 101.04C524.53 99.824 523.658 98.448 523.082 96.912L527.666 94.848C527.986 95.84 528.498 96.72 529.202 97.488C529.922 98.256 530.754 98.864 531.698 99.312C532.658 99.76 533.642 99.984 534.65 99.984C535.642 99.984 536.594 99.824 537.506 99.504C538.434 99.2 539.258 98.768 539.978 98.208C540.714 97.648 541.298 96.976 541.73 96.192C542.162 95.408 542.378 94.552 542.378 93.624V89.568C541.594 90.784 540.586 91.768 539.354 92.52C538.122 93.256 536.69 93.624 535.058 93.624C533.362 93.624 531.762 93.296 530.258 92.64C528.754 91.984 527.434 91.08 526.298 89.928C525.162 88.76 524.274 87.416 523.634 85.896C522.994 84.376 522.674 82.744 522.674 81C522.674 79.256 522.994 77.624 523.634 76.104C524.274 74.568 525.162 73.224 526.298 72.072C527.434 70.904 528.754 69.992 530.258 69.336C531.762 68.68 533.362 68.352 535.058 68.352C536.69 68.352 538.122 68.728 539.354 69.48C540.586 70.216 541.594 71.2 542.378 72.432V69ZM535.106 88.8C536.498 88.8 537.714 88.448 538.754 87.744C539.794 87.024 540.602 86.072 541.178 84.888C541.754 83.704 542.042 82.408 542.042 81C542.042 79.56 541.746 78.256 541.154 77.088C540.578 75.904 539.77 74.96 538.73 74.256C537.69 73.536 536.482 73.176 535.106 73.176C533.762 73.176 532.53 73.528 531.41 74.232C530.306 74.936 529.426 75.88 528.77 77.064C528.114 78.248 527.786 79.56 527.786 81C527.786 82.44 528.114 83.752 528.77 84.936C529.442 86.12 530.33 87.064 531.434 87.768C532.554 88.456 533.778 88.8 535.106 88.8ZM560.57 93.456C559.306 93.376 558.074 93.12 556.874 92.688C555.674 92.256 554.618 91.672 553.706 90.936C552.81 90.184 552.138 89.304 551.69 88.296L555.938 86.472C556.146 86.904 556.506 87.328 557.018 87.744C557.546 88.16 558.162 88.504 558.866 88.776C559.57 89.032 560.306 89.16 561.074 89.16C561.826 89.16 562.522 89.056 563.162 88.848C563.818 88.624 564.354 88.288 564.77 87.84C565.186 87.392 565.394 86.856 565.394 86.232C565.394 85.528 565.154 84.984 564.674 84.6C564.21 84.2 563.626 83.896 562.922 83.688C562.218 83.48 561.514 83.28 560.81 83.088C559.242 82.736 557.802 82.256 556.49 81.648C555.194 81.024 554.162 80.232 553.394 79.272C552.626 78.296 552.242 77.104 552.242 75.696C552.242 74.16 552.65 72.832 553.466 71.712C554.298 70.576 555.394 69.704 556.754 69.096C558.114 68.488 559.562 68.184 561.098 68.184C563.018 68.184 564.778 68.592 566.378 69.408C567.978 70.224 569.202 71.344 570.05 72.768L566.09 75.12C565.85 74.64 565.49 74.208 565.01 73.824C564.53 73.44 563.986 73.136 563.378 72.912C562.77 72.672 562.138 72.536 561.482 72.504C560.666 72.472 559.906 72.568 559.202 72.792C558.514 73 557.962 73.336 557.546 73.8C557.13 74.264 556.922 74.856 556.922 75.576C556.922 76.28 557.17 76.808 557.666 77.16C558.162 77.496 558.786 77.768 559.538 77.976C560.306 78.184 561.09 78.416 561.89 78.672C563.314 79.12 564.65 79.672 565.898 80.328C567.146 80.968 568.154 81.76 568.922 82.704C569.69 83.648 570.058 84.8 570.026 86.16C570.026 87.664 569.57 88.984 568.658 90.12C567.762 91.256 566.594 92.12 565.154 92.712C563.714 93.304 562.186 93.552 560.57 93.456Z" fill="white"/>
</g>
</g>
<defs>
<linearGradient id="paint0_linear_103_2367" x1="152" y1="152" x2="-28.8664" y2="99.5595" gradientUnits="userSpaceOnUse">
<stop stop-color="#FF4D67"/>
<stop offset="1" stop-color="#FF8395"/>
</linearGradient>
</defs>
</svg>
