<svg width="704" height="152" viewBox="0 0 704 152" fill="none" xmlns="http://www.w3.org/2000/svg">
<g id="Elements/Marker Navigation">
<g id="Auto Layout Vertical">
<path d="M0 24C0 10.7452 10.7452 0 24 0H152V152H24C10.7452 152 0 141.255 0 128V24Z" fill="url(#paint0_linear_103_2407)"/>
<path id="00" d="M56.207 100.897C53.401 100.897 50.848 100.253 48.548 98.965C46.248 97.654 44.2585 95.8485 42.5795 93.5485C40.9235 91.2485 39.647 88.592 38.75 85.579C37.853 82.543 37.4045 79.3 37.4045 75.85C37.4045 72.4 37.853 69.1685 38.75 66.1555C39.647 63.1195 40.9235 60.4515 42.5795 58.1515C44.2585 55.8515 46.248 54.0575 48.548 52.7695C50.848 51.4585 53.401 50.803 56.207 50.803C59.013 50.803 61.566 51.4585 63.866 52.7695C66.166 54.0575 68.1325 55.8515 69.7655 58.1515C71.4215 60.4515 72.698 63.1195 73.595 66.1555C74.515 69.1685 74.975 72.4 74.975 75.85C74.975 79.3 74.515 82.543 73.595 85.579C72.698 88.592 71.4215 91.2485 69.7655 93.5485C68.1325 95.8485 66.166 97.654 63.866 98.965C61.566 100.253 59.013 100.897 56.207 100.897ZM56.207 92.479C58.668 92.479 60.7035 91.697 62.3135 90.133C63.9235 88.569 65.1195 86.522 65.9015 83.992C66.6835 81.462 67.0745 78.748 67.0745 75.85C67.0745 72.791 66.6605 70.008 65.8325 67.501C65.0045 64.971 63.7855 62.9585 62.1755 61.4635C60.5655 59.9685 58.576 59.221 56.207 59.221C54.344 59.221 52.7225 59.681 51.3425 60.601C49.9855 61.498 48.8585 62.7285 47.9615 64.2925C47.0645 65.8565 46.3975 67.639 45.9605 69.64C45.5235 71.618 45.305 73.688 45.305 75.85C45.305 78.725 45.696 81.439 46.478 83.992C47.283 86.522 48.4905 88.569 50.1005 90.133C51.7335 91.697 53.769 92.479 56.207 92.479ZM96.0194 100.897C92.9144 100.897 90.1084 100.15 87.6014 98.6545C85.0944 97.1365 83.1049 95.124 81.6329 92.617C80.1839 90.11 79.4594 87.3615 79.4594 84.3715H87.8774C87.8774 85.8665 88.2454 87.235 88.9814 88.477C89.7174 89.696 90.6949 90.6735 91.9139 91.4095C93.1559 92.1225 94.5244 92.479 96.0194 92.479C97.5144 92.479 98.8714 92.1225 100.09 91.4095C101.309 90.6735 102.287 89.696 103.023 88.477C103.759 87.235 104.127 85.8665 104.127 84.3715C104.127 82.8765 103.805 81.508 103.161 80.266C102.54 79.001 101.516 78.0005 100.09 77.2645C98.6874 76.5055 96.8244 76.126 94.5014 76.126H82.0814L87.1874 51.7H110.923V60.118H94.0184L92.4659 67.708L95.8814 67.7425C99.1474 67.8575 102.034 68.651 104.541 70.123C107.048 71.595 109.003 73.573 110.406 76.057C111.832 78.518 112.545 81.2895 112.545 84.3715C112.545 86.6255 112.119 88.753 111.268 90.754C110.417 92.755 109.233 94.5145 107.715 96.0325C106.197 97.5505 104.437 98.7465 102.436 99.6205C100.458 100.472 98.3194 100.897 96.0194 100.897Z" fill="white"/>
</g>
<g id="Auto Layout Vertical_2">
<path d="M152 0H680C693.255 0 704 10.7452 704 24V128C704 141.255 693.255 152 680 152H152V0Z" fill="#35383F"/>
<path id="Section" d="M223.064 59.4H228.056V93H223.064V77.496H207.872V93H202.88V59.4H207.872V72.504H223.064V59.4ZM243.628 93.624C241.42 93.624 239.404 93.056 237.58 91.92C235.772 90.784 234.324 89.264 233.236 87.36C232.164 85.44 231.628 83.32 231.628 81C231.628 79.24 231.94 77.6 232.564 76.08C233.188 74.544 234.044 73.2 235.132 72.048C236.236 70.88 237.516 69.968 238.972 69.312C240.428 68.656 241.98 68.328 243.628 68.328C245.836 68.328 247.844 68.896 249.652 70.032C251.476 71.168 252.924 72.696 253.996 74.616C255.084 76.536 255.628 78.664 255.628 81C255.628 82.744 255.316 84.376 254.692 85.896C254.068 87.416 253.204 88.76 252.1 89.928C251.012 91.08 249.74 91.984 248.284 92.64C246.844 93.296 245.292 93.624 243.628 93.624ZM243.628 88.632C244.956 88.632 246.148 88.28 247.204 87.576C248.26 86.872 249.092 85.944 249.7 84.792C250.324 83.624 250.636 82.36 250.636 81C250.636 79.608 250.316 78.328 249.676 77.16C249.052 75.992 248.212 75.064 247.156 74.376C246.1 73.672 244.924 73.32 243.628 73.32C242.316 73.32 241.124 73.672 240.052 74.376C238.996 75.08 238.156 76.016 237.532 77.184C236.924 78.352 236.62 79.624 236.62 81C236.62 82.424 236.94 83.712 237.58 84.864C238.22 86.016 239.068 86.936 240.124 87.624C241.196 88.296 242.364 88.632 243.628 88.632ZM258.713 93V69H263.705V71.904C264.473 70.96 265.281 70.192 266.129 69.6C266.993 68.992 268.017 68.688 269.201 68.688C270.961 68.688 272.521 69.088 273.881 69.888C275.257 70.672 276.409 71.768 277.337 73.176C278.265 71.752 279.417 70.648 280.793 69.864C282.185 69.08 283.737 68.688 285.449 68.688C287.513 68.688 289.329 69.208 290.897 70.248C292.465 71.288 293.697 72.672 294.593 74.4C295.489 76.112 295.937 78 295.937 80.064V93H290.945V80.064C290.945 78.88 290.713 77.808 290.249 76.848C289.801 75.888 289.169 75.12 288.353 74.544C287.537 73.968 286.569 73.68 285.449 73.68C284.361 73.68 283.385 73.968 282.521 74.544C281.673 75.12 281.009 75.888 280.529 76.848C280.065 77.808 279.833 78.88 279.833 80.064V93H274.841V80.064C274.841 78.88 274.601 77.808 274.121 76.848C273.641 75.888 272.977 75.12 272.129 74.544C271.281 73.968 270.305 73.68 269.201 73.68C268.145 73.68 267.201 73.984 266.369 74.592C265.553 75.2 264.905 76 264.425 76.992C263.945 77.984 263.705 79.072 263.705 80.256V93H258.713ZM310.659 93.624C308.451 93.624 306.435 93.056 304.611 91.92C302.803 90.784 301.355 89.264 300.267 87.36C299.195 85.44 298.659 83.32 298.659 81C298.659 79.24 298.971 77.6 299.595 76.08C300.219 74.544 301.075 73.2 302.163 72.048C303.267 70.88 304.547 69.968 306.003 69.312C307.459 68.656 309.011 68.328 310.659 68.328C312.499 68.328 314.187 68.712 315.723 69.48C317.259 70.232 318.571 71.28 319.659 72.624C320.747 73.952 321.547 75.488 322.059 77.232C322.571 78.96 322.723 80.8 322.515 82.752H304.011C304.219 83.856 304.619 84.856 305.211 85.752C305.819 86.632 306.587 87.328 307.515 87.84C308.459 88.352 309.507 88.616 310.659 88.632C311.875 88.632 312.979 88.328 313.971 87.72C314.979 87.112 315.803 86.272 316.443 85.2L321.507 86.376C320.547 88.504 319.099 90.248 317.163 91.608C315.227 92.952 313.059 93.624 310.659 93.624ZM303.843 78.936H317.475C317.315 77.784 316.907 76.744 316.251 75.816C315.611 74.872 314.803 74.128 313.827 73.584C312.867 73.024 311.811 72.744 310.659 72.744C309.523 72.744 308.467 73.016 307.491 73.56C306.531 74.104 305.731 74.848 305.091 75.792C304.467 76.72 304.051 77.768 303.843 78.936ZM347.657 93.624C345.705 93.624 343.961 93.152 342.425 92.208C340.905 91.264 339.705 90.024 338.825 88.488C337.961 86.936 337.529 85.264 337.529 83.472C337.529 82.448 337.625 81.552 337.817 80.784C338.025 80.016 338.369 79.264 338.849 78.528C339.345 77.792 340.017 76.968 340.865 76.056C341.729 75.144 342.817 74.032 344.129 72.72C343.393 71.968 342.777 71.312 342.281 70.752C341.785 70.192 341.393 69.672 341.105 69.192C340.817 68.696 340.609 68.184 340.481 67.656C340.369 67.128 340.313 66.528 340.313 65.856C340.313 64.448 340.649 63.192 341.321 62.088C341.993 60.968 342.889 60.088 344.009 59.448C345.129 58.792 346.345 58.464 347.657 58.464C349.001 58.464 350.233 58.8 351.353 59.472C352.473 60.128 353.361 61.016 354.017 62.136C354.689 63.24 355.025 64.48 355.025 65.856C355.025 66.544 354.961 67.16 354.833 67.704C354.705 68.232 354.489 68.744 354.185 69.24C353.897 69.736 353.505 70.264 353.009 70.824C352.513 71.368 351.905 72 351.185 72.72L358.433 79.968L364.217 74.184V81.24L361.937 83.52L367.913 89.472L364.385 93L358.433 87.072C357.105 88.4 355.977 89.488 355.049 90.336C354.137 91.184 353.313 91.848 352.577 92.328C351.841 92.808 351.089 93.144 350.321 93.336C349.569 93.528 348.681 93.624 347.657 93.624ZM347.657 88.632C348.297 88.632 348.841 88.56 349.289 88.416C349.753 88.256 350.225 87.992 350.705 87.624C351.185 87.24 351.745 86.72 352.385 86.064C353.041 85.392 353.881 84.536 354.905 83.496L347.657 76.248C346.601 77.304 345.737 78.168 345.065 78.84C344.393 79.496 343.873 80.056 343.505 80.52C343.153 80.984 342.905 81.448 342.761 81.912C342.617 82.36 342.545 82.896 342.545 83.52C342.545 84.496 342.777 85.368 343.241 86.136C343.721 86.904 344.345 87.512 345.113 87.96C345.897 88.408 346.745 88.632 347.657 88.632ZM347.657 69.888C348.473 69.072 349.089 68.464 349.505 68.064C349.937 67.648 350.225 67.288 350.369 66.984C350.529 66.664 350.609 66.256 350.609 65.76C350.609 64.88 350.297 64.176 349.673 63.648C349.065 63.104 348.393 62.832 347.657 62.832C346.857 62.832 346.169 63.12 345.593 63.696C345.017 64.272 344.729 64.96 344.729 65.76C344.729 66.256 344.809 66.672 344.969 67.008C345.145 67.328 345.441 67.696 345.857 68.112C346.289 68.528 346.889 69.12 347.657 69.888ZM395.495 59.4H401.327L413.543 93H408.263L405.935 86.616H390.887L388.583 93H383.279L395.495 59.4ZM392.735 81.624H404.087L398.399 66.024L392.735 81.624ZM431.646 86.184L436.11 88.608C435.022 90.128 433.638 91.344 431.958 92.256C430.294 93.168 428.486 93.624 426.534 93.624C424.326 93.624 422.31 93.056 420.486 91.92C418.678 90.784 417.23 89.264 416.142 87.36C415.07 85.44 414.534 83.32 414.534 81C414.534 79.24 414.846 77.6 415.47 76.08C416.094 74.544 416.95 73.2 418.038 72.048C419.142 70.88 420.422 69.968 421.878 69.312C423.334 68.656 424.886 68.328 426.534 68.328C428.486 68.328 430.294 68.784 431.958 69.696C433.638 70.608 435.022 71.832 436.11 73.368L431.646 75.792C430.974 74.992 430.19 74.384 429.294 73.968C428.398 73.536 427.478 73.32 426.534 73.32C425.222 73.32 424.03 73.68 422.958 74.4C421.902 75.104 421.062 76.04 420.438 77.208C419.83 78.36 419.526 79.624 419.526 81C419.526 82.36 419.838 83.624 420.462 84.792C421.086 85.944 421.926 86.872 422.982 87.576C424.054 88.28 425.238 88.632 426.534 88.632C427.526 88.632 428.47 88.408 429.366 87.96C430.262 87.512 431.022 86.92 431.646 86.184ZM453.115 73.992H448.075L448.051 93H443.059L443.083 73.992H439.267V69H443.083L443.059 61.464H448.051L448.075 69H453.115V73.992ZM456.38 69H461.372V93H456.38V69ZM458.9 65.04C458.148 65.04 457.516 64.792 457.004 64.296C456.492 63.8 456.236 63.176 456.236 62.424C456.236 61.688 456.492 61.072 457.004 60.576C457.516 60.064 458.148 59.808 458.9 59.808C459.636 59.808 460.26 60.064 460.772 60.576C461.284 61.072 461.54 61.688 461.54 62.424C461.54 63.176 461.284 63.8 460.772 64.296C460.26 64.792 459.636 65.04 458.9 65.04ZM479.503 93.624C477.295 93.624 475.279 93.056 473.455 91.92C471.647 90.784 470.199 89.264 469.111 87.36C468.039 85.44 467.503 83.32 467.503 81C467.503 79.24 467.815 77.6 468.439 76.08C469.063 74.544 469.919 73.2 471.007 72.048C472.111 70.88 473.391 69.968 474.847 69.312C476.303 68.656 477.855 68.328 479.503 68.328C481.711 68.328 483.719 68.896 485.527 70.032C487.351 71.168 488.799 72.696 489.871 74.616C490.959 76.536 491.503 78.664 491.503 81C491.503 82.744 491.191 84.376 490.567 85.896C489.943 87.416 489.079 88.76 487.975 89.928C486.887 91.08 485.615 91.984 484.159 92.64C482.719 93.296 481.167 93.624 479.503 93.624ZM479.503 88.632C480.831 88.632 482.023 88.28 483.079 87.576C484.135 86.872 484.967 85.944 485.575 84.792C486.199 83.624 486.511 82.36 486.511 81C486.511 79.608 486.191 78.328 485.551 77.16C484.927 75.992 484.087 75.064 483.031 74.376C481.975 73.672 480.799 73.32 479.503 73.32C478.191 73.32 476.999 73.672 475.927 74.376C474.871 75.08 474.031 76.016 473.407 77.184C472.799 78.352 472.495 79.624 472.495 81C472.495 82.424 472.815 83.712 473.455 84.864C474.095 86.016 474.943 86.936 475.999 87.624C477.071 88.296 478.239 88.632 479.503 88.632ZM517.652 80.424V93H512.66V80.52C512.66 79.16 512.372 77.928 511.796 76.824C511.236 75.704 510.46 74.816 509.468 74.16C508.492 73.488 507.38 73.152 506.132 73.152C504.884 73.152 503.788 73.488 502.844 74.16C501.916 74.816 501.188 75.704 500.66 76.824C500.148 77.928 499.892 79.16 499.892 80.52V93H494.9V69H499.892V72.24C500.724 71.024 501.732 70.072 502.916 69.384C504.1 68.68 505.436 68.328 506.924 68.328C509.084 68.328 510.956 68.88 512.54 69.984C514.14 71.088 515.388 72.552 516.284 74.376C517.18 76.2 517.636 78.216 517.652 80.424ZM534.474 93L540.978 59.4H545.01L553.626 82.032L562.194 59.4H566.226L572.754 93H567.666L563.322 70.512L555.282 91.728H551.922L543.906 70.512L539.562 93H534.474ZM586.753 93.624C584.545 93.624 582.529 93.056 580.705 91.92C578.897 90.784 577.449 89.264 576.361 87.36C575.289 85.44 574.753 83.32 574.753 81C574.753 79.24 575.065 77.6 575.689 76.08C576.313 74.544 577.169 73.2 578.257 72.048C579.361 70.88 580.641 69.968 582.097 69.312C583.553 68.656 585.105 68.328 586.753 68.328C588.593 68.328 590.281 68.712 591.817 69.48C593.353 70.232 594.665 71.28 595.753 72.624C596.841 73.952 597.641 75.488 598.153 77.232C598.665 78.96 598.817 80.8 598.609 82.752H580.105C580.313 83.856 580.713 84.856 581.305 85.752C581.913 86.632 582.681 87.328 583.609 87.84C584.553 88.352 585.601 88.616 586.753 88.632C587.969 88.632 589.073 88.328 590.065 87.72C591.073 87.112 591.897 86.272 592.537 85.2L597.601 86.376C596.641 88.504 595.193 90.248 593.257 91.608C591.321 92.952 589.153 93.624 586.753 93.624ZM579.937 78.936H593.569C593.409 77.784 593.001 76.744 592.345 75.816C591.705 74.872 590.897 74.128 589.921 73.584C588.961 73.024 587.905 72.744 586.753 72.744C585.617 72.744 584.561 73.016 583.585 73.56C582.625 74.104 581.825 74.848 581.185 75.792C580.561 76.72 580.145 77.768 579.937 78.936ZM624.902 80.424V93H619.91V80.52C619.91 79.16 619.622 77.928 619.046 76.824C618.486 75.704 617.71 74.816 616.718 74.16C615.742 73.488 614.63 73.152 613.382 73.152C612.134 73.152 611.038 73.488 610.094 74.16C609.166 74.816 608.438 75.704 607.91 76.824C607.398 77.928 607.142 79.16 607.142 80.52V93H602.15V69H607.142V72.24C607.974 71.024 608.982 70.072 610.166 69.384C611.35 68.68 612.686 68.328 614.174 68.328C616.334 68.328 618.206 68.88 619.79 69.984C621.39 71.088 622.638 72.552 623.534 74.376C624.43 76.2 624.886 78.216 624.902 80.424ZM630.193 81.528V69H635.185V81.432C635.185 82.792 635.465 84.032 636.025 85.152C636.601 86.256 637.377 87.144 638.353 87.816C639.345 88.472 640.473 88.8 641.737 88.8C642.969 88.8 644.049 88.472 644.977 87.816C645.921 87.144 646.649 86.256 647.161 85.152C647.689 84.032 647.953 82.792 647.953 81.432V69H652.945V93H647.953V89.736C647.121 90.936 646.113 91.888 644.929 92.592C643.745 93.296 642.409 93.648 640.921 93.648C638.777 93.648 636.897 93.104 635.281 92.016C633.681 90.912 632.441 89.44 631.561 87.6C630.681 85.76 630.225 83.736 630.193 81.528Z" fill="white"/>
</g>
</g>
<defs>
<linearGradient id="paint0_linear_103_2407" x1="152" y1="152" x2="-28.8664" y2="99.5595" gradientUnits="userSpaceOnUse">
<stop stop-color="#FF4D67"/>
<stop offset="1" stop-color="#FF8395"/>
</linearGradient>
</defs>
</svg>
