<svg width="512" height="152" viewBox="0 0 512 152" fill="none" xmlns="http://www.w3.org/2000/svg">
<g id="Elements/Marker Navigation">
<g id="Auto Layout Vertical">
<path d="M0 24C0 10.7452 10.7452 0 24 0H152V152H24C10.7452 152 0 141.255 0 128V24Z" fill="url(#paint0_linear_103_2447)"/>
<path id="00" d="M64.6298 100.897C61.8238 100.897 59.2708 100.253 56.9708 98.965C54.6708 97.654 52.6813 95.8485 51.0023 93.5485C49.3463 91.2485 48.0698 88.592 47.1728 85.579C46.2758 82.543 45.8273 79.3 45.8273 75.85C45.8273 72.4 46.2758 69.1685 47.1728 66.1555C48.0698 63.1195 49.3463 60.4515 51.0023 58.1515C52.6813 55.8515 54.6708 54.0575 56.9708 52.7695C59.2708 51.4585 61.8238 50.803 64.6298 50.803C67.4358 50.803 69.9888 51.4585 72.2888 52.7695C74.5888 54.0575 76.5553 55.8515 78.1883 58.1515C79.8443 60.4515 81.1208 63.1195 82.0178 66.1555C82.9378 69.1685 83.3978 72.4 83.3978 75.85C83.3978 79.3 82.9378 82.543 82.0178 85.579C81.1208 88.592 79.8443 91.2485 78.1883 93.5485C76.5553 95.8485 74.5888 97.654 72.2888 98.965C69.9888 100.253 67.4358 100.897 64.6298 100.897ZM64.6298 92.479C67.0908 92.479 69.1263 91.697 70.7363 90.133C72.3463 88.569 73.5423 86.522 74.3243 83.992C75.1063 81.462 75.4973 78.748 75.4973 75.85C75.4973 72.791 75.0833 70.008 74.2553 67.501C73.4273 64.971 72.2083 62.9585 70.5983 61.4635C68.9883 59.9685 66.9988 59.221 64.6298 59.221C62.7668 59.221 61.1453 59.681 59.7653 60.601C58.4083 61.498 57.2813 62.7285 56.3843 64.2925C55.4873 65.8565 54.8203 67.639 54.3833 69.64C53.9463 71.618 53.7278 73.688 53.7278 75.85C53.7278 78.725 54.1188 81.439 54.9008 83.992C55.7058 86.522 56.9133 88.569 58.5233 90.133C60.1563 91.697 62.1918 92.479 64.6298 92.479ZM94.2993 100V60.118H88.2273L90.5043 51.7H102.717V100H94.2993Z" fill="white"/>
</g>
<g id="Auto Layout Vertical_2">
<path d="M152 0H488C501.255 0 512 10.7452 512 24V128C512 141.255 501.255 152 488 152H152V0Z" fill="#35383F"/>
<path id="Section" d="M218.48 93.624C216.208 93.624 214.072 93.176 212.072 92.28C210.072 91.368 208.312 90.112 206.792 88.512C205.272 86.912 204.08 85.064 203.216 82.968C202.352 80.856 201.92 78.6 201.92 76.2C201.92 73.8 202.352 71.552 203.216 69.456C204.08 67.344 205.272 65.488 206.792 63.888C208.312 62.288 210.072 61.04 212.072 60.144C214.072 59.232 216.208 58.776 218.48 58.776C220.768 58.776 222.912 59.232 224.912 60.144C226.912 61.04 228.672 62.288 230.192 63.888C231.712 65.488 232.896 67.344 233.744 69.456C234.608 71.552 235.04 73.8 235.04 76.2C235.04 78.6 234.608 80.856 233.744 82.968C232.896 85.064 231.712 86.912 230.192 88.512C228.672 90.112 226.912 91.368 224.912 92.28C222.912 93.176 220.768 93.624 218.48 93.624ZM218.48 88.632C220.08 88.632 221.576 88.304 222.968 87.648C224.36 86.992 225.584 86.096 226.64 84.96C227.712 83.808 228.544 82.488 229.136 81C229.744 79.496 230.048 77.896 230.048 76.2C230.048 74.504 229.744 72.904 229.136 71.4C228.544 69.896 227.712 68.576 226.64 67.44C225.584 66.288 224.36 65.392 222.968 64.752C221.576 64.096 220.08 63.768 218.48 63.768C216.88 63.768 215.384 64.096 213.992 64.752C212.6 65.408 211.368 66.312 210.296 67.464C209.24 68.6 208.408 69.92 207.8 71.424C207.208 72.912 206.912 74.504 206.912 76.2C206.912 77.912 207.208 79.52 207.8 81.024C208.408 82.512 209.24 83.832 210.296 84.984C211.368 86.12 212.6 87.016 213.992 87.672C215.384 88.312 216.88 88.632 218.48 88.632ZM261.902 80.424V93H256.91V80.52C256.91 79.16 256.622 77.928 256.046 76.824C255.486 75.704 254.71 74.816 253.718 74.16C252.742 73.488 251.63 73.152 250.382 73.152C249.134 73.152 248.038 73.488 247.094 74.16C246.166 74.816 245.438 75.704 244.91 76.824C244.398 77.928 244.142 79.16 244.142 80.52V93H239.15V69H244.142V72.24C244.974 71.024 245.982 70.072 247.166 69.384C248.35 68.68 249.686 68.328 251.174 68.328C253.334 68.328 255.206 68.88 256.79 69.984C258.39 71.088 259.638 72.552 260.534 74.376C261.43 76.2 261.886 78.216 261.902 80.424ZM279.673 68.328C282.009 68.328 284.129 68.896 286.033 70.032C287.953 71.168 289.481 72.696 290.617 74.616C291.753 76.52 292.321 78.64 292.321 80.976C292.321 82.72 291.993 84.36 291.337 85.896C290.681 87.416 289.769 88.76 288.601 89.928C287.449 91.08 286.105 91.984 284.569 92.64C283.049 93.296 281.417 93.624 279.673 93.624C277.993 93.624 276.521 93.24 275.257 92.472C274.009 91.688 272.985 90.688 272.185 89.472V93H267.193V57H272.185V72.48C272.985 71.248 274.009 70.248 275.257 69.48C276.521 68.712 277.993 68.328 279.673 68.328ZM279.625 88.776C281.017 88.776 282.289 88.424 283.441 87.72C284.593 87.016 285.505 86.072 286.177 84.888C286.865 83.704 287.209 82.4 287.209 80.976C287.209 79.52 286.865 78.2 286.177 77.016C285.489 75.832 284.569 74.896 283.417 74.208C282.265 73.504 281.001 73.152 279.625 73.152C278.233 73.152 277.009 73.504 275.953 74.208C274.897 74.912 274.073 75.856 273.481 77.04C272.889 78.224 272.593 79.536 272.593 80.976C272.593 82.416 272.889 83.728 273.481 84.912C274.073 86.096 274.897 87.04 275.953 87.744C277.009 88.432 278.233 88.776 279.625 88.776ZM306.721 93.624C304.513 93.624 302.497 93.056 300.673 91.92C298.865 90.784 297.417 89.264 296.329 87.36C295.257 85.44 294.721 83.32 294.721 81C294.721 79.24 295.033 77.6 295.657 76.08C296.281 74.544 297.137 73.2 298.225 72.048C299.329 70.88 300.609 69.968 302.065 69.312C303.521 68.656 305.073 68.328 306.721 68.328C308.929 68.328 310.937 68.896 312.745 70.032C314.569 71.168 316.017 72.696 317.089 74.616C318.177 76.536 318.721 78.664 318.721 81C318.721 82.744 318.409 84.376 317.785 85.896C317.161 87.416 316.297 88.76 315.193 89.928C314.105 91.08 312.833 91.984 311.377 92.64C309.937 93.296 308.385 93.624 306.721 93.624ZM306.721 88.632C308.049 88.632 309.241 88.28 310.297 87.576C311.353 86.872 312.185 85.944 312.793 84.792C313.417 83.624 313.729 82.36 313.729 81C313.729 79.608 313.409 78.328 312.769 77.16C312.145 75.992 311.305 75.064 310.249 74.376C309.193 73.672 308.017 73.32 306.721 73.32C305.409 73.32 304.217 73.672 303.145 74.376C302.089 75.08 301.249 76.016 300.625 77.184C300.017 78.352 299.713 79.624 299.713 81C299.713 82.424 300.033 83.712 300.673 84.864C301.313 86.016 302.161 86.936 303.217 87.624C304.289 88.296 305.457 88.632 306.721 88.632ZM341.488 69H346.48V93H341.464L341.272 89.52C340.568 90.752 339.616 91.744 338.416 92.496C337.232 93.248 335.824 93.624 334.192 93.624C332.416 93.624 330.752 93.296 329.2 92.64C327.664 91.968 326.304 91.04 325.12 89.856C323.952 88.672 323.032 87.312 322.36 85.776C321.704 84.224 321.376 82.56 321.376 80.784C321.376 79.072 321.696 77.464 322.336 75.96C322.976 74.44 323.864 73.112 325 71.976C326.136 70.84 327.448 69.952 328.936 69.312C330.44 68.656 332.048 68.328 333.76 68.328C335.504 68.328 337.04 68.728 338.368 69.528C339.712 70.312 340.816 71.32 341.68 72.552L341.488 69ZM334.312 88.8C335.752 88.8 336.992 88.44 338.032 87.72C339.088 87 339.88 86.032 340.408 84.816C340.952 83.6 341.184 82.256 341.104 80.784C341.008 79.376 340.632 78.096 339.976 76.944C339.336 75.792 338.48 74.88 337.408 74.208C336.336 73.52 335.12 73.176 333.76 73.176C332.336 73.176 331.048 73.536 329.896 74.256C328.76 74.976 327.88 75.944 327.256 77.16C326.632 78.376 326.36 79.728 326.44 81.216C326.536 82.608 326.952 83.88 327.688 85.032C328.44 86.184 329.392 87.104 330.544 87.792C331.712 88.464 332.968 88.8 334.312 88.8ZM366.408 74.016C365.992 73.76 365.536 73.56 365.04 73.416C364.56 73.256 364.032 73.176 363.456 73.176C362.208 73.176 361.12 73.504 360.192 74.16C359.264 74.816 358.536 75.704 358.008 76.824C357.496 77.944 357.24 79.184 357.24 80.544V93H352.224V69H357.216V72.24C358.048 71.04 359.056 70.096 360.24 69.408C361.44 68.704 362.776 68.352 364.248 68.352C364.792 68.352 365.304 68.376 365.784 68.424C366.28 68.472 366.752 68.568 367.2 68.712L366.408 74.016ZM387.889 57H392.88V93H387.889V89.472C387.105 90.72 386.081 91.728 384.817 92.496C383.553 93.248 382.073 93.624 380.377 93.624C378.633 93.624 377.001 93.296 375.481 92.64C373.961 91.984 372.617 91.08 371.449 89.928C370.297 88.76 369.393 87.416 368.737 85.896C368.081 84.376 367.753 82.744 367.753 81C367.753 79.256 368.081 77.624 368.737 76.104C369.393 74.568 370.297 73.224 371.449 72.072C372.617 70.904 373.961 69.992 375.481 69.336C377.001 68.68 378.633 68.352 380.377 68.352C382.073 68.352 383.553 68.736 384.817 69.504C386.081 70.256 387.105 71.248 387.889 72.48V57ZM380.424 88.8C381.833 88.8 383.065 88.456 384.121 87.768C385.177 87.064 385.993 86.12 386.569 84.936C387.161 83.752 387.457 82.44 387.457 81C387.457 79.544 387.161 78.224 386.569 77.04C385.977 75.856 385.153 74.92 384.097 74.232C383.057 73.528 381.833 73.176 380.424 73.176C379.033 73.176 377.761 73.528 376.609 74.232C375.473 74.936 374.561 75.88 373.873 77.064C373.201 78.248 372.865 79.56 372.865 81C372.865 82.456 373.209 83.776 373.897 84.96C374.601 86.128 375.521 87.064 376.657 87.768C377.809 88.456 379.065 88.8 380.424 88.8ZM398.63 69H403.622V93H398.63V69ZM401.15 65.04C400.398 65.04 399.766 64.792 399.254 64.296C398.742 63.8 398.486 63.176 398.486 62.424C398.486 61.688 398.742 61.072 399.254 60.576C399.766 60.064 400.398 59.808 401.15 59.808C401.886 59.808 402.51 60.064 403.022 60.576C403.534 61.072 403.79 61.688 403.79 62.424C403.79 63.176 403.534 63.8 403.022 64.296C402.51 64.792 401.886 65.04 401.15 65.04ZM433.277 80.424V93H428.285V80.52C428.285 79.16 427.997 77.928 427.421 76.824C426.861 75.704 426.085 74.816 425.093 74.16C424.117 73.488 423.005 73.152 421.757 73.152C420.509 73.152 419.413 73.488 418.469 74.16C417.541 74.816 416.813 75.704 416.285 76.824C415.773 77.928 415.517 79.16 415.517 80.52V93H410.525V69H415.517V72.24C416.349 71.024 417.357 70.072 418.541 69.384C419.725 68.68 421.061 68.328 422.549 68.328C424.709 68.328 426.581 68.88 428.165 69.984C429.765 71.088 431.013 72.552 431.909 74.376C432.805 76.2 433.261 78.216 433.277 80.424ZM456.035 69H461.027V93.624C461.027 95.272 460.675 96.792 459.971 98.184C459.283 99.576 458.347 100.776 457.163 101.784C455.979 102.808 454.619 103.6 453.083 104.16C451.563 104.72 449.971 105 448.307 105C446.627 105 445.011 104.64 443.459 103.92C441.907 103.216 440.539 102.256 439.355 101.04C438.187 99.824 437.315 98.448 436.739 96.912L441.323 94.848C441.643 95.84 442.155 96.72 442.859 97.488C443.579 98.256 444.411 98.864 445.355 99.312C446.315 99.76 447.299 99.984 448.307 99.984C449.299 99.984 450.251 99.824 451.163 99.504C452.091 99.2 452.915 98.768 453.635 98.208C454.371 97.648 454.955 96.976 455.387 96.192C455.819 95.408 456.035 94.552 456.035 93.624V89.568C455.251 90.784 454.243 91.768 453.011 92.52C451.779 93.256 450.347 93.624 448.715 93.624C447.019 93.624 445.419 93.296 443.915 92.64C442.411 91.984 441.091 91.08 439.955 89.928C438.819 88.76 437.931 87.416 437.291 85.896C436.651 84.376 436.331 82.744 436.331 81C436.331 79.256 436.651 77.624 437.291 76.104C437.931 74.568 438.819 73.224 439.955 72.072C441.091 70.904 442.411 69.992 443.915 69.336C445.419 68.68 447.019 68.352 448.715 68.352C450.347 68.352 451.779 68.728 453.011 69.48C454.243 70.216 455.251 71.2 456.035 72.432V69ZM448.763 88.8C450.155 88.8 451.371 88.448 452.411 87.744C453.451 87.024 454.259 86.072 454.835 84.888C455.411 83.704 455.699 82.408 455.699 81C455.699 79.56 455.403 78.256 454.811 77.088C454.235 75.904 453.427 74.96 452.387 74.256C451.347 73.536 450.139 73.176 448.763 73.176C447.419 73.176 446.187 73.528 445.067 74.232C443.963 74.936 443.083 75.88 442.427 77.064C441.771 78.248 441.443 79.56 441.443 81C441.443 82.44 441.771 83.752 442.427 84.936C443.099 86.12 443.987 87.064 445.091 87.768C446.211 88.456 447.435 88.8 448.763 88.8Z" fill="white"/>
</g>
</g>
<defs>
<linearGradient id="paint0_linear_103_2447" x1="152" y1="152" x2="-28.8664" y2="99.5595" gradientUnits="userSpaceOnUse">
<stop stop-color="#FF4D67"/>
<stop offset="1" stop-color="#FF8395"/>
</linearGradient>
</defs>
</svg>
