<svg width="781" height="152" viewBox="0 0 781 152" fill="none" xmlns="http://www.w3.org/2000/svg">
<g id="Elements/Marker Navigation">
<g id="Auto Layout Vertical">
<path d="M0 24C0 10.7452 10.7452 0 24 0H152V152H24C10.7452 152 0 141.255 0 128V24Z" fill="url(#paint0_linear_103_2437)"/>
<path id="00" d="M56.308 100.897C53.502 100.897 50.949 100.253 48.649 98.965C46.349 97.654 44.3595 95.8485 42.6805 93.5485C41.0245 91.2485 39.748 88.592 38.851 85.579C37.954 82.543 37.5055 79.3 37.5055 75.85C37.5055 72.4 37.954 69.1685 38.851 66.1555C39.748 63.1195 41.0245 60.4515 42.6805 58.1515C44.3595 55.8515 46.349 54.0575 48.649 52.7695C50.949 51.4585 53.502 50.803 56.308 50.803C59.114 50.803 61.667 51.4585 63.967 52.7695C66.267 54.0575 68.2335 55.8515 69.8665 58.1515C71.5225 60.4515 72.799 63.1195 73.696 66.1555C74.616 69.1685 75.076 72.4 75.076 75.85C75.076 79.3 74.616 82.543 73.696 85.579C72.799 88.592 71.5225 91.2485 69.8665 93.5485C68.2335 95.8485 66.267 97.654 63.967 98.965C61.667 100.253 59.114 100.897 56.308 100.897ZM56.308 92.479C58.769 92.479 60.8045 91.697 62.4145 90.133C64.0245 88.569 65.2205 86.522 66.0025 83.992C66.7845 81.462 67.1755 78.748 67.1755 75.85C67.1755 72.791 66.7615 70.008 65.9335 67.501C65.1055 64.971 63.8865 62.9585 62.2765 61.4635C60.6665 59.9685 58.677 59.221 56.308 59.221C54.445 59.221 52.8235 59.681 51.4435 60.601C50.0865 61.498 48.9595 62.7285 48.0625 64.2925C47.1655 65.8565 46.4985 67.639 46.0615 69.64C45.6245 71.618 45.406 73.688 45.406 75.85C45.406 78.725 45.797 81.439 46.579 83.992C47.384 86.522 48.5915 88.569 50.2015 90.133C51.8345 91.697 53.87 92.479 56.308 92.479ZM79.9055 100V92.479C81.4005 91.352 83.1715 89.9605 85.2185 88.3045C87.2655 86.6255 89.37 84.82 91.532 82.888C93.694 80.933 95.695 78.978 97.535 77.023C99.375 75.068 100.87 73.205 102.02 71.434C103.193 69.663 103.78 68.145 103.78 66.88C103.78 65.477 103.435 64.2005 102.745 63.0505C102.055 61.8775 101.135 60.946 99.9845 60.256C98.8575 59.566 97.5925 59.221 96.1895 59.221C94.7865 59.221 93.51 59.566 92.36 60.256C91.21 60.946 90.29 61.8775 89.6 63.0505C88.91 64.2005 88.565 65.477 88.565 66.88H80.147C80.147 63.844 80.883 61.1185 82.355 58.7035C83.827 56.2655 85.7705 54.345 88.1855 52.942C90.6235 51.516 93.2915 50.803 96.1895 50.803C99.1335 50.803 101.813 51.5275 104.228 52.9765C106.643 54.4025 108.575 56.3345 110.024 58.7725C111.473 61.2105 112.198 63.913 112.198 66.88C112.198 68.444 111.91 70.0195 111.335 71.6065C110.76 73.1935 109.955 74.792 108.92 76.402C107.885 78.012 106.666 79.645 105.263 81.301C103.86 82.934 102.308 84.613 100.606 86.338C98.9265 88.04 97.1555 89.788 95.2925 91.582H112.439V100H79.9055Z" fill="white"/>
</g>
<g id="Auto Layout Vertical_2">
<path d="M152 0H757C770.255 0 781 10.7452 781 24V128C781 141.255 770.255 152 757 152H152V0Z" fill="#35383F"/>
<path id="Section" d="M202.88 93V59.4H207.872V88.008H222.344V93H202.88ZM236.034 93.624C233.826 93.624 231.81 93.056 229.986 91.92C228.178 90.784 226.73 89.264 225.642 87.36C224.57 85.44 224.034 83.32 224.034 81C224.034 79.24 224.346 77.6 224.97 76.08C225.594 74.544 226.45 73.2 227.538 72.048C228.642 70.88 229.922 69.968 231.378 69.312C232.834 68.656 234.386 68.328 236.034 68.328C237.874 68.328 239.562 68.712 241.098 69.48C242.634 70.232 243.946 71.28 245.034 72.624C246.122 73.952 246.922 75.488 247.434 77.232C247.946 78.96 248.098 80.8 247.89 82.752H229.386C229.594 83.856 229.994 84.856 230.586 85.752C231.194 86.632 231.962 87.328 232.89 87.84C233.834 88.352 234.882 88.616 236.034 88.632C237.25 88.632 238.354 88.328 239.346 87.72C240.354 87.112 241.178 86.272 241.818 85.2L246.882 86.376C245.922 88.504 244.474 90.248 242.538 91.608C240.602 92.952 238.434 93.624 236.034 93.624ZM229.218 78.936H242.85C242.69 77.784 242.282 76.744 241.626 75.816C240.986 74.872 240.178 74.128 239.202 73.584C238.242 73.024 237.186 72.744 236.034 72.744C234.898 72.744 233.842 73.016 232.866 73.56C231.906 74.104 231.106 74.848 230.466 75.792C229.842 76.72 229.426 77.768 229.218 78.936ZM264.536 73.992H259.496L259.472 93H254.48L254.504 73.992H250.688V69H254.504L254.48 61.464H259.472L259.496 69H264.536V73.992ZM266.913 71.928L268.401 59.4H273.393L270.225 71.928H266.913ZM284.523 93.456C283.259 93.376 282.027 93.12 280.827 92.688C279.627 92.256 278.571 91.672 277.659 90.936C276.763 90.184 276.091 89.304 275.643 88.296L279.891 86.472C280.099 86.904 280.459 87.328 280.971 87.744C281.499 88.16 282.115 88.504 282.819 88.776C283.523 89.032 284.259 89.16 285.027 89.16C285.779 89.16 286.475 89.056 287.115 88.848C287.771 88.624 288.307 88.288 288.723 87.84C289.139 87.392 289.347 86.856 289.347 86.232C289.347 85.528 289.107 84.984 288.627 84.6C288.163 84.2 287.579 83.896 286.875 83.688C286.171 83.48 285.467 83.28 284.763 83.088C283.195 82.736 281.755 82.256 280.443 81.648C279.147 81.024 278.115 80.232 277.347 79.272C276.579 78.296 276.195 77.104 276.195 75.696C276.195 74.16 276.603 72.832 277.419 71.712C278.251 70.576 279.347 69.704 280.707 69.096C282.067 68.488 283.515 68.184 285.051 68.184C286.971 68.184 288.731 68.592 290.331 69.408C291.931 70.224 293.155 71.344 294.003 72.768L290.043 75.12C289.803 74.64 289.443 74.208 288.963 73.824C288.483 73.44 287.939 73.136 287.331 72.912C286.723 72.672 286.091 72.536 285.435 72.504C284.619 72.472 283.859 72.568 283.155 72.792C282.467 73 281.915 73.336 281.499 73.8C281.083 74.264 280.875 74.856 280.875 75.576C280.875 76.28 281.123 76.808 281.619 77.16C282.115 77.496 282.739 77.768 283.491 77.976C284.259 78.184 285.043 78.416 285.843 78.672C287.267 79.12 288.603 79.672 289.851 80.328C291.099 80.968 292.107 81.76 292.875 82.704C293.643 83.648 294.011 84.8 293.979 86.16C293.979 87.664 293.523 88.984 292.611 90.12C291.715 91.256 290.547 92.12 289.107 92.712C287.667 93.304 286.139 93.552 284.523 93.456ZM309.849 69H314.841V93H309.849V69ZM312.369 65.04C311.617 65.04 310.985 64.792 310.473 64.296C309.961 63.8 309.705 63.176 309.705 62.424C309.705 61.688 309.961 61.072 310.473 60.576C310.985 60.064 311.617 59.808 312.369 59.808C313.105 59.808 313.729 60.064 314.241 60.576C314.753 61.072 315.009 61.688 315.009 62.424C315.009 63.176 314.753 63.8 314.241 64.296C313.729 64.792 313.105 65.04 312.369 65.04ZM344.496 80.424V93H339.504V80.52C339.504 79.16 339.216 77.928 338.64 76.824C338.08 75.704 337.304 74.816 336.312 74.16C335.336 73.488 334.224 73.152 332.976 73.152C331.728 73.152 330.632 73.488 329.688 74.16C328.76 74.816 328.032 75.704 327.504 76.824C326.992 77.928 326.736 79.16 326.736 80.52V93H321.744V69H326.736V72.24C327.568 71.024 328.576 70.072 329.76 69.384C330.944 68.68 332.28 68.328 333.768 68.328C335.928 68.328 337.8 68.88 339.384 69.984C340.984 71.088 342.232 72.552 343.128 74.376C344.024 76.2 344.48 78.216 344.496 80.424ZM368.278 95.688C366.646 94.104 365.318 92.376 364.294 90.504C363.27 88.616 362.518 86.592 362.038 84.432C361.558 82.272 361.318 79.976 361.318 77.544C361.318 76.344 361.422 75.032 361.63 73.608C361.838 72.184 362.142 70.744 362.542 69.288C362.942 67.832 363.422 66.448 363.982 65.136C364.558 63.824 365.206 62.664 365.926 61.656C366.646 60.648 367.43 59.896 368.278 59.4H373.27C372.55 59.976 371.854 60.768 371.182 61.776C370.51 62.768 369.886 63.904 369.31 65.184C368.734 66.464 368.222 67.816 367.774 69.24C367.326 70.664 366.974 72.088 366.718 73.512C366.462 74.92 366.326 76.264 366.31 77.544C366.342 80.056 366.678 82.44 367.318 84.696C367.974 86.936 368.822 88.992 369.862 90.864C370.918 92.72 372.054 94.328 373.27 95.688H368.278ZM390.544 93.624C388.704 93.624 386.936 93.336 385.24 92.76C383.544 92.184 382.064 91.36 380.8 90.288C379.536 89.2 378.632 87.912 378.088 86.424L382.768 84.672C383.04 85.44 383.56 86.128 384.328 86.736C385.112 87.328 386.04 87.792 387.112 88.128C388.2 88.464 389.344 88.632 390.544 88.632C391.824 88.632 393.024 88.424 394.144 88.008C395.28 87.592 396.192 87.016 396.88 86.28C397.584 85.544 397.936 84.68 397.936 83.688C397.936 82.664 397.568 81.824 396.832 81.168C396.112 80.512 395.184 79.992 394.048 79.608C392.928 79.224 391.76 78.936 390.544 78.744C388.192 78.36 386.08 77.8 384.208 77.064C382.352 76.328 380.88 75.296 379.792 73.968C378.72 72.64 378.184 70.912 378.184 68.784C378.184 66.784 378.752 65.04 379.888 63.552C381.04 62.064 382.552 60.912 384.424 60.096C386.312 59.264 388.352 58.848 390.544 58.848C392.352 58.848 394.096 59.136 395.776 59.712C397.472 60.272 398.96 61.096 400.24 62.184C401.536 63.256 402.464 64.56 403.024 66.096L398.296 67.8C398.024 67.016 397.504 66.336 396.736 65.76C395.968 65.168 395.04 64.704 393.952 64.368C392.88 64.032 391.744 63.864 390.544 63.864C389.264 63.848 388.064 64.056 386.944 64.488C385.84 64.904 384.936 65.48 384.232 66.216C383.528 66.952 383.176 67.808 383.176 68.784C383.176 69.984 383.504 70.896 384.16 71.52C384.816 72.144 385.696 72.608 386.8 72.912C387.92 73.2 389.168 73.464 390.544 73.704C392.752 74.056 394.792 74.64 396.664 75.456C398.552 76.272 400.064 77.36 401.2 78.72C402.352 80.064 402.928 81.72 402.928 83.688C402.928 85.672 402.352 87.416 401.2 88.92C400.064 90.408 398.552 91.568 396.664 92.4C394.792 93.216 392.752 93.624 390.544 93.624ZM407.864 69H412.856V93H407.864V69ZM410.384 65.04C409.632 65.04 409 64.792 408.488 64.296C407.976 63.8 407.72 63.176 407.72 62.424C407.72 61.688 407.976 61.072 408.488 60.576C409 60.064 409.632 59.808 410.384 59.808C411.12 59.808 411.744 60.064 412.256 60.576C412.768 61.072 413.024 61.688 413.024 62.424C413.024 63.176 412.768 63.8 412.256 64.296C411.744 64.792 411.12 65.04 410.384 65.04ZM438.691 69H443.683V93.624C443.683 95.272 443.331 96.792 442.627 98.184C441.939 99.576 441.003 100.776 439.819 101.784C438.635 102.808 437.275 103.6 435.739 104.16C434.219 104.72 432.627 105 430.963 105C429.283 105 427.667 104.64 426.115 103.92C424.563 103.216 423.195 102.256 422.011 101.04C420.843 99.824 419.971 98.448 419.395 96.912L423.979 94.848C424.299 95.84 424.811 96.72 425.515 97.488C426.235 98.256 427.067 98.864 428.011 99.312C428.971 99.76 429.955 99.984 430.963 99.984C431.955 99.984 432.907 99.824 433.819 99.504C434.747 99.2 435.571 98.768 436.291 98.208C437.027 97.648 437.611 96.976 438.043 96.192C438.475 95.408 438.691 94.552 438.691 93.624V89.568C437.907 90.784 436.899 91.768 435.667 92.52C434.435 93.256 433.003 93.624 431.371 93.624C429.675 93.624 428.075 93.296 426.571 92.64C425.067 91.984 423.747 91.08 422.611 89.928C421.475 88.76 420.587 87.416 419.947 85.896C419.307 84.376 418.987 82.744 418.987 81C418.987 79.256 419.307 77.624 419.947 76.104C420.587 74.568 421.475 73.224 422.611 72.072C423.747 70.904 425.067 69.992 426.571 69.336C428.075 68.68 429.675 68.352 431.371 68.352C433.003 68.352 434.435 68.728 435.667 69.48C436.899 70.216 437.907 71.2 438.691 72.432V69ZM431.419 88.8C432.811 88.8 434.027 88.448 435.067 87.744C436.107 87.024 436.915 86.072 437.491 84.888C438.067 83.704 438.355 82.408 438.355 81C438.355 79.56 438.059 78.256 437.467 77.088C436.891 75.904 436.083 74.96 435.043 74.256C434.003 73.536 432.795 73.176 431.419 73.176C430.075 73.176 428.843 73.528 427.723 74.232C426.619 74.936 425.739 75.88 425.083 77.064C424.427 78.248 424.099 79.56 424.099 81C424.099 82.44 424.427 83.752 425.083 84.936C425.755 86.12 426.643 87.064 427.747 87.768C428.867 88.456 430.091 88.8 431.419 88.8ZM471.715 80.424V93H466.723V80.52C466.723 79.16 466.435 77.928 465.859 76.824C465.299 75.704 464.523 74.816 463.531 74.16C462.555 73.488 461.443 73.152 460.195 73.152C458.947 73.152 457.851 73.488 456.907 74.16C455.979 74.816 455.251 75.704 454.723 76.824C454.211 77.928 453.955 79.16 453.955 80.52V93H448.963V69H453.955V72.24C454.787 71.024 455.795 70.072 456.979 69.384C458.163 68.68 459.499 68.328 460.987 68.328C463.147 68.328 465.019 68.88 466.603 69.984C468.203 71.088 469.451 72.552 470.347 74.376C471.243 76.2 471.699 78.216 471.715 80.424ZM488.536 81.528V69H493.528V81.432C493.528 82.792 493.808 84.032 494.368 85.152C494.944 86.256 495.72 87.144 496.696 87.816C497.688 88.472 498.816 88.8 500.08 88.8C501.312 88.8 502.392 88.472 503.32 87.816C504.264 87.144 504.992 86.256 505.504 85.152C506.032 84.032 506.296 82.792 506.296 81.432V69H511.288V93H506.296V89.736C505.464 90.936 504.456 91.888 503.272 92.592C502.088 93.296 500.752 93.648 499.264 93.648C497.12 93.648 495.24 93.104 493.624 92.016C492.024 90.912 490.784 89.44 489.904 87.6C489.024 85.76 488.568 83.736 488.536 81.528ZM521.138 105H516.146V69H521.138V72.528C521.938 71.296 522.962 70.296 524.21 69.528C525.458 68.76 526.93 68.376 528.626 68.376C530.37 68.376 532.002 68.704 533.522 69.36C535.058 70.016 536.402 70.928 537.554 72.096C538.706 73.248 539.61 74.584 540.266 76.104C540.922 77.624 541.25 79.256 541.25 81C541.25 82.744 540.922 84.384 540.266 85.92C539.61 87.456 538.706 88.808 537.554 89.976C536.402 91.128 535.058 92.032 533.522 92.688C532.002 93.344 530.37 93.672 528.626 93.672C526.93 93.672 525.458 93.288 524.21 92.52C522.962 91.736 521.938 90.736 521.138 89.52V105ZM528.578 73.2C527.186 73.2 525.962 73.552 524.906 74.256C523.85 74.96 523.026 75.904 522.434 77.088C521.842 78.256 521.546 79.56 521.546 81C521.546 82.44 521.842 83.752 522.434 84.936C523.026 86.12 523.85 87.064 524.906 87.768C525.962 88.472 527.186 88.824 528.578 88.824C529.954 88.824 531.218 88.48 532.37 87.792C533.522 87.088 534.442 86.144 535.13 84.96C535.818 83.776 536.162 82.456 536.162 81C536.162 79.576 535.818 78.272 535.13 77.088C534.458 75.904 533.546 74.96 532.394 74.256C531.242 73.552 529.97 73.2 528.578 73.2ZM544.623 95.688L546.111 87.576H551.103L547.935 95.688H544.623ZM580.387 93.624C578.547 93.624 576.779 93.336 575.083 92.76C573.387 92.184 571.907 91.36 570.643 90.288C569.379 89.2 568.475 87.912 567.931 86.424L572.611 84.672C572.883 85.44 573.403 86.128 574.171 86.736C574.955 87.328 575.883 87.792 576.955 88.128C578.043 88.464 579.187 88.632 580.387 88.632C581.667 88.632 582.867 88.424 583.987 88.008C585.123 87.592 586.035 87.016 586.723 86.28C587.427 85.544 587.779 84.68 587.779 83.688C587.779 82.664 587.411 81.824 586.675 81.168C585.955 80.512 585.027 79.992 583.891 79.608C582.771 79.224 581.603 78.936 580.387 78.744C578.035 78.36 575.923 77.8 574.051 77.064C572.195 76.328 570.723 75.296 569.635 73.968C568.563 72.64 568.027 70.912 568.027 68.784C568.027 66.784 568.595 65.04 569.731 63.552C570.883 62.064 572.395 60.912 574.267 60.096C576.155 59.264 578.195 58.848 580.387 58.848C582.195 58.848 583.939 59.136 585.619 59.712C587.315 60.272 588.803 61.096 590.083 62.184C591.379 63.256 592.307 64.56 592.867 66.096L588.139 67.8C587.867 67.016 587.347 66.336 586.579 65.76C585.811 65.168 584.883 64.704 583.795 64.368C582.723 64.032 581.587 63.864 580.387 63.864C579.107 63.848 577.907 64.056 576.787 64.488C575.683 64.904 574.779 65.48 574.075 66.216C573.371 66.952 573.019 67.808 573.019 68.784C573.019 69.984 573.347 70.896 574.003 71.52C574.659 72.144 575.539 72.608 576.643 72.912C577.763 73.2 579.011 73.464 580.387 73.704C582.595 74.056 584.635 74.64 586.507 75.456C588.395 76.272 589.907 77.36 591.043 78.72C592.195 80.064 592.771 81.72 592.771 83.688C592.771 85.672 592.195 87.416 591.043 88.92C589.907 90.408 588.395 91.568 586.507 92.4C584.635 93.216 582.595 93.624 580.387 93.624ZM597.708 69H602.7V93H597.708V69ZM600.228 65.04C599.476 65.04 598.844 64.792 598.332 64.296C597.82 63.8 597.564 63.176 597.564 62.424C597.564 61.688 597.82 61.072 598.332 60.576C598.844 60.064 599.476 59.808 600.228 59.808C600.964 59.808 601.588 60.064 602.1 60.576C602.612 61.072 602.868 61.688 602.868 62.424C602.868 63.176 602.612 63.8 602.1 64.296C601.588 64.792 600.964 65.04 600.228 65.04ZM628.535 69H633.527V93.624C633.527 95.272 633.175 96.792 632.471 98.184C631.783 99.576 630.847 100.776 629.663 101.784C628.479 102.808 627.119 103.6 625.583 104.16C624.063 104.72 622.471 105 620.807 105C619.127 105 617.511 104.64 615.959 103.92C614.407 103.216 613.039 102.256 611.855 101.04C610.687 99.824 609.815 98.448 609.239 96.912L613.823 94.848C614.143 95.84 614.655 96.72 615.359 97.488C616.079 98.256 616.911 98.864 617.855 99.312C618.815 99.76 619.799 99.984 620.807 99.984C621.799 99.984 622.751 99.824 623.663 99.504C624.591 99.2 625.415 98.768 626.135 98.208C626.871 97.648 627.455 96.976 627.887 96.192C628.319 95.408 628.535 94.552 628.535 93.624V89.568C627.751 90.784 626.743 91.768 625.511 92.52C624.279 93.256 622.847 93.624 621.215 93.624C619.519 93.624 617.919 93.296 616.415 92.64C614.911 91.984 613.591 91.08 612.455 89.928C611.319 88.76 610.431 87.416 609.791 85.896C609.151 84.376 608.831 82.744 608.831 81C608.831 79.256 609.151 77.624 609.791 76.104C610.431 74.568 611.319 73.224 612.455 72.072C613.591 70.904 614.911 69.992 616.415 69.336C617.919 68.68 619.519 68.352 621.215 68.352C622.847 68.352 624.279 68.728 625.511 69.48C626.743 70.216 627.751 71.2 628.535 72.432V69ZM621.263 88.8C622.655 88.8 623.871 88.448 624.911 87.744C625.951 87.024 626.759 86.072 627.335 84.888C627.911 83.704 628.199 82.408 628.199 81C628.199 79.56 627.903 78.256 627.311 77.088C626.735 75.904 625.927 74.96 624.887 74.256C623.847 73.536 622.639 73.176 621.263 73.176C619.919 73.176 618.687 73.528 617.567 74.232C616.463 74.936 615.583 75.88 614.927 77.064C614.271 78.248 613.943 79.56 613.943 81C613.943 82.44 614.271 83.752 614.927 84.936C615.599 86.12 616.487 87.064 617.591 87.768C618.711 88.456 619.935 88.8 621.263 88.8ZM661.558 80.424V93H656.566V80.52C656.566 79.16 656.278 77.928 655.702 76.824C655.142 75.704 654.366 74.816 653.374 74.16C652.398 73.488 651.286 73.152 650.038 73.152C648.79 73.152 647.694 73.488 646.75 74.16C645.822 74.816 645.094 75.704 644.566 76.824C644.054 77.928 643.798 79.16 643.798 80.52V93H638.806V69H643.798V72.24C644.63 71.024 645.638 70.072 646.822 69.384C648.006 68.68 649.342 68.328 650.83 68.328C652.99 68.328 654.862 68.88 656.446 69.984C658.046 71.088 659.294 72.552 660.19 74.376C661.086 76.2 661.542 78.216 661.558 80.424ZM678.38 69H683.372V93H678.38V69ZM680.9 65.04C680.148 65.04 679.516 64.792 679.004 64.296C678.492 63.8 678.236 63.176 678.236 62.424C678.236 61.688 678.492 61.072 679.004 60.576C679.516 60.064 680.148 59.808 680.9 59.808C681.636 59.808 682.26 60.064 682.772 60.576C683.284 61.072 683.54 61.688 683.54 62.424C683.54 63.176 683.284 63.8 682.772 64.296C682.26 64.792 681.636 65.04 680.9 65.04ZM713.027 80.424V93H708.035V80.52C708.035 79.16 707.747 77.928 707.171 76.824C706.611 75.704 705.835 74.816 704.843 74.16C703.867 73.488 702.755 73.152 701.507 73.152C700.259 73.152 699.163 73.488 698.219 74.16C697.291 74.816 696.563 75.704 696.035 76.824C695.523 77.928 695.267 79.16 695.267 80.52V93H690.275V69H695.267V72.24C696.099 71.024 697.107 70.072 698.291 69.384C699.475 68.68 700.811 68.328 702.299 68.328C704.459 68.328 706.331 68.88 707.915 69.984C709.515 71.088 710.763 72.552 711.659 74.376C712.555 76.2 713.011 78.216 713.027 80.424ZM717.838 95.688C719.054 94.328 720.182 92.72 721.222 90.864C722.278 88.992 723.126 86.936 723.766 84.696C724.422 82.44 724.766 80.056 724.798 77.544C724.782 76.264 724.646 74.92 724.39 73.512C724.134 72.088 723.782 70.664 723.334 69.24C722.886 67.816 722.374 66.464 721.798 65.184C721.222 63.904 720.598 62.768 719.926 61.776C719.254 60.768 718.558 59.976 717.838 59.4H722.83C723.678 59.896 724.454 60.648 725.158 61.656C725.878 62.664 726.526 63.824 727.102 65.136C727.678 66.448 728.166 67.832 728.566 69.288C728.966 70.744 729.27 72.184 729.478 73.608C729.686 75.032 729.79 76.344 729.79 77.544C729.79 79.976 729.55 82.272 729.07 84.432C728.606 86.592 727.862 88.616 726.838 90.504C725.814 92.376 724.478 94.104 722.83 95.688H717.838Z" fill="white"/>
</g>
</g>
<defs>
<linearGradient id="paint0_linear_103_2437" x1="152" y1="152" x2="-28.8664" y2="99.5595" gradientUnits="userSpaceOnUse">
<stop stop-color="#FF4D67"/>
<stop offset="1" stop-color="#FF8395"/>
</linearGradient>
</defs>
</svg>
