<svg width="568" height="152" viewBox="0 0 568 152" fill="none" xmlns="http://www.w3.org/2000/svg">
<g id="Elements/Marker Navigation">
<g id="Auto Layout Vertical">
<path d="M0 24C0 10.7452 10.7452 0 24 0H152V152H24C10.7452 152 0 141.255 0 128V24Z" fill="url(#paint0_linear_103_2432)"/>
<path id="00" d="M58.3632 100.897C55.5572 100.897 53.0042 100.253 50.7042 98.965C48.4042 97.654 46.4147 95.8485 44.7357 93.5485C43.0797 91.2485 41.8032 88.592 40.9062 85.579C40.0092 82.543 39.5607 79.3 39.5607 75.85C39.5607 72.4 40.0092 69.1685 40.9062 66.1555C41.8032 63.1195 43.0797 60.4515 44.7357 58.1515C46.4147 55.8515 48.4042 54.0575 50.7042 52.7695C53.0042 51.4585 55.5572 50.803 58.3632 50.803C61.1692 50.803 63.7222 51.4585 66.0222 52.7695C68.3222 54.0575 70.2887 55.8515 71.9217 58.1515C73.5777 60.4515 74.8542 63.1195 75.7512 66.1555C76.6712 69.1685 77.1312 72.4 77.1312 75.85C77.1312 79.3 76.6712 82.543 75.7512 85.579C74.8542 88.592 73.5777 91.2485 71.9217 93.5485C70.2887 95.8485 68.3222 97.654 66.0222 98.965C63.7222 100.253 61.1692 100.897 58.3632 100.897ZM58.3632 92.479C60.8242 92.479 62.8597 91.697 64.4697 90.133C66.0797 88.569 67.2757 86.522 68.0577 83.992C68.8397 81.462 69.2307 78.748 69.2307 75.85C69.2307 72.791 68.8167 70.008 67.9887 67.501C67.1607 64.971 65.9417 62.9585 64.3317 61.4635C62.7217 59.9685 60.7322 59.221 58.3632 59.221C56.5002 59.221 54.8787 59.681 53.4987 60.601C52.1417 61.498 51.0147 62.7285 50.1177 64.2925C49.2207 65.8565 48.5537 67.639 48.1167 69.64C47.6797 71.618 47.4612 73.688 47.4612 75.85C47.4612 78.725 47.8522 81.439 48.6342 83.992C49.4392 86.522 50.6467 88.569 52.2567 90.133C53.8897 91.697 55.9252 92.479 58.3632 92.479ZM96.8302 100.897C93.9092 100.897 91.2757 100.207 88.9297 98.827C86.5837 97.447 84.7207 95.5955 83.3407 93.2725C81.9607 90.9265 81.2707 88.3275 81.2707 85.4755H89.6887C89.6887 86.7635 89.9877 87.9365 90.5857 88.9945C91.2067 90.0525 92.0577 90.9035 93.1387 91.5475C94.2197 92.1685 95.4502 92.479 96.8302 92.479C98.0952 92.479 99.2682 92.1685 100.349 91.5475C101.453 90.9035 102.339 90.0525 103.006 88.9945C103.673 87.9365 104.006 86.7635 104.006 85.4755C104.006 83.7965 103.558 82.405 102.661 81.301C101.764 80.174 100.51 79.3345 98.9002 78.7825C97.3132 78.2305 95.4617 77.9545 93.3457 77.9545V71.4685C96.1977 71.4685 98.4517 70.928 100.108 69.847C101.787 68.766 102.626 67.179 102.626 65.086C102.626 64.005 102.35 63.016 101.798 62.119C101.246 61.222 100.51 60.509 99.5902 59.98C98.6932 59.428 97.7042 59.152 96.6232 59.152C95.5192 59.152 94.4497 59.428 93.4147 59.98C92.3797 60.509 91.5287 61.222 90.8617 62.119C90.2177 63.016 89.8957 64.005 89.8957 65.086H81.4777C81.4777 63.108 81.8802 61.2565 82.6852 59.5315C83.4902 57.7835 84.5942 56.254 85.9972 54.943C87.4232 53.632 89.0332 52.6085 90.8272 51.8725C92.6442 51.1135 94.5417 50.734 96.5197 50.734C99.1187 50.734 101.522 51.378 103.73 52.666C105.938 53.954 107.709 55.679 109.043 57.841C110.377 60.003 111.044 62.418 111.044 65.086C111.044 66.949 110.607 68.7775 109.733 70.5715C108.859 72.3655 107.617 73.6305 106.007 74.3665C107.41 74.8725 108.583 75.7235 109.526 76.9195C110.469 78.0925 111.182 79.438 111.665 80.956C112.171 82.451 112.424 83.9575 112.424 85.4755C112.424 88.3045 111.711 90.892 110.285 93.238C108.859 95.561 106.962 97.424 104.593 98.827C102.247 100.207 99.6592 100.897 96.8302 100.897Z" fill="white"/>
</g>
<g id="Auto Layout Vertical_2">
<path d="M152 0H544C557.255 0 568 10.7452 568 24V128C568 141.255 557.255 152 544 152H152V0Z" fill="#35383F"/>
<path id="Section" d="M214.136 59.4H219.968L232.184 93H226.904L224.576 86.616H209.528L207.224 93H201.92L214.136 59.4ZM211.376 81.624H222.728L217.04 66.024L211.376 81.624ZM250.286 86.184L254.75 88.608C253.662 90.128 252.278 91.344 250.598 92.256C248.934 93.168 247.126 93.624 245.174 93.624C242.966 93.624 240.95 93.056 239.126 91.92C237.318 90.784 235.87 89.264 234.782 87.36C233.71 85.44 233.174 83.32 233.174 81C233.174 79.24 233.486 77.6 234.11 76.08C234.734 74.544 235.59 73.2 236.678 72.048C237.782 70.88 239.062 69.968 240.518 69.312C241.974 68.656 243.526 68.328 245.174 68.328C247.126 68.328 248.934 68.784 250.598 69.696C252.278 70.608 253.662 71.832 254.75 73.368L250.286 75.792C249.614 74.992 248.83 74.384 247.934 73.968C247.038 73.536 246.118 73.32 245.174 73.32C243.862 73.32 242.67 73.68 241.598 74.4C240.542 75.104 239.702 76.04 239.078 77.208C238.47 78.36 238.166 79.624 238.166 81C238.166 82.36 238.478 83.624 239.102 84.792C239.726 85.944 240.566 86.872 241.622 87.576C242.694 88.28 243.878 88.632 245.174 88.632C246.166 88.632 247.11 88.408 248.006 87.96C248.902 87.512 249.662 86.92 250.286 86.184ZM274.005 86.184L278.469 88.608C277.381 90.128 275.997 91.344 274.317 92.256C272.653 93.168 270.845 93.624 268.893 93.624C266.685 93.624 264.669 93.056 262.845 91.92C261.037 90.784 259.589 89.264 258.501 87.36C257.429 85.44 256.893 83.32 256.893 81C256.893 79.24 257.205 77.6 257.829 76.08C258.453 74.544 259.309 73.2 260.397 72.048C261.501 70.88 262.781 69.968 264.237 69.312C265.693 68.656 267.245 68.328 268.893 68.328C270.845 68.328 272.653 68.784 274.317 69.696C275.997 70.608 277.381 71.832 278.469 73.368L274.005 75.792C273.333 74.992 272.549 74.384 271.653 73.968C270.757 73.536 269.837 73.32 268.893 73.32C267.581 73.32 266.389 73.68 265.317 74.4C264.261 75.104 263.421 76.04 262.797 77.208C262.189 78.36 261.885 79.624 261.885 81C261.885 82.36 262.197 83.624 262.821 84.792C263.445 85.944 264.285 86.872 265.341 87.576C266.413 88.28 267.597 88.632 268.893 88.632C269.885 88.632 270.829 88.408 271.725 87.96C272.621 87.512 273.381 86.92 274.005 86.184ZM292.612 93.624C290.404 93.624 288.388 93.056 286.564 91.92C284.756 90.784 283.308 89.264 282.22 87.36C281.148 85.44 280.612 83.32 280.612 81C280.612 79.24 280.924 77.6 281.548 76.08C282.172 74.544 283.028 73.2 284.116 72.048C285.22 70.88 286.5 69.968 287.956 69.312C289.412 68.656 290.964 68.328 292.612 68.328C294.82 68.328 296.828 68.896 298.636 70.032C300.46 71.168 301.908 72.696 302.98 74.616C304.068 76.536 304.612 78.664 304.612 81C304.612 82.744 304.3 84.376 303.676 85.896C303.052 87.416 302.188 88.76 301.084 89.928C299.996 91.08 298.724 91.984 297.268 92.64C295.828 93.296 294.276 93.624 292.612 93.624ZM292.612 88.632C293.94 88.632 295.132 88.28 296.188 87.576C297.244 86.872 298.076 85.944 298.684 84.792C299.308 83.624 299.62 82.36 299.62 81C299.62 79.608 299.3 78.328 298.66 77.16C298.036 75.992 297.196 75.064 296.14 74.376C295.084 73.672 293.908 73.32 292.612 73.32C291.3 73.32 290.108 73.672 289.036 74.376C287.98 75.08 287.14 76.016 286.516 77.184C285.908 78.352 285.604 79.624 285.604 81C285.604 82.424 285.924 83.712 286.564 84.864C287.204 86.016 288.052 86.936 289.108 87.624C290.18 88.296 291.348 88.632 292.612 88.632ZM308.021 81.528V69H313.013V81.432C313.013 82.792 313.293 84.032 313.853 85.152C314.429 86.256 315.205 87.144 316.181 87.816C317.173 88.472 318.301 88.8 319.565 88.8C320.797 88.8 321.877 88.472 322.805 87.816C323.749 87.144 324.477 86.256 324.989 85.152C325.517 84.032 325.781 82.792 325.781 81.432V69H330.773V93H325.781V89.736C324.949 90.936 323.941 91.888 322.757 92.592C321.573 93.296 320.237 93.648 318.749 93.648C316.605 93.648 314.725 93.104 313.109 92.016C311.509 90.912 310.269 89.44 309.389 87.6C308.509 85.76 308.053 83.736 308.021 81.528ZM358.793 80.424V93H353.801V80.52C353.801 79.16 353.513 77.928 352.937 76.824C352.377 75.704 351.601 74.816 350.609 74.16C349.633 73.488 348.521 73.152 347.273 73.152C346.025 73.152 344.929 73.488 343.985 74.16C343.057 74.816 342.329 75.704 341.801 76.824C341.289 77.928 341.033 79.16 341.033 80.52V93H336.041V69H341.033V72.24C341.865 71.024 342.873 70.072 344.057 69.384C345.241 68.68 346.577 68.328 348.065 68.328C350.225 68.328 352.097 68.88 353.681 69.984C355.281 71.088 356.529 72.552 357.425 74.376C358.321 76.2 358.777 78.216 358.793 80.424ZM376.755 73.992H371.715L371.691 93H366.699L366.723 73.992H362.907V69H366.723L366.699 61.464H371.691L371.715 69H376.755V73.992ZM404.559 93.624C402.719 93.624 400.951 93.336 399.255 92.76C397.559 92.184 396.079 91.36 394.815 90.288C393.551 89.2 392.647 87.912 392.103 86.424L396.783 84.672C397.055 85.44 397.575 86.128 398.343 86.736C399.127 87.328 400.055 87.792 401.127 88.128C402.215 88.464 403.359 88.632 404.559 88.632C405.839 88.632 407.039 88.424 408.159 88.008C409.295 87.592 410.207 87.016 410.895 86.28C411.599 85.544 411.951 84.68 411.951 83.688C411.951 82.664 411.583 81.824 410.847 81.168C410.127 80.512 409.199 79.992 408.063 79.608C406.943 79.224 405.775 78.936 404.559 78.744C402.207 78.36 400.095 77.8 398.223 77.064C396.367 76.328 394.895 75.296 393.807 73.968C392.735 72.64 392.199 70.912 392.199 68.784C392.199 66.784 392.767 65.04 393.903 63.552C395.055 62.064 396.567 60.912 398.439 60.096C400.327 59.264 402.367 58.848 404.559 58.848C406.367 58.848 408.111 59.136 409.791 59.712C411.487 60.272 412.975 61.096 414.255 62.184C415.551 63.256 416.479 64.56 417.039 66.096L412.311 67.8C412.039 67.016 411.519 66.336 410.751 65.76C409.983 65.168 409.055 64.704 407.967 64.368C406.895 64.032 405.759 63.864 404.559 63.864C403.279 63.848 402.079 64.056 400.959 64.488C399.855 64.904 398.951 65.48 398.247 66.216C397.543 66.952 397.191 67.808 397.191 68.784C397.191 69.984 397.519 70.896 398.175 71.52C398.831 72.144 399.711 72.608 400.815 72.912C401.935 73.2 403.183 73.464 404.559 73.704C406.767 74.056 408.807 74.64 410.679 75.456C412.567 76.272 414.079 77.36 415.215 78.72C416.367 80.064 416.943 81.72 416.943 83.688C416.943 85.672 416.367 87.416 415.215 88.92C414.079 90.408 412.567 91.568 410.679 92.4C408.807 93.216 406.767 93.624 404.559 93.624ZM432.253 93.624C430.045 93.624 428.029 93.056 426.205 91.92C424.397 90.784 422.949 89.264 421.861 87.36C420.789 85.44 420.253 83.32 420.253 81C420.253 79.24 420.565 77.6 421.189 76.08C421.813 74.544 422.669 73.2 423.757 72.048C424.861 70.88 426.141 69.968 427.597 69.312C429.053 68.656 430.605 68.328 432.253 68.328C434.093 68.328 435.781 68.712 437.317 69.48C438.853 70.232 440.165 71.28 441.253 72.624C442.341 73.952 443.141 75.488 443.653 77.232C444.165 78.96 444.317 80.8 444.109 82.752H425.605C425.813 83.856 426.213 84.856 426.805 85.752C427.413 86.632 428.181 87.328 429.109 87.84C430.053 88.352 431.101 88.616 432.253 88.632C433.469 88.632 434.573 88.328 435.565 87.72C436.573 87.112 437.397 86.272 438.037 85.2L443.101 86.376C442.141 88.504 440.693 90.248 438.757 91.608C436.821 92.952 434.653 93.624 432.253 93.624ZM425.437 78.936H439.069C438.909 77.784 438.501 76.744 437.845 75.816C437.205 74.872 436.397 74.128 435.421 73.584C434.461 73.024 433.405 72.744 432.253 72.744C431.117 72.744 430.061 73.016 429.085 73.56C428.125 74.104 427.325 74.848 426.685 75.792C426.061 76.72 425.645 77.768 425.437 78.936ZM460.755 73.992H455.715L455.691 93H450.699L450.723 73.992H446.907V69H450.723L450.699 61.464H455.691L455.715 69H460.755V73.992ZM465.052 81.528V69H470.044V81.432C470.044 82.792 470.324 84.032 470.884 85.152C471.46 86.256 472.236 87.144 473.212 87.816C474.204 88.472 475.332 88.8 476.596 88.8C477.828 88.8 478.908 88.472 479.836 87.816C480.78 87.144 481.508 86.256 482.02 85.152C482.548 84.032 482.812 82.792 482.812 81.432V69H487.804V93H482.812V89.736C481.98 90.936 480.972 91.888 479.788 92.592C478.604 93.296 477.268 93.648 475.78 93.648C473.636 93.648 471.756 93.104 470.14 92.016C468.54 90.912 467.3 89.44 466.42 87.6C465.54 85.76 465.084 83.736 465.052 81.528ZM497.653 105H492.661V69H497.653V72.528C498.453 71.296 499.477 70.296 500.725 69.528C501.973 68.76 503.445 68.376 505.141 68.376C506.885 68.376 508.517 68.704 510.037 69.36C511.573 70.016 512.917 70.928 514.069 72.096C515.221 73.248 516.125 74.584 516.781 76.104C517.437 77.624 517.765 79.256 517.765 81C517.765 82.744 517.437 84.384 516.781 85.92C516.125 87.456 515.221 88.808 514.069 89.976C512.917 91.128 511.573 92.032 510.037 92.688C508.517 93.344 506.885 93.672 505.141 93.672C503.445 93.672 501.973 93.288 500.725 92.52C499.477 91.736 498.453 90.736 497.653 89.52V105ZM505.093 73.2C503.701 73.2 502.477 73.552 501.421 74.256C500.365 74.96 499.541 75.904 498.949 77.088C498.357 78.256 498.061 79.56 498.061 81C498.061 82.44 498.357 83.752 498.949 84.936C499.541 86.12 500.365 87.064 501.421 87.768C502.477 88.472 503.701 88.824 505.093 88.824C506.469 88.824 507.733 88.48 508.885 87.792C510.037 87.088 510.957 86.144 511.645 84.96C512.333 83.776 512.677 82.456 512.677 81C512.677 79.576 512.333 78.272 511.645 77.088C510.973 75.904 510.061 74.96 508.909 74.256C507.757 73.552 506.485 73.2 505.093 73.2Z" fill="white"/>
</g>
</g>
<defs>
<linearGradient id="paint0_linear_103_2432" x1="152" y1="152" x2="-28.8664" y2="99.5595" gradientUnits="userSpaceOnUse">
<stop stop-color="#FF4D67"/>
<stop offset="1" stop-color="#FF8395"/>
</linearGradient>
</defs>
</svg>
