<svg width="779" height="152" viewBox="0 0 779 152" fill="none" xmlns="http://www.w3.org/2000/svg">
<g id="Elements/Marker Navigation">
<g id="Auto Layout Vertical">
<path d="M0 24C0 10.7452 10.7452 0 24 0H152V152H24C10.7452 152 0 141.255 0 128V24Z" fill="url(#paint0_linear_103_2422)"/>
<path id="00" d="M56.0385 100.897C53.2325 100.897 50.6795 100.253 48.3795 98.965C46.0795 97.654 44.09 95.8485 42.411 93.5485C40.755 91.2485 39.4785 88.592 38.5815 85.579C37.6845 82.543 37.236 79.3 37.236 75.85C37.236 72.4 37.6845 69.1685 38.5815 66.1555C39.4785 63.1195 40.755 60.4515 42.411 58.1515C44.09 55.8515 46.0795 54.0575 48.3795 52.7695C50.6795 51.4585 53.2325 50.803 56.0385 50.803C58.8445 50.803 61.3975 51.4585 63.6975 52.7695C65.9975 54.0575 67.964 55.8515 69.597 58.1515C71.253 60.4515 72.5295 63.1195 73.4265 66.1555C74.3465 69.1685 74.8065 72.4 74.8065 75.85C74.8065 79.3 74.3465 82.543 73.4265 85.579C72.5295 88.592 71.253 91.2485 69.597 93.5485C67.964 95.8485 65.9975 97.654 63.6975 98.965C61.3975 100.253 58.8445 100.897 56.0385 100.897ZM56.0385 92.479C58.4995 92.479 60.535 91.697 62.145 90.133C63.755 88.569 64.951 86.522 65.733 83.992C66.515 81.462 66.906 78.748 66.906 75.85C66.906 72.791 66.492 70.008 65.664 67.501C64.836 64.971 63.617 62.9585 62.007 61.4635C60.397 59.9685 58.4075 59.221 56.0385 59.221C54.1755 59.221 52.554 59.681 51.174 60.601C49.817 61.498 48.69 62.7285 47.793 64.2925C46.896 65.8565 46.229 67.639 45.792 69.64C45.355 71.618 45.1365 73.688 45.1365 75.85C45.1365 78.725 45.5275 81.439 46.3095 83.992C47.1145 86.522 48.322 88.569 49.932 90.133C51.565 91.697 53.6005 92.479 56.0385 92.479ZM100.198 100V88.3045H79.636V79.852L98.2315 51.7H108.616V79.8865H112.687V88.3045H108.616V100H100.198ZM89.3995 79.852L100.198 79.8865L100.163 63.1885L89.3995 79.852Z" fill="white"/>
</g>
<g id="Auto Layout Vertical_2">
<path d="M152 0H755C768.255 0 779 10.7452 779 24V128C779 141.255 768.255 152 755 152H152V0Z" fill="#35383F"/>
<path id="Section" d="M202.88 93V59.4H222.68V64.392H207.872V72.504H220.376V77.496H207.872V93H202.88ZM234.628 93.624C232.42 93.624 230.404 93.056 228.58 91.92C226.772 90.784 225.324 89.264 224.236 87.36C223.164 85.44 222.628 83.32 222.628 81C222.628 79.24 222.94 77.6 223.564 76.08C224.188 74.544 225.044 73.2 226.132 72.048C227.236 70.88 228.516 69.968 229.972 69.312C231.428 68.656 232.98 68.328 234.628 68.328C236.836 68.328 238.844 68.896 240.652 70.032C242.476 71.168 243.924 72.696 244.996 74.616C246.084 76.536 246.628 78.664 246.628 81C246.628 82.744 246.316 84.376 245.692 85.896C245.068 87.416 244.204 88.76 243.1 89.928C242.012 91.08 240.74 91.984 239.284 92.64C237.844 93.296 236.292 93.624 234.628 93.624ZM234.628 88.632C235.956 88.632 237.148 88.28 238.204 87.576C239.26 86.872 240.092 85.944 240.7 84.792C241.324 83.624 241.636 82.36 241.636 81C241.636 79.608 241.316 78.328 240.676 77.16C240.052 75.992 239.212 75.064 238.156 74.376C237.1 73.672 235.924 73.32 234.628 73.32C233.316 73.32 232.124 73.672 231.052 74.376C229.996 75.08 229.156 76.016 228.532 77.184C227.924 78.352 227.62 79.624 227.62 81C227.62 82.424 227.94 83.712 228.58 84.864C229.22 86.016 230.068 86.936 231.124 87.624C232.196 88.296 233.364 88.632 234.628 88.632ZM264.689 74.016C264.273 73.76 263.817 73.56 263.321 73.416C262.841 73.256 262.313 73.176 261.737 73.176C260.489 73.176 259.401 73.504 258.473 74.16C257.545 74.816 256.817 75.704 256.289 76.824C255.777 77.944 255.521 79.184 255.521 80.544V93H250.505V69H255.497V72.24C256.329 71.04 257.337 70.096 258.521 69.408C259.721 68.704 261.057 68.352 262.529 68.352C263.073 68.352 263.585 68.376 264.065 68.424C264.561 68.472 265.033 68.568 265.481 68.712L264.689 74.016ZM285.738 69H290.73V93.624C290.73 95.272 290.378 96.792 289.674 98.184C288.986 99.576 288.05 100.776 286.866 101.784C285.682 102.808 284.322 103.6 282.786 104.16C281.266 104.72 279.674 105 278.01 105C276.33 105 274.714 104.64 273.162 103.92C271.61 103.216 270.242 102.256 269.058 101.04C267.89 99.824 267.018 98.448 266.442 96.912L271.026 94.848C271.346 95.84 271.858 96.72 272.562 97.488C273.282 98.256 274.114 98.864 275.058 99.312C276.018 99.76 277.002 99.984 278.01 99.984C279.002 99.984 279.954 99.824 280.866 99.504C281.794 99.2 282.618 98.768 283.338 98.208C284.074 97.648 284.658 96.976 285.09 96.192C285.522 95.408 285.738 94.552 285.738 93.624V89.568C284.954 90.784 283.946 91.768 282.714 92.52C281.482 93.256 280.05 93.624 278.418 93.624C276.722 93.624 275.122 93.296 273.618 92.64C272.114 91.984 270.794 91.08 269.658 89.928C268.522 88.76 267.634 87.416 266.994 85.896C266.354 84.376 266.034 82.744 266.034 81C266.034 79.256 266.354 77.624 266.994 76.104C267.634 74.568 268.522 73.224 269.658 72.072C270.794 70.904 272.114 69.992 273.618 69.336C275.122 68.68 276.722 68.352 278.418 68.352C280.05 68.352 281.482 68.728 282.714 69.48C283.946 70.216 284.954 71.2 285.738 72.432V69ZM278.466 88.8C279.858 88.8 281.074 88.448 282.114 87.744C283.154 87.024 283.962 86.072 284.538 84.888C285.114 83.704 285.402 82.408 285.402 81C285.402 79.56 285.106 78.256 284.514 77.088C283.938 75.904 283.13 74.96 282.09 74.256C281.05 73.536 279.842 73.176 278.466 73.176C277.122 73.176 275.89 73.528 274.77 74.232C273.666 74.936 272.786 75.88 272.13 77.064C271.474 78.248 271.146 79.56 271.146 81C271.146 82.44 271.474 83.752 272.13 84.936C272.802 86.12 273.69 87.064 274.794 87.768C275.914 88.456 277.138 88.8 278.466 88.8ZM306.299 93.624C304.091 93.624 302.075 93.056 300.251 91.92C298.443 90.784 296.995 89.264 295.907 87.36C294.835 85.44 294.299 83.32 294.299 81C294.299 79.24 294.611 77.6 295.235 76.08C295.859 74.544 296.715 73.2 297.803 72.048C298.907 70.88 300.187 69.968 301.643 69.312C303.099 68.656 304.651 68.328 306.299 68.328C308.507 68.328 310.515 68.896 312.323 70.032C314.147 71.168 315.595 72.696 316.667 74.616C317.755 76.536 318.299 78.664 318.299 81C318.299 82.744 317.987 84.376 317.363 85.896C316.739 87.416 315.875 88.76 314.771 89.928C313.683 91.08 312.411 91.984 310.955 92.64C309.515 93.296 307.963 93.624 306.299 93.624ZM306.299 88.632C307.627 88.632 308.819 88.28 309.875 87.576C310.931 86.872 311.763 85.944 312.371 84.792C312.995 83.624 313.307 82.36 313.307 81C313.307 79.608 312.987 78.328 312.347 77.16C311.723 75.992 310.883 75.064 309.827 74.376C308.771 73.672 307.595 73.32 306.299 73.32C304.987 73.32 303.795 73.672 302.723 74.376C301.667 75.08 300.827 76.016 300.203 77.184C299.595 78.352 299.291 79.624 299.291 81C299.291 82.424 299.611 83.712 300.251 84.864C300.891 86.016 301.739 86.936 302.795 87.624C303.867 88.296 305.035 88.632 306.299 88.632ZM334.802 73.992H329.762L329.738 93H324.746L324.77 73.992H320.954V69H324.77L324.746 61.464H329.738L329.762 69H334.802V73.992ZM359.798 93.624C357.846 93.624 356.102 93.152 354.566 92.208C353.046 91.264 351.846 90.024 350.966 88.488C350.102 86.936 349.67 85.264 349.67 83.472C349.67 82.448 349.766 81.552 349.958 80.784C350.166 80.016 350.51 79.264 350.99 78.528C351.486 77.792 352.158 76.968 353.006 76.056C353.87 75.144 354.958 74.032 356.27 72.72C355.534 71.968 354.918 71.312 354.422 70.752C353.926 70.192 353.534 69.672 353.246 69.192C352.958 68.696 352.75 68.184 352.622 67.656C352.51 67.128 352.454 66.528 352.454 65.856C352.454 64.448 352.79 63.192 353.462 62.088C354.134 60.968 355.03 60.088 356.15 59.448C357.27 58.792 358.486 58.464 359.798 58.464C361.142 58.464 362.374 58.8 363.494 59.472C364.614 60.128 365.502 61.016 366.158 62.136C366.83 63.24 367.166 64.48 367.166 65.856C367.166 66.544 367.102 67.16 366.974 67.704C366.846 68.232 366.63 68.744 366.326 69.24C366.038 69.736 365.646 70.264 365.15 70.824C364.654 71.368 364.046 72 363.326 72.72L370.574 79.968L376.358 74.184V81.24L374.078 83.52L380.054 89.472L376.526 93L370.574 87.072C369.246 88.4 368.118 89.488 367.19 90.336C366.278 91.184 365.454 91.848 364.718 92.328C363.982 92.808 363.23 93.144 362.462 93.336C361.71 93.528 360.822 93.624 359.798 93.624ZM359.798 88.632C360.438 88.632 360.982 88.56 361.43 88.416C361.894 88.256 362.366 87.992 362.846 87.624C363.326 87.24 363.886 86.72 364.526 86.064C365.182 85.392 366.022 84.536 367.046 83.496L359.798 76.248C358.742 77.304 357.878 78.168 357.206 78.84C356.534 79.496 356.014 80.056 355.646 80.52C355.294 80.984 355.046 81.448 354.902 81.912C354.758 82.36 354.686 82.896 354.686 83.52C354.686 84.496 354.918 85.368 355.382 86.136C355.862 86.904 356.486 87.512 357.254 87.96C358.038 88.408 358.886 88.632 359.798 88.632ZM359.798 69.888C360.614 69.072 361.23 68.464 361.646 68.064C362.078 67.648 362.366 67.288 362.51 66.984C362.67 66.664 362.75 66.256 362.75 65.76C362.75 64.88 362.438 64.176 361.814 63.648C361.206 63.104 360.534 62.832 359.798 62.832C358.998 62.832 358.31 63.12 357.734 63.696C357.158 64.272 356.87 64.96 356.87 65.76C356.87 66.256 356.95 66.672 357.11 67.008C357.286 67.328 357.582 67.696 357.998 68.112C358.43 68.528 359.03 69.12 359.798 69.888ZM396.668 93V59.4H409.028C410.836 59.4 412.468 59.848 413.924 60.744C415.396 61.64 416.556 62.848 417.404 64.368C418.268 65.872 418.7 67.552 418.7 69.408C418.7 70.976 418.404 72.408 417.812 73.704C417.22 75 416.404 76.104 415.364 77.016C414.324 77.928 413.124 78.584 411.764 78.984L419.876 93H414.116L406.244 79.44H401.636V93H396.668ZM401.636 74.448H408.5C409.444 74.448 410.308 74.208 411.092 73.728C411.892 73.248 412.524 72.608 412.988 71.808C413.468 71.008 413.708 70.104 413.708 69.096C413.708 68.088 413.468 67.184 412.988 66.384C412.524 65.568 411.892 64.928 411.092 64.464C410.308 63.984 409.444 63.744 408.5 63.744H401.636V74.448ZM434.315 93.624C432.107 93.624 430.091 93.056 428.267 91.92C426.459 90.784 425.011 89.264 423.923 87.36C422.851 85.44 422.315 83.32 422.315 81C422.315 79.24 422.627 77.6 423.251 76.08C423.875 74.544 424.731 73.2 425.819 72.048C426.923 70.88 428.203 69.968 429.659 69.312C431.115 68.656 432.667 68.328 434.315 68.328C436.155 68.328 437.843 68.712 439.379 69.48C440.915 70.232 442.227 71.28 443.315 72.624C444.403 73.952 445.203 75.488 445.715 77.232C446.227 78.96 446.379 80.8 446.171 82.752H427.667C427.875 83.856 428.275 84.856 428.867 85.752C429.475 86.632 430.243 87.328 431.171 87.84C432.115 88.352 433.163 88.616 434.315 88.632C435.531 88.632 436.635 88.328 437.627 87.72C438.635 87.112 439.459 86.272 440.099 85.2L445.163 86.376C444.203 88.504 442.755 90.248 440.819 91.608C438.883 92.952 436.715 93.624 434.315 93.624ZM427.499 78.936H441.131C440.971 77.784 440.563 76.744 439.907 75.816C439.267 74.872 438.459 74.128 437.483 73.584C436.523 73.024 435.467 72.744 434.315 72.744C433.179 72.744 432.123 73.016 431.147 73.56C430.187 74.104 429.387 74.848 428.747 75.792C428.123 76.72 427.707 77.768 427.499 78.936ZM458.054 93.456C456.79 93.376 455.558 93.12 454.358 92.688C453.158 92.256 452.102 91.672 451.19 90.936C450.294 90.184 449.622 89.304 449.174 88.296L453.422 86.472C453.63 86.904 453.99 87.328 454.502 87.744C455.03 88.16 455.646 88.504 456.35 88.776C457.054 89.032 457.79 89.16 458.558 89.16C459.31 89.16 460.006 89.056 460.646 88.848C461.302 88.624 461.838 88.288 462.254 87.84C462.67 87.392 462.878 86.856 462.878 86.232C462.878 85.528 462.638 84.984 462.158 84.6C461.694 84.2 461.11 83.896 460.406 83.688C459.702 83.48 458.998 83.28 458.294 83.088C456.726 82.736 455.286 82.256 453.974 81.648C452.678 81.024 451.646 80.232 450.878 79.272C450.11 78.296 449.726 77.104 449.726 75.696C449.726 74.16 450.134 72.832 450.95 71.712C451.782 70.576 452.878 69.704 454.238 69.096C455.598 68.488 457.046 68.184 458.582 68.184C460.502 68.184 462.262 68.592 463.862 69.408C465.462 70.224 466.686 71.344 467.534 72.768L463.574 75.12C463.334 74.64 462.974 74.208 462.494 73.824C462.014 73.44 461.47 73.136 460.862 72.912C460.254 72.672 459.622 72.536 458.966 72.504C458.15 72.472 457.39 72.568 456.686 72.792C455.998 73 455.446 73.336 455.03 73.8C454.614 74.264 454.406 74.856 454.406 75.576C454.406 76.28 454.654 76.808 455.15 77.16C455.646 77.496 456.27 77.768 457.022 77.976C457.79 78.184 458.574 78.416 459.374 78.672C460.798 79.12 462.134 79.672 463.382 80.328C464.63 80.968 465.638 81.76 466.406 82.704C467.174 83.648 467.542 84.8 467.51 86.16C467.51 87.664 467.054 88.984 466.142 90.12C465.246 91.256 464.078 92.12 462.638 92.712C461.198 93.304 459.67 93.552 458.054 93.456ZM482.081 93.624C479.873 93.624 477.857 93.056 476.033 91.92C474.225 90.784 472.777 89.264 471.689 87.36C470.617 85.44 470.081 83.32 470.081 81C470.081 79.24 470.393 77.6 471.017 76.08C471.641 74.544 472.497 73.2 473.585 72.048C474.689 70.88 475.969 69.968 477.425 69.312C478.881 68.656 480.433 68.328 482.081 68.328C483.921 68.328 485.609 68.712 487.145 69.48C488.681 70.232 489.993 71.28 491.081 72.624C492.169 73.952 492.969 75.488 493.481 77.232C493.993 78.96 494.145 80.8 493.937 82.752H475.433C475.641 83.856 476.041 84.856 476.633 85.752C477.241 86.632 478.009 87.328 478.937 87.84C479.881 88.352 480.929 88.616 482.081 88.632C483.297 88.632 484.401 88.328 485.393 87.72C486.401 87.112 487.225 86.272 487.865 85.2L492.929 86.376C491.969 88.504 490.521 90.248 488.585 91.608C486.649 92.952 484.481 93.624 482.081 93.624ZM475.265 78.936H488.897C488.737 77.784 488.329 76.744 487.673 75.816C487.033 74.872 486.225 74.128 485.249 73.584C484.289 73.024 483.233 72.744 482.081 72.744C480.945 72.744 479.889 73.016 478.913 73.56C477.953 74.104 477.153 74.848 476.513 75.792C475.889 76.72 475.473 77.768 475.265 78.936ZM510.583 73.992H505.543L505.519 93H500.527L500.551 73.992H496.735V69H500.551L500.527 61.464H505.519L505.543 69H510.583V73.992ZM526.411 93V59.4H537.979C539.787 59.4 541.419 59.848 542.875 60.744C544.347 61.64 545.515 62.848 546.379 64.368C547.259 65.888 547.699 67.568 547.699 69.408C547.699 71.28 547.251 72.976 546.355 74.496C545.475 76 544.299 77.2 542.827 78.096C541.355 78.992 539.739 79.44 537.979 79.44H531.403V93H526.411ZM531.403 74.448H537.475C538.435 74.448 539.307 74.208 540.091 73.728C540.891 73.248 541.523 72.608 541.987 71.808C542.467 71.008 542.707 70.104 542.707 69.096C542.707 68.088 542.467 67.184 541.987 66.384C541.523 65.568 540.891 64.928 540.091 64.464C539.307 63.984 538.435 63.744 537.475 63.744H531.403V74.448ZM569.535 69H574.527V93H569.511L569.319 89.52C568.615 90.752 567.663 91.744 566.463 92.496C565.279 93.248 563.871 93.624 562.239 93.624C560.463 93.624 558.799 93.296 557.247 92.64C555.711 91.968 554.351 91.04 553.167 89.856C551.999 88.672 551.079 87.312 550.407 85.776C549.751 84.224 549.423 82.56 549.423 80.784C549.423 79.072 549.743 77.464 550.383 75.96C551.023 74.44 551.911 73.112 553.047 71.976C554.183 70.84 555.495 69.952 556.983 69.312C558.487 68.656 560.095 68.328 561.807 68.328C563.551 68.328 565.087 68.728 566.415 69.528C567.759 70.312 568.863 71.32 569.727 72.552L569.535 69ZM562.359 88.8C563.799 88.8 565.039 88.44 566.079 87.72C567.135 87 567.927 86.032 568.455 84.816C568.999 83.6 569.231 82.256 569.151 80.784C569.055 79.376 568.679 78.096 568.023 76.944C567.383 75.792 566.527 74.88 565.455 74.208C564.383 73.52 563.167 73.176 561.807 73.176C560.383 73.176 559.095 73.536 557.943 74.256C556.807 74.976 555.927 75.944 555.303 77.16C554.679 78.376 554.407 79.728 554.487 81.216C554.583 82.608 554.999 83.88 555.735 85.032C556.487 86.184 557.439 87.104 558.591 87.792C559.759 88.464 561.015 88.8 562.359 88.8ZM587.711 93.456C586.447 93.376 585.215 93.12 584.015 92.688C582.815 92.256 581.759 91.672 580.847 90.936C579.951 90.184 579.279 89.304 578.831 88.296L583.079 86.472C583.287 86.904 583.647 87.328 584.159 87.744C584.687 88.16 585.303 88.504 586.007 88.776C586.711 89.032 587.447 89.16 588.215 89.16C588.967 89.16 589.663 89.056 590.303 88.848C590.959 88.624 591.495 88.288 591.911 87.84C592.327 87.392 592.535 86.856 592.535 86.232C592.535 85.528 592.295 84.984 591.815 84.6C591.351 84.2 590.767 83.896 590.063 83.688C589.359 83.48 588.655 83.28 587.951 83.088C586.383 82.736 584.943 82.256 583.631 81.648C582.335 81.024 581.303 80.232 580.535 79.272C579.767 78.296 579.383 77.104 579.383 75.696C579.383 74.16 579.791 72.832 580.607 71.712C581.439 70.576 582.535 69.704 583.895 69.096C585.255 68.488 586.703 68.184 588.239 68.184C590.159 68.184 591.919 68.592 593.519 69.408C595.119 70.224 596.343 71.344 597.191 72.768L593.231 75.12C592.991 74.64 592.631 74.208 592.151 73.824C591.671 73.44 591.127 73.136 590.519 72.912C589.911 72.672 589.279 72.536 588.623 72.504C587.807 72.472 587.047 72.568 586.343 72.792C585.655 73 585.103 73.336 584.687 73.8C584.271 74.264 584.063 74.856 584.063 75.576C584.063 76.28 584.311 76.808 584.807 77.16C585.303 77.496 585.927 77.768 586.679 77.976C587.447 78.184 588.231 78.416 589.031 78.672C590.455 79.12 591.791 79.672 593.039 80.328C594.287 80.968 595.295 81.76 596.063 82.704C596.831 83.648 597.199 84.8 597.167 86.16C597.167 87.664 596.711 88.984 595.799 90.12C594.903 91.256 593.735 92.12 592.295 92.712C590.855 93.304 589.327 93.552 587.711 93.456ZM608.945 93.456C607.681 93.376 606.449 93.12 605.249 92.688C604.049 92.256 602.993 91.672 602.081 90.936C601.185 90.184 600.513 89.304 600.065 88.296L604.313 86.472C604.521 86.904 604.881 87.328 605.393 87.744C605.921 88.16 606.537 88.504 607.241 88.776C607.945 89.032 608.681 89.16 609.449 89.16C610.201 89.16 610.897 89.056 611.537 88.848C612.193 88.624 612.729 88.288 613.145 87.84C613.561 87.392 613.769 86.856 613.769 86.232C613.769 85.528 613.529 84.984 613.049 84.6C612.585 84.2 612.001 83.896 611.297 83.688C610.593 83.48 609.889 83.28 609.185 83.088C607.617 82.736 606.177 82.256 604.865 81.648C603.569 81.024 602.537 80.232 601.769 79.272C601.001 78.296 600.617 77.104 600.617 75.696C600.617 74.16 601.025 72.832 601.841 71.712C602.673 70.576 603.769 69.704 605.129 69.096C606.489 68.488 607.937 68.184 609.473 68.184C611.393 68.184 613.153 68.592 614.753 69.408C616.353 70.224 617.577 71.344 618.425 72.768L614.465 75.12C614.225 74.64 613.865 74.208 613.385 73.824C612.905 73.44 612.361 73.136 611.753 72.912C611.145 72.672 610.513 72.536 609.857 72.504C609.041 72.472 608.281 72.568 607.577 72.792C606.889 73 606.337 73.336 605.921 73.8C605.505 74.264 605.297 74.856 605.297 75.576C605.297 76.28 605.545 76.808 606.041 77.16C606.537 77.496 607.161 77.768 607.913 77.976C608.681 78.184 609.465 78.416 610.265 78.672C611.689 79.12 613.025 79.672 614.273 80.328C615.521 80.968 616.529 81.76 617.297 82.704C618.065 83.648 618.433 84.8 618.401 86.16C618.401 87.664 617.945 88.984 617.033 90.12C616.137 91.256 614.969 92.12 613.529 92.712C612.089 93.304 610.561 93.552 608.945 93.456ZM633.886 93H628.918L620.878 69H625.773L631.438 85.848L637.054 69H642.094L647.71 85.848L653.35 69H658.246L650.23 93H645.214L639.55 76.032L633.886 93ZM671.268 93.624C669.06 93.624 667.044 93.056 665.22 91.92C663.412 90.784 661.964 89.264 660.876 87.36C659.804 85.44 659.268 83.32 659.268 81C659.268 79.24 659.58 77.6 660.204 76.08C660.828 74.544 661.684 73.2 662.772 72.048C663.876 70.88 665.156 69.968 666.612 69.312C668.068 68.656 669.62 68.328 671.268 68.328C673.476 68.328 675.484 68.896 677.292 70.032C679.116 71.168 680.564 72.696 681.636 74.616C682.724 76.536 683.268 78.664 683.268 81C683.268 82.744 682.956 84.376 682.332 85.896C681.708 87.416 680.844 88.76 679.74 89.928C678.652 91.08 677.38 91.984 675.924 92.64C674.484 93.296 672.932 93.624 671.268 93.624ZM671.268 88.632C672.596 88.632 673.788 88.28 674.844 87.576C675.9 86.872 676.732 85.944 677.34 84.792C677.964 83.624 678.276 82.36 678.276 81C678.276 79.608 677.956 78.328 677.316 77.16C676.692 75.992 675.852 75.064 674.796 74.376C673.74 73.672 672.564 73.32 671.268 73.32C669.956 73.32 668.764 73.672 667.692 74.376C666.636 75.08 665.796 76.016 665.172 77.184C664.564 78.352 664.26 79.624 664.26 81C664.26 82.424 664.58 83.712 665.22 84.864C665.86 86.016 666.708 86.936 667.764 87.624C668.836 88.296 670.004 88.632 671.268 88.632ZM701.33 74.016C700.914 73.76 700.458 73.56 699.962 73.416C699.482 73.256 698.954 73.176 698.378 73.176C697.13 73.176 696.042 73.504 695.114 74.16C694.186 74.816 693.458 75.704 692.93 76.824C692.418 77.944 692.162 79.184 692.162 80.544V93H687.146V69H692.138V72.24C692.97 71.04 693.978 70.096 695.162 69.408C696.362 68.704 697.698 68.352 699.17 68.352C699.714 68.352 700.226 68.376 700.706 68.424C701.202 68.472 701.674 68.568 702.122 68.712L701.33 74.016ZM722.81 57H727.802V93H722.81V89.472C722.026 90.72 721.002 91.728 719.738 92.496C718.474 93.248 716.994 93.624 715.298 93.624C713.554 93.624 711.922 93.296 710.402 92.64C708.882 91.984 707.538 91.08 706.37 89.928C705.218 88.76 704.314 87.416 703.658 85.896C703.002 84.376 702.674 82.744 702.674 81C702.674 79.256 703.002 77.624 703.658 76.104C704.314 74.568 705.218 73.224 706.37 72.072C707.538 70.904 708.882 69.992 710.402 69.336C711.922 68.68 713.554 68.352 715.298 68.352C716.994 68.352 718.474 68.736 719.738 69.504C721.002 70.256 722.026 71.248 722.81 72.48V57ZM715.346 88.8C716.754 88.8 717.986 88.456 719.042 87.768C720.098 87.064 720.914 86.12 721.49 84.936C722.082 83.752 722.378 82.44 722.378 81C722.378 79.544 722.082 78.224 721.49 77.04C720.898 75.856 720.074 74.92 719.018 74.232C717.978 73.528 716.754 73.176 715.346 73.176C713.954 73.176 712.682 73.528 711.53 74.232C710.394 74.936 709.482 75.88 708.794 77.064C708.122 78.248 707.786 79.56 707.786 81C707.786 82.456 708.13 83.776 708.818 84.96C709.522 86.128 710.442 87.064 711.578 87.768C712.73 88.456 713.986 88.8 715.346 88.8Z" fill="white"/>
</g>
</g>
<defs>
<linearGradient id="paint0_linear_103_2422" x1="152" y1="152" x2="-28.8664" y2="99.5595" gradientUnits="userSpaceOnUse">
<stop stop-color="#FF4D67"/>
<stop offset="1" stop-color="#FF8395"/>
</linearGradient>
</defs>
</svg>
