<svg width="1458" height="152" viewBox="0 0 1458 152" fill="none" xmlns="http://www.w3.org/2000/svg">
<g id="Elements/Marker Navigation">
<g id="Auto Layout Vertical">
<path d="M0 24C0 10.7452 10.7452 0 24 0H152V152H24C10.7452 152 0 141.255 0 128V24Z" fill="url(#paint0_linear_103_2387)"/>
<path id="00" d="M57.0493 100.897C54.2433 100.897 51.6903 100.253 49.3903 98.965C47.0903 97.654 45.1008 95.8485 43.4218 93.5485C41.7658 91.2485 40.4893 88.592 39.5923 85.579C38.6953 82.543 38.2468 79.3 38.2468 75.85C38.2468 72.4 38.6953 69.1685 39.5923 66.1555C40.4893 63.1195 41.7658 60.4515 43.4218 58.1515C45.1008 55.8515 47.0903 54.0575 49.3903 52.7695C51.6903 51.4585 54.2433 50.803 57.0493 50.803C59.8553 50.803 62.4083 51.4585 64.7083 52.7695C67.0083 54.0575 68.9748 55.8515 70.6078 58.1515C72.2638 60.4515 73.5403 63.1195 74.4373 66.1555C75.3573 69.1685 75.8173 72.4 75.8173 75.85C75.8173 79.3 75.3573 82.543 74.4373 85.579C73.5403 88.592 72.2638 91.2485 70.6078 93.5485C68.9748 95.8485 67.0083 97.654 64.7083 98.965C62.4083 100.253 59.8553 100.897 57.0493 100.897ZM57.0493 92.479C59.5103 92.479 61.5458 91.697 63.1558 90.133C64.7658 88.569 65.9618 86.522 66.7438 83.992C67.5258 81.462 67.9168 78.748 67.9168 75.85C67.9168 72.791 67.5028 70.008 66.6748 67.501C65.8468 64.971 64.6278 62.9585 63.0178 61.4635C61.4078 59.9685 59.4183 59.221 57.0493 59.221C55.1863 59.221 53.5648 59.681 52.1848 60.601C50.8278 61.498 49.7008 62.7285 48.8038 64.2925C47.9068 65.8565 47.2398 67.639 46.8028 69.64C46.3658 71.618 46.1473 73.688 46.1473 75.85C46.1473 78.725 46.5383 81.439 47.3203 83.992C48.1253 86.522 49.3328 88.569 50.9428 90.133C52.5758 91.697 54.6113 92.479 57.0493 92.479ZM81.6817 100L104.693 60.118H79.2667V51.7H114.457V60.118L91.3762 100H81.6817Z" fill="white"/>
</g>
<g id="Auto Layout Vertical_2">
<path d="M152 0H1434C1447.25 0 1458 10.7452 1458 24V128C1458 141.255 1447.25 152 1434 152H152V0Z" fill="#35383F"/>
<path id="Section" d="M217.952 93.624C215.68 93.624 213.544 93.176 211.544 92.28C209.544 91.368 207.784 90.12 206.264 88.536C204.76 86.936 203.576 85.08 202.712 82.968C201.864 80.856 201.44 78.6 201.44 76.2C201.44 73.8 201.864 71.544 202.712 69.432C203.576 67.32 204.76 65.472 206.264 63.888C207.784 62.288 209.544 61.04 211.544 60.144C213.544 59.232 215.68 58.776 217.952 58.776C220.672 58.776 223.176 59.408 225.464 60.672C227.752 61.936 229.648 63.616 231.152 65.712L226.712 68.088C225.672 66.776 224.384 65.728 222.848 64.944C221.312 64.16 219.68 63.768 217.952 63.768C216.352 63.768 214.856 64.096 213.464 64.752C212.072 65.408 210.848 66.304 209.792 67.44C208.736 68.576 207.912 69.896 207.32 71.4C206.728 72.904 206.432 74.504 206.432 76.2C206.432 77.912 206.728 79.52 207.32 81.024C207.912 82.512 208.736 83.832 209.792 84.984C210.864 86.12 212.096 87.016 213.488 87.672C214.88 88.312 216.368 88.632 217.952 88.632C219.712 88.632 221.352 88.24 222.872 87.456C224.408 86.656 225.688 85.6 226.712 84.288L231.152 86.712C229.648 88.808 227.752 90.488 225.464 91.752C223.176 93 220.672 93.624 217.952 93.624ZM249.877 74.016C249.461 73.76 249.005 73.56 248.509 73.416C248.029 73.256 247.501 73.176 246.924 73.176C245.677 73.176 244.589 73.504 243.661 74.16C242.733 74.816 242.005 75.704 241.477 76.824C240.965 77.944 240.709 79.184 240.709 80.544V93H235.693V69H240.685V72.24C241.517 71.04 242.525 70.096 243.709 69.408C244.909 68.704 246.245 68.352 247.717 68.352C248.261 68.352 248.773 68.376 249.253 68.424C249.749 68.472 250.221 68.568 250.669 68.712L249.877 74.016ZM263.221 93.624C261.013 93.624 258.997 93.056 257.173 91.92C255.365 90.784 253.917 89.264 252.829 87.36C251.757 85.44 251.221 83.32 251.221 81C251.221 79.24 251.533 77.6 252.157 76.08C252.781 74.544 253.637 73.2 254.725 72.048C255.829 70.88 257.109 69.968 258.565 69.312C260.021 68.656 261.573 68.328 263.221 68.328C265.061 68.328 266.749 68.712 268.285 69.48C269.821 70.232 271.133 71.28 272.221 72.624C273.309 73.952 274.109 75.488 274.621 77.232C275.133 78.96 275.285 80.8 275.077 82.752H256.573C256.781 83.856 257.181 84.856 257.773 85.752C258.381 86.632 259.149 87.328 260.077 87.84C261.021 88.352 262.069 88.616 263.221 88.632C264.437 88.632 265.541 88.328 266.533 87.72C267.541 87.112 268.365 86.272 269.005 85.2L274.069 86.376C273.109 88.504 271.661 90.248 269.725 91.608C267.789 92.952 265.621 93.624 263.221 93.624ZM256.405 78.936H270.037C269.877 77.784 269.469 76.744 268.813 75.816C268.173 74.872 267.365 74.128 266.389 73.584C265.429 73.024 264.373 72.744 263.221 72.744C262.085 72.744 261.029 73.016 260.053 73.56C259.093 74.104 258.293 74.848 257.653 75.792C257.029 76.72 256.613 77.768 256.405 78.936ZM297.988 69H302.98V93H297.964L297.772 89.52C297.068 90.752 296.116 91.744 294.916 92.496C293.732 93.248 292.324 93.624 290.692 93.624C288.916 93.624 287.252 93.296 285.7 92.64C284.164 91.968 282.804 91.04 281.62 89.856C280.452 88.672 279.532 87.312 278.86 85.776C278.204 84.224 277.876 82.56 277.876 80.784C277.876 79.072 278.196 77.464 278.836 75.96C279.476 74.44 280.364 73.112 281.5 71.976C282.636 70.84 283.948 69.952 285.436 69.312C286.94 68.656 288.548 68.328 290.26 68.328C292.004 68.328 293.54 68.728 294.868 69.528C296.212 70.312 297.316 71.32 298.18 72.552L297.988 69ZM290.812 88.8C292.252 88.8 293.492 88.44 294.532 87.72C295.588 87 296.38 86.032 296.908 84.816C297.452 83.6 297.684 82.256 297.604 80.784C297.508 79.376 297.132 78.096 296.476 76.944C295.836 75.792 294.98 74.88 293.908 74.208C292.836 73.52 291.62 73.176 290.26 73.176C288.836 73.176 287.548 73.536 286.396 74.256C285.26 74.976 284.38 75.944 283.756 77.16C283.132 78.376 282.86 79.728 282.94 81.216C283.036 82.608 283.452 83.88 284.188 85.032C284.94 86.184 285.892 87.104 287.044 87.792C288.212 88.464 289.468 88.8 290.812 88.8ZM321.396 73.992H316.356L316.332 93H311.34L311.364 73.992H307.548V69H311.364L311.34 61.464H316.332L316.356 69H321.396V73.992ZM335.549 93.624C333.341 93.624 331.325 93.056 329.501 91.92C327.693 90.784 326.245 89.264 325.157 87.36C324.085 85.44 323.549 83.32 323.549 81C323.549 79.24 323.861 77.6 324.485 76.08C325.109 74.544 325.965 73.2 327.053 72.048C328.157 70.88 329.437 69.968 330.893 69.312C332.349 68.656 333.901 68.328 335.549 68.328C337.389 68.328 339.077 68.712 340.613 69.48C342.149 70.232 343.461 71.28 344.549 72.624C345.637 73.952 346.437 75.488 346.949 77.232C347.461 78.96 347.613 80.8 347.405 82.752H328.901C329.109 83.856 329.509 84.856 330.101 85.752C330.709 86.632 331.477 87.328 332.405 87.84C333.349 88.352 334.397 88.616 335.549 88.632C336.765 88.632 337.869 88.328 338.861 87.72C339.869 87.112 340.693 86.272 341.333 85.2L346.397 86.376C345.437 88.504 343.989 90.248 342.053 91.608C340.117 92.952 337.949 93.624 335.549 93.624ZM328.733 78.936H342.365C342.205 77.784 341.797 76.744 341.141 75.816C340.501 74.872 339.693 74.128 338.717 73.584C337.757 73.024 336.701 72.744 335.549 72.744C334.413 72.744 333.357 73.016 332.381 73.56C331.421 74.104 330.621 74.848 329.981 75.792C329.357 76.72 328.941 77.768 328.733 78.936ZM350.42 95.688L351.908 87.576H356.9L353.732 95.688H350.42ZM387.504 93.624C384.816 93.624 382.472 92.968 380.472 91.656C378.488 90.344 376.944 88.584 375.84 86.376C374.752 84.152 374.208 81.688 374.208 78.984V59.4H379.2V78.984C379.2 80.744 379.52 82.36 380.16 83.832C380.816 85.288 381.76 86.456 382.992 87.336C384.24 88.2 385.744 88.632 387.504 88.632C389.312 88.632 390.832 88.2 392.064 87.336C393.296 86.456 394.224 85.288 394.848 83.832C395.488 82.36 395.808 80.744 395.808 78.984V59.4H400.8V78.984C400.8 81.016 400.488 82.92 399.864 84.696C399.24 86.456 398.344 88.008 397.176 89.352C396.008 90.696 394.608 91.744 392.976 92.496C391.344 93.248 389.52 93.624 387.504 93.624ZM411.544 105H406.552V69H411.544V72.528C412.344 71.296 413.368 70.296 414.616 69.528C415.864 68.76 417.336 68.376 419.032 68.376C420.776 68.376 422.408 68.704 423.928 69.36C425.464 70.016 426.808 70.928 427.96 72.096C429.112 73.248 430.016 74.584 430.672 76.104C431.328 77.624 431.656 79.256 431.656 81C431.656 82.744 431.328 84.384 430.672 85.92C430.016 87.456 429.112 88.808 427.96 89.976C426.808 91.128 425.464 92.032 423.928 92.688C422.408 93.344 420.776 93.672 419.032 93.672C417.336 93.672 415.864 93.288 414.616 92.52C413.368 91.736 412.344 90.736 411.544 89.52V105ZM418.984 73.2C417.592 73.2 416.368 73.552 415.312 74.256C414.256 74.96 413.432 75.904 412.84 77.088C412.248 78.256 411.952 79.56 411.952 81C411.952 82.44 412.248 83.752 412.84 84.936C413.432 86.12 414.256 87.064 415.312 87.768C416.368 88.472 417.592 88.824 418.984 88.824C420.36 88.824 421.624 88.48 422.776 87.792C423.928 87.088 424.848 86.144 425.536 84.96C426.224 83.776 426.568 82.456 426.568 81C426.568 79.576 426.224 78.272 425.536 77.088C424.864 75.904 423.952 74.96 422.8 74.256C421.648 73.552 420.376 73.2 418.984 73.2ZM436.137 93V57H441.105V93H436.137ZM457.706 93.624C455.498 93.624 453.482 93.056 451.658 91.92C449.85 90.784 448.402 89.264 447.314 87.36C446.242 85.44 445.706 83.32 445.706 81C445.706 79.24 446.018 77.6 446.642 76.08C447.266 74.544 448.122 73.2 449.21 72.048C450.314 70.88 451.594 69.968 453.05 69.312C454.506 68.656 456.058 68.328 457.706 68.328C459.914 68.328 461.922 68.896 463.73 70.032C465.554 71.168 467.002 72.696 468.074 74.616C469.162 76.536 469.706 78.664 469.706 81C469.706 82.744 469.394 84.376 468.77 85.896C468.146 87.416 467.282 88.76 466.178 89.928C465.09 91.08 463.818 91.984 462.362 92.64C460.922 93.296 459.37 93.624 457.706 93.624ZM457.706 88.632C459.034 88.632 460.226 88.28 461.282 87.576C462.338 86.872 463.17 85.944 463.778 84.792C464.402 83.624 464.714 82.36 464.714 81C464.714 79.608 464.394 78.328 463.754 77.16C463.13 75.992 462.29 75.064 461.234 74.376C460.178 73.672 459.002 73.32 457.706 73.32C456.394 73.32 455.202 73.672 454.13 74.376C453.074 75.08 452.234 76.016 451.61 77.184C451.002 78.352 450.698 79.624 450.698 81C450.698 82.424 451.018 83.712 451.658 84.864C452.298 86.016 453.146 86.936 454.202 87.624C455.274 88.296 456.442 88.632 457.706 88.632ZM492.472 69H497.464V93H492.448L492.256 89.52C491.552 90.752 490.6 91.744 489.4 92.496C488.216 93.248 486.808 93.624 485.176 93.624C483.4 93.624 481.736 93.296 480.184 92.64C478.648 91.968 477.288 91.04 476.104 89.856C474.936 88.672 474.016 87.312 473.344 85.776C472.688 84.224 472.36 82.56 472.36 80.784C472.36 79.072 472.68 77.464 473.32 75.96C473.96 74.44 474.848 73.112 475.984 71.976C477.12 70.84 478.432 69.952 479.92 69.312C481.424 68.656 483.032 68.328 484.744 68.328C486.488 68.328 488.024 68.728 489.352 69.528C490.696 70.312 491.8 71.32 492.664 72.552L492.472 69ZM485.296 88.8C486.736 88.8 487.976 88.44 489.016 87.72C490.072 87 490.864 86.032 491.392 84.816C491.936 83.6 492.168 82.256 492.088 80.784C491.992 79.376 491.616 78.096 490.96 76.944C490.32 75.792 489.464 74.88 488.392 74.208C487.32 73.52 486.104 73.176 484.744 73.176C483.32 73.176 482.032 73.536 480.88 74.256C479.744 74.976 478.864 75.944 478.24 77.16C477.616 78.376 477.344 79.728 477.424 81.216C477.52 82.608 477.936 83.88 478.672 85.032C479.424 86.184 480.376 87.104 481.528 87.792C482.696 88.464 483.952 88.8 485.296 88.8ZM521.107 57H526.099V93H521.107V89.472C520.323 90.72 519.299 91.728 518.035 92.496C516.771 93.248 515.291 93.624 513.595 93.624C511.851 93.624 510.219 93.296 508.699 92.64C507.179 91.984 505.835 91.08 504.667 89.928C503.515 88.76 502.611 87.416 501.955 85.896C501.299 84.376 500.971 82.744 500.971 81C500.971 79.256 501.299 77.624 501.955 76.104C502.611 74.568 503.515 73.224 504.667 72.072C505.835 70.904 507.179 69.992 508.699 69.336C510.219 68.68 511.851 68.352 513.595 68.352C515.291 68.352 516.771 68.736 518.035 69.504C519.299 70.256 520.323 71.248 521.107 72.48V57ZM513.643 88.8C515.051 88.8 516.283 88.456 517.339 87.768C518.395 87.064 519.211 86.12 519.787 84.936C520.379 83.752 520.675 82.44 520.675 81C520.675 79.544 520.379 78.224 519.787 77.04C519.195 75.856 518.371 74.92 517.315 74.232C516.275 73.528 515.051 73.176 513.643 73.176C512.251 73.176 510.979 73.528 509.827 74.232C508.691 74.936 507.779 75.88 507.091 77.064C506.419 78.248 506.083 79.56 506.083 81C506.083 82.456 506.427 83.776 507.115 84.96C507.819 86.128 508.739 87.064 509.875 87.768C511.027 88.456 512.283 88.8 513.643 88.8ZM530.889 95.688L532.377 87.576H537.369L534.201 95.688H530.889ZM554.677 93V59.4H566.245C568.053 59.4 569.685 59.848 571.141 60.744C572.613 61.64 573.781 62.848 574.645 64.368C575.525 65.888 575.965 67.568 575.965 69.408C575.965 71.28 575.517 72.976 574.621 74.496C573.741 76 572.565 77.2 571.093 78.096C569.621 78.992 568.005 79.44 566.245 79.44H559.669V93H554.677ZM559.669 74.448H565.741C566.701 74.448 567.573 74.208 568.357 73.728C569.157 73.248 569.789 72.608 570.253 71.808C570.733 71.008 570.973 70.104 570.973 69.096C570.973 68.088 570.733 67.184 570.253 66.384C569.789 65.568 569.157 64.928 568.357 64.464C567.573 63.984 566.701 63.744 565.741 63.744H559.669V74.448ZM589.424 93.624C587.216 93.624 585.2 93.056 583.376 91.92C581.568 90.784 580.12 89.264 579.032 87.36C577.96 85.44 577.424 83.32 577.424 81C577.424 79.24 577.736 77.6 578.36 76.08C578.984 74.544 579.84 73.2 580.928 72.048C582.032 70.88 583.312 69.968 584.768 69.312C586.224 68.656 587.776 68.328 589.424 68.328C591.632 68.328 593.64 68.896 595.448 70.032C597.272 71.168 598.72 72.696 599.792 74.616C600.88 76.536 601.424 78.664 601.424 81C601.424 82.744 601.112 84.376 600.488 85.896C599.864 87.416 599 88.76 597.896 89.928C596.808 91.08 595.536 91.984 594.08 92.64C592.64 93.296 591.088 93.624 589.424 93.624ZM589.424 88.632C590.752 88.632 591.944 88.28 593 87.576C594.056 86.872 594.888 85.944 595.496 84.792C596.12 83.624 596.432 82.36 596.432 81C596.432 79.608 596.112 78.328 595.472 77.16C594.848 75.992 594.008 75.064 592.952 74.376C591.896 73.672 590.72 73.32 589.424 73.32C588.112 73.32 586.92 73.672 585.848 74.376C584.792 75.08 583.952 76.016 583.328 77.184C582.72 78.352 582.416 79.624 582.416 81C582.416 82.424 582.736 83.712 583.376 84.864C584.016 86.016 584.864 86.936 585.92 87.624C586.992 88.296 588.16 88.632 589.424 88.632ZM613.164 93.456C611.9 93.376 610.668 93.12 609.468 92.688C608.268 92.256 607.212 91.672 606.3 90.936C605.404 90.184 604.732 89.304 604.284 88.296L608.532 86.472C608.74 86.904 609.1 87.328 609.612 87.744C610.14 88.16 610.756 88.504 611.46 88.776C612.164 89.032 612.9 89.16 613.668 89.16C614.42 89.16 615.116 89.056 615.756 88.848C616.412 88.624 616.948 88.288 617.364 87.84C617.78 87.392 617.988 86.856 617.988 86.232C617.988 85.528 617.748 84.984 617.268 84.6C616.804 84.2 616.22 83.896 615.516 83.688C614.812 83.48 614.108 83.28 613.404 83.088C611.836 82.736 610.396 82.256 609.084 81.648C607.788 81.024 606.756 80.232 605.988 79.272C605.22 78.296 604.836 77.104 604.836 75.696C604.836 74.16 605.244 72.832 606.06 71.712C606.892 70.576 607.988 69.704 609.348 69.096C610.708 68.488 612.156 68.184 613.692 68.184C615.612 68.184 617.372 68.592 618.972 69.408C620.572 70.224 621.796 71.344 622.644 72.768L618.684 75.12C618.444 74.64 618.084 74.208 617.604 73.824C617.124 73.44 616.58 73.136 615.972 72.912C615.364 72.672 614.732 72.536 614.076 72.504C613.26 72.472 612.5 72.568 611.796 72.792C611.108 73 610.556 73.336 610.14 73.8C609.724 74.264 609.516 74.856 609.516 75.576C609.516 76.28 609.764 76.808 610.26 77.16C610.756 77.496 611.38 77.768 612.132 77.976C612.9 78.184 613.684 78.416 614.484 78.672C615.908 79.12 617.244 79.672 618.492 80.328C619.74 80.968 620.748 81.76 621.516 82.704C622.284 83.648 622.652 84.8 622.62 86.16C622.62 87.664 622.164 88.984 621.252 90.12C620.356 91.256 619.188 92.12 617.748 92.712C616.308 93.304 614.78 93.552 613.164 93.456ZM639.63 73.992H634.59L634.566 93H629.574L629.598 73.992H625.782V69H629.598L629.574 61.464H634.566L634.59 69H639.63V73.992ZM651.039 93.456C649.775 93.376 648.543 93.12 647.343 92.688C646.143 92.256 645.087 91.672 644.175 90.936C643.279 90.184 642.607 89.304 642.159 88.296L646.407 86.472C646.615 86.904 646.975 87.328 647.487 87.744C648.015 88.16 648.631 88.504 649.335 88.776C650.039 89.032 650.775 89.16 651.543 89.16C652.295 89.16 652.991 89.056 653.631 88.848C654.287 88.624 654.823 88.288 655.239 87.84C655.655 87.392 655.863 86.856 655.863 86.232C655.863 85.528 655.623 84.984 655.143 84.6C654.679 84.2 654.095 83.896 653.391 83.688C652.687 83.48 651.983 83.28 651.279 83.088C649.711 82.736 648.271 82.256 646.959 81.648C645.663 81.024 644.631 80.232 643.863 79.272C643.095 78.296 642.711 77.104 642.711 75.696C642.711 74.16 643.119 72.832 643.935 71.712C644.767 70.576 645.863 69.704 647.223 69.096C648.583 68.488 650.031 68.184 651.567 68.184C653.487 68.184 655.247 68.592 656.847 69.408C658.447 70.224 659.671 71.344 660.519 72.768L656.559 75.12C656.319 74.64 655.959 74.208 655.479 73.824C654.999 73.44 654.455 73.136 653.847 72.912C653.239 72.672 652.607 72.536 651.951 72.504C651.135 72.472 650.375 72.568 649.671 72.792C648.983 73 648.431 73.336 648.015 73.8C647.599 74.264 647.391 74.856 647.391 75.576C647.391 76.28 647.639 76.808 648.135 77.16C648.631 77.496 649.255 77.768 650.007 77.976C650.775 78.184 651.559 78.416 652.359 78.672C653.783 79.12 655.119 79.672 656.367 80.328C657.615 80.968 658.623 81.76 659.391 82.704C660.159 83.648 660.527 84.8 660.495 86.16C660.495 87.664 660.039 88.984 659.127 90.12C658.231 91.256 657.063 92.12 655.623 92.712C654.183 93.304 652.655 93.552 651.039 93.456ZM676.364 93V59.4H687.932C689.74 59.4 691.372 59.848 692.828 60.744C694.3 61.64 695.468 62.848 696.332 64.368C697.212 65.888 697.652 67.568 697.652 69.408C697.652 71.28 697.204 72.976 696.308 74.496C695.428 76 694.252 77.2 692.78 78.096C691.308 78.992 689.692 79.44 687.932 79.44H681.356V93H676.364ZM681.356 74.448H687.428C688.388 74.448 689.26 74.208 690.044 73.728C690.844 73.248 691.476 72.608 691.94 71.808C692.42 71.008 692.66 70.104 692.66 69.096C692.66 68.088 692.42 67.184 691.94 66.384C691.476 65.568 690.844 64.928 690.044 64.464C689.26 63.984 688.388 63.744 687.428 63.744H681.356V74.448ZM724.346 80.448V93H719.354V80.544C719.354 79.184 719.066 77.944 718.49 76.824C717.93 75.704 717.178 74.816 716.234 74.16C715.29 73.504 714.242 73.176 713.09 73.176C711.842 73.176 710.778 73.504 709.898 74.16C709.018 74.816 708.338 75.704 707.858 76.824C707.394 77.944 707.162 79.184 707.162 80.544V93H702.146V57H707.138V71.808C707.81 70.512 708.69 69.616 709.778 69.12C710.882 68.608 712.146 68.352 713.57 68.352C715.73 68.352 717.61 68.904 719.21 70.008C720.81 71.112 722.058 72.584 722.954 74.424C723.85 76.248 724.314 78.256 724.346 80.448ZM738.909 93.624C736.701 93.624 734.685 93.056 732.861 91.92C731.053 90.784 729.605 89.264 728.517 87.36C727.445 85.44 726.909 83.32 726.909 81C726.909 79.24 727.221 77.6 727.845 76.08C728.469 74.544 729.325 73.2 730.413 72.048C731.517 70.88 732.797 69.968 734.253 69.312C735.709 68.656 737.261 68.328 738.909 68.328C741.117 68.328 743.125 68.896 744.933 70.032C746.757 71.168 748.205 72.696 749.277 74.616C750.365 76.536 750.909 78.664 750.909 81C750.909 82.744 750.597 84.376 749.973 85.896C749.349 87.416 748.485 88.76 747.381 89.928C746.293 91.08 745.021 91.984 743.565 92.64C742.125 93.296 740.573 93.624 738.909 93.624ZM738.909 88.632C740.237 88.632 741.429 88.28 742.485 87.576C743.541 86.872 744.373 85.944 744.981 84.792C745.605 83.624 745.917 82.36 745.917 81C745.917 79.608 745.597 78.328 744.957 77.16C744.333 75.992 743.493 75.064 742.437 74.376C741.381 73.672 740.205 73.32 738.909 73.32C737.597 73.32 736.405 73.672 735.333 74.376C734.277 75.08 733.437 76.016 732.813 77.184C732.205 78.352 731.901 79.624 731.901 81C731.901 82.424 732.221 83.712 732.861 84.864C733.501 86.016 734.349 86.936 735.405 87.624C736.477 88.296 737.645 88.632 738.909 88.632ZM767.411 73.992H762.371L762.347 93H757.355L757.379 73.992H753.563V69H757.379L757.355 61.464H762.347L762.371 69H767.411V73.992ZM781.565 93.624C779.357 93.624 777.341 93.056 775.517 91.92C773.709 90.784 772.261 89.264 771.173 87.36C770.101 85.44 769.565 83.32 769.565 81C769.565 79.24 769.877 77.6 770.501 76.08C771.125 74.544 771.981 73.2 773.069 72.048C774.173 70.88 775.453 69.968 776.909 69.312C778.365 68.656 779.917 68.328 781.565 68.328C783.773 68.328 785.781 68.896 787.589 70.032C789.413 71.168 790.861 72.696 791.933 74.616C793.021 76.536 793.565 78.664 793.565 81C793.565 82.744 793.253 84.376 792.629 85.896C792.005 87.416 791.141 88.76 790.037 89.928C788.949 91.08 787.677 91.984 786.221 92.64C784.781 93.296 783.229 93.624 781.565 93.624ZM781.565 88.632C782.893 88.632 784.085 88.28 785.141 87.576C786.197 86.872 787.029 85.944 787.637 84.792C788.261 83.624 788.573 82.36 788.573 81C788.573 79.608 788.253 78.328 787.613 77.16C786.989 75.992 786.149 75.064 785.093 74.376C784.037 73.672 782.861 73.32 781.565 73.32C780.253 73.32 779.061 73.672 777.989 74.376C776.933 75.08 776.093 76.016 775.469 77.184C774.861 78.352 774.557 79.624 774.557 81C774.557 82.424 774.877 83.712 775.517 84.864C776.157 86.016 777.005 86.936 778.061 87.624C779.133 88.296 780.301 88.632 781.565 88.632ZM811.616 59.4L801.896 95.688H796.904L806.624 59.4H811.616ZM826.219 93L814.027 59.4H819.331L829.363 87.072L839.419 59.4H844.723L832.507 93H826.219ZM846.193 69H851.185V93H846.193V69ZM848.713 65.04C847.961 65.04 847.329 64.792 846.817 64.296C846.305 63.8 846.049 63.176 846.049 62.424C846.049 61.688 846.305 61.072 846.817 60.576C847.329 60.064 847.961 59.808 848.713 59.808C849.449 59.808 850.073 60.064 850.585 60.576C851.097 61.072 851.353 61.688 851.353 62.424C851.353 63.176 851.097 63.8 850.585 64.296C850.073 64.792 849.449 65.04 848.713 65.04ZM877.451 57H882.443V93H877.451V89.472C876.667 90.72 875.643 91.728 874.379 92.496C873.115 93.248 871.635 93.624 869.939 93.624C868.195 93.624 866.563 93.296 865.043 92.64C863.523 91.984 862.179 91.08 861.011 89.928C859.859 88.76 858.955 87.416 858.299 85.896C857.643 84.376 857.315 82.744 857.315 81C857.315 79.256 857.643 77.624 858.299 76.104C858.955 74.568 859.859 73.224 861.011 72.072C862.179 70.904 863.523 69.992 865.043 69.336C866.563 68.68 868.195 68.352 869.939 68.352C871.635 68.352 873.115 68.736 874.379 69.504C875.643 70.256 876.667 71.248 877.451 72.48V57ZM869.987 88.8C871.395 88.8 872.627 88.456 873.683 87.768C874.739 87.064 875.555 86.12 876.131 84.936C876.723 83.752 877.019 82.44 877.019 81C877.019 79.544 876.723 78.224 876.131 77.04C875.539 75.856 874.715 74.92 873.659 74.232C872.619 73.528 871.395 73.176 869.987 73.176C868.595 73.176 867.323 73.528 866.171 74.232C865.035 74.936 864.123 75.88 863.435 77.064C862.763 78.248 862.427 79.56 862.427 81C862.427 82.456 862.771 83.776 863.459 84.96C864.163 86.128 865.083 87.064 866.219 87.768C867.371 88.456 868.627 88.8 869.987 88.8ZM898.753 93.624C896.545 93.624 894.529 93.056 892.705 91.92C890.897 90.784 889.449 89.264 888.361 87.36C887.289 85.44 886.753 83.32 886.753 81C886.753 79.24 887.065 77.6 887.689 76.08C888.313 74.544 889.169 73.2 890.257 72.048C891.361 70.88 892.641 69.968 894.097 69.312C895.553 68.656 897.105 68.328 898.753 68.328C900.593 68.328 902.281 68.712 903.817 69.48C905.353 70.232 906.665 71.28 907.753 72.624C908.841 73.952 909.641 75.488 910.153 77.232C910.665 78.96 910.817 80.8 910.609 82.752H892.105C892.313 83.856 892.713 84.856 893.305 85.752C893.913 86.632 894.681 87.328 895.609 87.84C896.553 88.352 897.601 88.616 898.753 88.632C899.969 88.632 901.073 88.328 902.065 87.72C903.073 87.112 903.897 86.272 904.537 85.2L909.601 86.376C908.641 88.504 907.193 90.248 905.257 91.608C903.321 92.952 901.153 93.624 898.753 93.624ZM891.937 78.936H905.569C905.409 77.784 905.001 76.744 904.345 75.816C903.705 74.872 902.897 74.128 901.921 73.584C900.961 73.024 899.905 72.744 898.753 72.744C897.617 72.744 896.561 73.016 895.585 73.56C894.625 74.104 893.825 74.848 893.185 75.792C892.561 76.72 892.145 77.768 891.937 78.936ZM925.143 93.624C922.935 93.624 920.919 93.056 919.095 91.92C917.287 90.784 915.839 89.264 914.751 87.36C913.679 85.44 913.143 83.32 913.143 81C913.143 79.24 913.455 77.6 914.079 76.08C914.703 74.544 915.559 73.2 916.647 72.048C917.751 70.88 919.031 69.968 920.487 69.312C921.943 68.656 923.495 68.328 925.143 68.328C927.351 68.328 929.359 68.896 931.167 70.032C932.991 71.168 934.439 72.696 935.511 74.616C936.599 76.536 937.143 78.664 937.143 81C937.143 82.744 936.831 84.376 936.207 85.896C935.583 87.416 934.719 88.76 933.615 89.928C932.527 91.08 931.255 91.984 929.799 92.64C928.359 93.296 926.807 93.624 925.143 93.624ZM925.143 88.632C926.471 88.632 927.663 88.28 928.719 87.576C929.775 86.872 930.607 85.944 931.215 84.792C931.839 83.624 932.151 82.36 932.151 81C932.151 79.608 931.831 78.328 931.191 77.16C930.567 75.992 929.727 75.064 928.671 74.376C927.615 73.672 926.439 73.32 925.143 73.32C923.831 73.32 922.639 73.672 921.567 74.376C920.511 75.08 919.671 76.016 919.047 77.184C918.439 78.352 918.135 79.624 918.135 81C918.135 82.424 918.455 83.712 919.095 84.864C919.735 86.016 920.583 86.936 921.639 87.624C922.711 88.296 923.879 88.632 925.143 88.632ZM940.014 95.688L941.502 87.576H946.494L943.326 95.688H940.014ZM972.97 93.624C971.018 93.624 969.274 93.152 967.738 92.208C966.218 91.264 965.018 90.024 964.138 88.488C963.274 86.936 962.842 85.264 962.842 83.472C962.842 82.448 962.938 81.552 963.13 80.784C963.338 80.016 963.682 79.264 964.162 78.528C964.658 77.792 965.33 76.968 966.178 76.056C967.042 75.144 968.13 74.032 969.442 72.72C968.706 71.968 968.09 71.312 967.594 70.752C967.098 70.192 966.706 69.672 966.418 69.192C966.13 68.696 965.922 68.184 965.794 67.656C965.682 67.128 965.626 66.528 965.626 65.856C965.626 64.448 965.962 63.192 966.634 62.088C967.306 60.968 968.202 60.088 969.322 59.448C970.442 58.792 971.658 58.464 972.97 58.464C974.314 58.464 975.546 58.8 976.666 59.472C977.786 60.128 978.674 61.016 979.33 62.136C980.002 63.24 980.338 64.48 980.338 65.856C980.338 66.544 980.274 67.16 980.146 67.704C980.018 68.232 979.802 68.744 979.498 69.24C979.21 69.736 978.818 70.264 978.322 70.824C977.826 71.368 977.218 72 976.498 72.72L983.746 79.968L989.53 74.184V81.24L987.25 83.52L993.226 89.472L989.698 93L983.746 87.072C982.418 88.4 981.29 89.488 980.362 90.336C979.45 91.184 978.626 91.848 977.89 92.328C977.154 92.808 976.402 93.144 975.634 93.336C974.882 93.528 973.994 93.624 972.97 93.624ZM972.97 88.632C973.61 88.632 974.154 88.56 974.602 88.416C975.066 88.256 975.538 87.992 976.018 87.624C976.498 87.24 977.058 86.72 977.698 86.064C978.354 85.392 979.194 84.536 980.218 83.496L972.97 76.248C971.914 77.304 971.05 78.168 970.378 78.84C969.706 79.496 969.186 80.056 968.818 80.52C968.466 80.984 968.218 81.448 968.074 81.912C967.93 82.36 967.858 82.896 967.858 83.52C967.858 84.496 968.09 85.368 968.554 86.136C969.034 86.904 969.658 87.512 970.426 87.96C971.21 88.408 972.058 88.632 972.97 88.632ZM972.97 69.888C973.786 69.072 974.402 68.464 974.818 68.064C975.25 67.648 975.538 67.288 975.682 66.984C975.842 66.664 975.922 66.256 975.922 65.76C975.922 64.88 975.61 64.176 974.986 63.648C974.378 63.104 973.706 62.832 972.97 62.832C972.17 62.832 971.482 63.12 970.906 63.696C970.33 64.272 970.042 64.96 970.042 65.76C970.042 66.256 970.122 66.672 970.282 67.008C970.458 67.328 970.754 67.696 971.17 68.112C971.602 68.528 972.202 69.12 972.97 69.888ZM1024.65 93.624C1022.31 93.624 1020.14 93.176 1018.12 92.28C1016.12 91.368 1014.37 90.112 1012.86 88.512C1011.38 86.896 1010.21 85.032 1009.36 82.92C1008.53 80.808 1008.11 78.56 1008.11 76.176C1008.11 73.664 1008.56 71.352 1009.46 69.24C1010.35 67.128 1011.58 65.296 1013.13 63.744C1014.68 62.176 1016.45 60.96 1018.43 60.096C1020.43 59.232 1022.53 58.8 1024.72 58.8C1027.2 58.8 1029.58 59.376 1031.87 60.528C1034.16 61.68 1036.15 63.408 1037.85 65.712L1033.38 68.136C1032.23 66.696 1030.89 65.608 1029.35 64.872C1027.83 64.136 1026.27 63.768 1024.67 63.768C1023.12 63.768 1021.65 64.088 1020.26 64.728C1018.86 65.352 1017.63 66.232 1016.56 67.368C1015.49 68.488 1014.64 69.808 1014.02 71.328C1013.41 72.832 1013.1 74.472 1013.1 76.248C1013.1 77.96 1013.4 79.568 1013.99 81.072C1014.6 82.576 1015.43 83.896 1016.49 85.032C1017.56 86.152 1018.79 87.032 1020.18 87.672C1021.59 88.312 1023.1 88.632 1024.7 88.632C1025.88 88.632 1027.02 88.44 1028.1 88.056C1029.19 87.672 1030.2 87.128 1031.13 86.424C1032.07 85.704 1032.9 84.848 1033.6 83.856C1034.3 82.864 1034.86 81.76 1035.28 80.544H1028.15V76.128H1041.14C1041.17 78.528 1040.75 80.784 1039.89 82.896C1039.04 85.008 1037.86 86.872 1036.34 88.488C1034.83 90.088 1033.08 91.344 1031.08 92.256C1029.08 93.168 1026.94 93.624 1024.65 93.624ZM1055.41 93.624C1053.2 93.624 1051.18 93.056 1049.36 91.92C1047.55 90.784 1046.1 89.264 1045.02 87.36C1043.94 85.44 1043.41 83.32 1043.41 81C1043.41 79.24 1043.72 77.6 1044.34 76.08C1044.97 74.544 1045.82 73.2 1046.91 72.048C1048.02 70.88 1049.3 69.968 1050.75 69.312C1052.21 68.656 1053.76 68.328 1055.41 68.328C1057.62 68.328 1059.62 68.896 1061.43 70.032C1063.26 71.168 1064.7 72.696 1065.78 74.616C1066.86 76.536 1067.41 78.664 1067.41 81C1067.41 82.744 1067.1 84.376 1066.47 85.896C1065.85 87.416 1064.98 88.76 1063.88 89.928C1062.79 91.08 1061.52 91.984 1060.06 92.64C1058.62 93.296 1057.07 93.624 1055.41 93.624ZM1055.41 88.632C1056.74 88.632 1057.93 88.28 1058.98 87.576C1060.04 86.872 1060.87 85.944 1061.48 84.792C1062.1 83.624 1062.42 82.36 1062.42 81C1062.42 79.608 1062.1 78.328 1061.46 77.16C1060.83 75.992 1059.99 75.064 1058.94 74.376C1057.88 73.672 1056.7 73.32 1055.41 73.32C1054.1 73.32 1052.9 73.672 1051.83 74.376C1050.78 75.08 1049.94 76.016 1049.31 77.184C1048.7 78.352 1048.4 79.624 1048.4 81C1048.4 82.424 1048.72 83.712 1049.36 84.864C1050 86.016 1050.85 86.936 1051.9 87.624C1052.98 88.296 1054.14 88.632 1055.41 88.632ZM1083.24 93V59.4H1088.23V88.008H1102.7V93H1083.24ZM1107.99 69H1112.98V93H1107.99V69ZM1110.51 65.04C1109.76 65.04 1109.13 64.792 1108.61 64.296C1108.1 63.8 1107.85 63.176 1107.85 62.424C1107.85 61.688 1108.1 61.072 1108.61 60.576C1109.13 60.064 1109.76 59.808 1110.51 59.808C1111.25 59.808 1111.87 60.064 1112.38 60.576C1112.89 61.072 1113.15 61.688 1113.15 62.424C1113.15 63.176 1112.89 63.8 1112.38 64.296C1111.87 64.792 1111.25 65.04 1110.51 65.04ZM1134.28 93H1127.87L1119.11 68.952H1124.44L1131.06 87.24L1137.71 68.952H1143.02L1134.28 93ZM1156 93.624C1153.79 93.624 1151.78 93.056 1149.95 91.92C1148.15 90.784 1146.7 89.264 1145.61 87.36C1144.54 85.44 1144 83.32 1144 81C1144 79.24 1144.31 77.6 1144.94 76.08C1145.56 74.544 1146.42 73.2 1147.51 72.048C1148.61 70.88 1149.89 69.968 1151.35 69.312C1152.8 68.656 1154.35 68.328 1156 68.328C1157.84 68.328 1159.53 68.712 1161.07 69.48C1162.6 70.232 1163.91 71.28 1165 72.624C1166.09 73.952 1166.89 75.488 1167.4 77.232C1167.91 78.96 1168.07 80.8 1167.86 82.752H1149.35C1149.56 83.856 1149.96 84.856 1150.55 85.752C1151.16 86.632 1151.93 87.328 1152.86 87.84C1153.8 88.352 1154.85 88.616 1156 88.632C1157.22 88.632 1158.32 88.328 1159.31 87.72C1160.32 87.112 1161.15 86.272 1161.79 85.2L1166.85 86.376C1165.89 88.504 1164.44 90.248 1162.51 91.608C1160.57 92.952 1158.4 93.624 1156 93.624ZM1149.19 78.936H1162.82C1162.66 77.784 1162.25 76.744 1161.59 75.816C1160.95 74.872 1160.15 74.128 1159.17 73.584C1158.21 73.024 1157.15 72.744 1156 72.744C1154.87 72.744 1153.81 73.016 1152.83 73.56C1151.87 74.104 1151.07 74.848 1150.43 75.792C1149.81 76.72 1149.39 77.768 1149.19 78.936ZM1195.81 93.624C1193.97 93.624 1192.2 93.336 1190.51 92.76C1188.81 92.184 1187.33 91.36 1186.07 90.288C1184.8 89.2 1183.9 87.912 1183.35 86.424L1188.03 84.672C1188.31 85.44 1188.83 86.128 1189.59 86.736C1190.38 87.328 1191.31 87.792 1192.38 88.128C1193.47 88.464 1194.61 88.632 1195.81 88.632C1197.09 88.632 1198.29 88.424 1199.41 88.008C1200.55 87.592 1201.46 87.016 1202.15 86.28C1202.85 85.544 1203.2 84.68 1203.2 83.688C1203.2 82.664 1202.83 81.824 1202.1 81.168C1201.38 80.512 1200.45 79.992 1199.31 79.608C1198.19 79.224 1197.03 78.936 1195.81 78.744C1193.46 78.36 1191.35 77.8 1189.47 77.064C1187.62 76.328 1186.15 75.296 1185.06 73.968C1183.99 72.64 1183.45 70.912 1183.45 68.784C1183.45 66.784 1184.02 65.04 1185.15 63.552C1186.31 62.064 1187.82 60.912 1189.69 60.096C1191.58 59.264 1193.62 58.848 1195.81 58.848C1197.62 58.848 1199.36 59.136 1201.04 59.712C1202.74 60.272 1204.23 61.096 1205.51 62.184C1206.8 63.256 1207.73 64.56 1208.29 66.096L1203.56 67.8C1203.29 67.016 1202.77 66.336 1202 65.76C1201.23 65.168 1200.31 64.704 1199.22 64.368C1198.15 64.032 1197.01 63.864 1195.81 63.864C1194.53 63.848 1193.33 64.056 1192.21 64.488C1191.11 64.904 1190.2 65.48 1189.5 66.216C1188.79 66.952 1188.44 67.808 1188.44 68.784C1188.44 69.984 1188.77 70.896 1189.43 71.52C1190.08 72.144 1190.96 72.608 1192.07 72.912C1193.19 73.2 1194.43 73.464 1195.81 73.704C1198.02 74.056 1200.06 74.64 1201.93 75.456C1203.82 76.272 1205.33 77.36 1206.47 78.72C1207.62 80.064 1208.19 81.72 1208.19 83.688C1208.19 85.672 1207.62 87.416 1206.47 88.92C1205.33 90.408 1203.82 91.568 1201.93 92.4C1200.06 93.216 1198.02 93.624 1195.81 93.624ZM1225.9 73.992H1220.86L1220.83 93H1215.84L1215.86 73.992H1212.05V69H1215.86L1215.84 61.464H1220.83L1220.86 69H1225.9V73.992ZM1244.38 74.016C1243.96 73.76 1243.5 73.56 1243.01 73.416C1242.53 73.256 1242 73.176 1241.42 73.176C1240.18 73.176 1239.09 73.504 1238.16 74.16C1237.23 74.816 1236.5 75.704 1235.98 76.824C1235.46 77.944 1235.21 79.184 1235.21 80.544V93H1230.19V69H1235.18V72.24C1236.02 71.04 1237.02 70.096 1238.21 69.408C1239.41 68.704 1240.74 68.352 1242.22 68.352C1242.76 68.352 1243.27 68.376 1243.75 68.424C1244.25 68.472 1244.72 68.568 1245.17 68.712L1244.38 74.016ZM1257.72 93.624C1255.51 93.624 1253.5 93.056 1251.67 91.92C1249.87 90.784 1248.42 89.264 1247.33 87.36C1246.26 85.44 1245.72 83.32 1245.72 81C1245.72 79.24 1246.03 77.6 1246.66 76.08C1247.28 74.544 1248.14 73.2 1249.23 72.048C1250.33 70.88 1251.61 69.968 1253.07 69.312C1254.52 68.656 1256.07 68.328 1257.72 68.328C1259.56 68.328 1261.25 68.712 1262.79 69.48C1264.32 70.232 1265.63 71.28 1266.72 72.624C1267.81 73.952 1268.61 75.488 1269.12 77.232C1269.63 78.96 1269.79 80.8 1269.58 82.752H1251.07C1251.28 83.856 1251.68 84.856 1252.27 85.752C1252.88 86.632 1253.65 87.328 1254.58 87.84C1255.52 88.352 1256.57 88.616 1257.72 88.632C1258.94 88.632 1260.04 88.328 1261.03 87.72C1262.04 87.112 1262.87 86.272 1263.51 85.2L1268.57 86.376C1267.61 88.504 1266.16 90.248 1264.23 91.608C1262.29 92.952 1260.12 93.624 1257.72 93.624ZM1250.91 78.936H1264.54C1264.38 77.784 1263.97 76.744 1263.31 75.816C1262.67 74.872 1261.87 74.128 1260.89 73.584C1259.93 73.024 1258.87 72.744 1257.72 72.744C1256.59 72.744 1255.53 73.016 1254.55 73.56C1253.59 74.104 1252.79 74.848 1252.15 75.792C1251.53 76.72 1251.11 77.768 1250.91 78.936ZM1292.49 69H1297.48V93H1292.46L1292.27 89.52C1291.57 90.752 1290.62 91.744 1289.42 92.496C1288.23 93.248 1286.82 93.624 1285.19 93.624C1283.42 93.624 1281.75 93.296 1280.2 92.64C1278.66 91.968 1277.3 91.04 1276.12 89.856C1274.95 88.672 1274.03 87.312 1273.36 85.776C1272.7 84.224 1272.38 82.56 1272.38 80.784C1272.38 79.072 1272.7 77.464 1273.34 75.96C1273.98 74.44 1274.86 73.112 1276 71.976C1277.14 70.84 1278.45 69.952 1279.94 69.312C1281.44 68.656 1283.05 68.328 1284.76 68.328C1286.5 68.328 1288.04 68.728 1289.37 69.528C1290.71 70.312 1291.82 71.32 1292.68 72.552L1292.49 69ZM1285.31 88.8C1286.75 88.8 1287.99 88.44 1289.03 87.72C1290.09 87 1290.88 86.032 1291.41 84.816C1291.95 83.6 1292.18 82.256 1292.1 80.784C1292.01 79.376 1291.63 78.096 1290.98 76.944C1290.34 75.792 1289.48 74.88 1288.41 74.208C1287.34 73.52 1286.12 73.176 1284.76 73.176C1283.34 73.176 1282.05 73.536 1280.9 74.256C1279.76 74.976 1278.88 75.944 1278.26 77.16C1277.63 78.376 1277.36 79.728 1277.44 81.216C1277.54 82.608 1277.95 83.88 1278.69 85.032C1279.44 86.184 1280.39 87.104 1281.54 87.792C1282.71 88.464 1283.97 88.8 1285.31 88.8ZM1302.43 93V69H1307.42V71.904C1308.19 70.96 1309 70.192 1309.85 69.6C1310.71 68.992 1311.74 68.688 1312.92 68.688C1314.68 68.688 1316.24 69.088 1317.6 69.888C1318.98 70.672 1320.13 71.768 1321.06 73.176C1321.98 71.752 1323.14 70.648 1324.51 69.864C1325.9 69.08 1327.46 68.688 1329.17 68.688C1331.23 68.688 1333.05 69.208 1334.62 70.248C1336.18 71.288 1337.42 72.672 1338.31 74.4C1339.21 76.112 1339.66 78 1339.66 80.064V93H1334.66V80.064C1334.66 78.88 1334.43 77.808 1333.97 76.848C1333.52 75.888 1332.89 75.12 1332.07 74.544C1331.26 73.968 1330.29 73.68 1329.17 73.68C1328.08 73.68 1327.1 73.968 1326.24 74.544C1325.39 75.12 1324.73 75.888 1324.25 76.848C1323.78 77.808 1323.55 78.88 1323.55 80.064V93H1318.56V80.064C1318.56 78.88 1318.32 77.808 1317.84 76.848C1317.36 75.888 1316.7 75.12 1315.85 74.544C1315 73.968 1314.02 73.68 1312.92 73.68C1311.86 73.68 1310.92 73.984 1310.09 74.592C1309.27 75.2 1308.62 76 1308.14 76.992C1307.66 77.984 1307.42 79.072 1307.42 80.256V93H1302.43ZM1344.61 69H1349.61V93H1344.61V69ZM1347.13 65.04C1346.38 65.04 1345.75 64.792 1345.24 64.296C1344.73 63.8 1344.47 63.176 1344.47 62.424C1344.47 61.688 1344.73 61.072 1345.24 60.576C1345.75 60.064 1346.38 59.808 1347.13 59.808C1347.87 59.808 1348.49 60.064 1349.01 60.576C1349.52 61.072 1349.77 61.688 1349.77 62.424C1349.77 63.176 1349.52 63.8 1349.01 64.296C1348.49 64.792 1347.87 65.04 1347.13 65.04ZM1379.26 80.424V93H1374.27V80.52C1374.27 79.16 1373.98 77.928 1373.41 76.824C1372.85 75.704 1372.07 74.816 1371.08 74.16C1370.1 73.488 1368.99 73.152 1367.74 73.152C1366.49 73.152 1365.4 73.488 1364.45 74.16C1363.53 74.816 1362.8 75.704 1362.27 76.824C1361.76 77.928 1361.5 79.16 1361.5 80.52V93H1356.51V69H1361.5V72.24C1362.33 71.024 1363.34 70.072 1364.53 69.384C1365.71 68.68 1367.05 68.328 1368.53 68.328C1370.69 68.328 1372.57 68.88 1374.15 69.984C1375.75 71.088 1377 72.552 1377.89 74.376C1378.79 76.2 1379.25 78.216 1379.26 80.424ZM1402.02 69H1407.01V93.624C1407.01 95.272 1406.66 96.792 1405.96 98.184C1405.27 99.576 1404.33 100.776 1403.15 101.784C1401.96 102.808 1400.6 103.6 1399.07 104.16C1397.55 104.72 1395.96 105 1394.29 105C1392.61 105 1391 104.64 1389.44 103.92C1387.89 103.216 1386.52 102.256 1385.34 101.04C1384.17 99.824 1383.3 98.448 1382.72 96.912L1387.31 94.848C1387.63 95.84 1388.14 96.72 1388.84 97.488C1389.56 98.256 1390.4 98.864 1391.34 99.312C1392.3 99.76 1393.28 99.984 1394.29 99.984C1395.28 99.984 1396.24 99.824 1397.15 99.504C1398.08 99.2 1398.9 98.768 1399.62 98.208C1400.36 97.648 1400.94 96.976 1401.37 96.192C1401.8 95.408 1402.02 94.552 1402.02 93.624V89.568C1401.24 90.784 1400.23 91.768 1399 92.52C1397.76 93.256 1396.33 93.624 1394.7 93.624C1393 93.624 1391.4 93.296 1389.9 92.64C1388.4 91.984 1387.08 91.08 1385.94 89.928C1384.8 88.76 1383.92 87.416 1383.28 85.896C1382.64 84.376 1382.32 82.744 1382.32 81C1382.32 79.256 1382.64 77.624 1383.28 76.104C1383.92 74.568 1384.8 73.224 1385.94 72.072C1387.08 70.904 1388.4 69.992 1389.9 69.336C1391.4 68.68 1393 68.352 1394.7 68.352C1396.33 68.352 1397.76 68.728 1399 69.48C1400.23 70.216 1401.24 71.2 1402.02 72.432V69ZM1394.75 88.8C1396.14 88.8 1397.36 88.448 1398.4 87.744C1399.44 87.024 1400.24 86.072 1400.82 84.888C1401.4 83.704 1401.68 82.408 1401.68 81C1401.68 79.56 1401.39 78.256 1400.8 77.088C1400.22 75.904 1399.41 74.96 1398.37 74.256C1397.33 73.536 1396.12 73.176 1394.75 73.176C1393.4 73.176 1392.17 73.528 1391.05 74.232C1389.95 74.936 1389.07 75.88 1388.41 77.064C1387.76 78.248 1387.43 79.56 1387.43 81C1387.43 82.44 1387.76 83.752 1388.41 84.936C1389.08 86.12 1389.97 87.064 1391.08 87.768C1392.2 88.456 1393.42 88.8 1394.75 88.8Z" fill="white"/>
</g>
</g>
<defs>
<linearGradient id="paint0_linear_103_2387" x1="152" y1="152" x2="-28.8664" y2="99.5595" gradientUnits="userSpaceOnUse">
<stop stop-color="#FF4D67"/>
<stop offset="1" stop-color="#FF8395"/>
</linearGradient>
</defs>
</svg>
