<svg width="820" height="152" viewBox="0 0 820 152" fill="none" xmlns="http://www.w3.org/2000/svg">
<g id="Elements/Marker Navigation">
<g id="Auto Layout Vertical">
<path d="M0 24C0 10.7452 10.7452 0 24 0H152V152H24C10.7452 152 0 141.255 0 128V24Z" fill="url(#paint0_linear_103_2382)"/>
<path id="00" d="M57.2177 100.897C54.4117 100.897 51.8587 100.253 49.5587 98.965C47.2587 97.654 45.2692 95.8485 43.5902 93.5485C41.9342 91.2485 40.6577 88.592 39.7607 85.579C38.8637 82.543 38.4152 79.3 38.4152 75.85C38.4152 72.4 38.8637 69.1685 39.7607 66.1555C40.6577 63.1195 41.9342 60.4515 43.5902 58.1515C45.2692 55.8515 47.2587 54.0575 49.5587 52.7695C51.8587 51.4585 54.4117 50.803 57.2177 50.803C60.0237 50.803 62.5767 51.4585 64.8767 52.7695C67.1767 54.0575 69.1432 55.8515 70.7762 58.1515C72.4322 60.4515 73.7087 63.1195 74.6057 66.1555C75.5257 69.1685 75.9857 72.4 75.9857 75.85C75.9857 79.3 75.5257 82.543 74.6057 85.579C73.7087 88.592 72.4322 91.2485 70.7762 93.5485C69.1432 95.8485 67.1767 97.654 64.8767 98.965C62.5767 100.253 60.0237 100.897 57.2177 100.897ZM57.2177 92.479C59.6787 92.479 61.7142 91.697 63.3242 90.133C64.9342 88.569 66.1302 86.522 66.9122 83.992C67.6942 81.462 68.0852 78.748 68.0852 75.85C68.0852 72.791 67.6712 70.008 66.8432 67.501C66.0152 64.971 64.7962 62.9585 63.1862 61.4635C61.5762 59.9685 59.5867 59.221 57.2177 59.221C55.3547 59.221 53.7332 59.681 52.3532 60.601C50.9962 61.498 49.8692 62.7285 48.9722 64.2925C48.0752 65.8565 47.4082 67.639 46.9712 69.64C46.5342 71.618 46.3157 73.688 46.3157 75.85C46.3157 78.725 46.7067 81.439 47.4887 83.992C48.2937 86.522 49.5012 88.569 51.1112 90.133C52.7442 91.697 54.7797 92.479 57.2177 92.479ZM96.8232 100.897C93.8562 100.897 91.1652 100.219 88.7502 98.8615C86.3352 97.5045 84.4032 95.6875 82.9542 93.4105C81.5282 91.1105 80.8152 88.5575 80.8152 85.7515C80.8152 83.5435 81.3097 81.4735 82.2987 79.5415C83.3107 77.5865 84.6677 75.942 86.3697 74.608C85.0357 73.389 83.9432 71.9515 83.0922 70.2955C82.2642 68.6165 81.8502 66.8225 81.8502 64.9135C81.8502 62.3145 82.5287 59.9455 83.8857 57.8065C85.2427 55.6675 87.0482 53.9655 89.3022 52.7005C91.5792 51.4355 94.0862 50.803 96.8232 50.803C99.5832 50.803 102.09 51.4355 104.344 52.7005C106.598 53.9655 108.404 55.6675 109.761 57.8065C111.118 59.9455 111.796 62.3145 111.796 64.9135C111.796 66.8225 111.382 68.6165 110.554 70.2955C109.749 71.9515 108.657 73.389 107.277 74.608C109.025 75.942 110.393 77.5865 111.382 79.5415C112.394 81.4735 112.9 83.5435 112.9 85.7515C112.9 88.5345 112.176 91.076 110.727 93.376C109.301 95.653 107.369 97.4815 104.931 98.8615C102.493 100.219 99.7902 100.897 96.8232 100.897ZM96.8232 92.479C98.1572 92.479 99.3647 92.18 100.446 91.582C101.527 90.961 102.389 90.1445 103.033 89.1325C103.677 88.1205 103.999 86.9935 103.999 85.7515C103.999 84.5095 103.677 83.3825 103.033 82.3705C102.389 81.3585 101.527 80.5535 100.446 79.9555C99.3647 79.3345 98.1572 79.024 96.8232 79.024C95.5122 79.024 94.3162 79.3345 93.2352 79.9555C92.1542 80.5535 91.2802 81.3585 90.6132 82.3705C89.9692 83.3825 89.6472 84.5095 89.6472 85.7515C89.6472 86.9935 89.9692 88.1205 90.6132 89.1325C91.2802 90.1445 92.1542 90.961 93.2352 91.582C94.3162 92.18 95.5122 92.479 96.8232 92.479ZM96.8232 70.606C97.9502 70.606 98.9737 70.353 99.8937 69.847C100.814 69.318 101.538 68.628 102.067 67.777C102.619 66.926 102.895 65.9715 102.895 64.9135C102.895 63.8555 102.619 62.901 102.067 62.05C101.538 61.199 100.814 60.5205 99.8937 60.0145C98.9737 59.4855 97.9502 59.221 96.8232 59.221C95.7192 59.221 94.7072 59.4855 93.7872 60.0145C92.8672 60.5205 92.1312 61.199 91.5792 62.05C91.0272 62.901 90.7512 63.8555 90.7512 64.9135C90.7512 65.9715 91.0272 66.926 91.5792 67.777C92.1312 68.628 92.8672 69.318 93.7872 69.847C94.7072 70.353 95.7192 70.606 96.8232 70.606Z" fill="white"/>
</g>
<g id="Auto Layout Vertical_2">
<path d="M152 0H796C809.255 0 820 10.7452 820 24V128C820 141.255 809.255 152 796 152H152V0Z" fill="#35383F"/>
<path id="Section" d="M203.6 93V59.4H208.592V93H203.6ZM237.34 80.424V93H232.348V80.52C232.348 79.16 232.06 77.928 231.484 76.824C230.924 75.704 230.148 74.816 229.156 74.16C228.18 73.488 227.068 73.152 225.82 73.152C224.572 73.152 223.476 73.488 222.532 74.16C221.604 74.816 220.876 75.704 220.348 76.824C219.836 77.928 219.58 79.16 219.58 80.52V93H214.588V69H219.58V72.24C220.412 71.024 221.42 70.072 222.604 69.384C223.788 68.68 225.124 68.328 226.612 68.328C228.772 68.328 230.644 68.88 232.228 69.984C233.828 71.088 235.076 72.552 235.972 74.376C236.868 76.2 237.324 78.216 237.34 80.424ZM255.11 68.328C257.446 68.328 259.566 68.896 261.47 70.032C263.39 71.168 264.918 72.696 266.054 74.616C267.19 76.52 267.758 78.64 267.758 80.976C267.758 82.72 267.43 84.36 266.774 85.896C266.118 87.416 265.206 88.76 264.038 89.928C262.886 91.08 261.542 91.984 260.006 92.64C258.486 93.296 256.854 93.624 255.11 93.624C253.43 93.624 251.958 93.24 250.694 92.472C249.446 91.688 248.422 90.688 247.622 89.472V93H242.63V57H247.622V72.48C248.422 71.248 249.446 70.248 250.694 69.48C251.958 68.712 253.43 68.328 255.11 68.328ZM255.062 88.776C256.454 88.776 257.726 88.424 258.878 87.72C260.03 87.016 260.942 86.072 261.614 84.888C262.302 83.704 262.646 82.4 262.646 80.976C262.646 79.52 262.302 78.2 261.614 77.016C260.926 75.832 260.006 74.896 258.854 74.208C257.702 73.504 256.438 73.152 255.062 73.152C253.67 73.152 252.446 73.504 251.39 74.208C250.334 74.912 249.51 75.856 248.918 77.04C248.326 78.224 248.03 79.536 248.03 80.976C248.03 82.416 248.326 83.728 248.918 84.912C249.51 86.096 250.334 87.04 251.39 87.744C252.446 88.432 253.67 88.776 255.062 88.776ZM282.159 93.624C279.951 93.624 277.935 93.056 276.111 91.92C274.303 90.784 272.855 89.264 271.767 87.36C270.695 85.44 270.159 83.32 270.159 81C270.159 79.24 270.471 77.6 271.095 76.08C271.719 74.544 272.575 73.2 273.663 72.048C274.767 70.88 276.047 69.968 277.503 69.312C278.959 68.656 280.511 68.328 282.159 68.328C284.367 68.328 286.375 68.896 288.183 70.032C290.007 71.168 291.455 72.696 292.527 74.616C293.615 76.536 294.159 78.664 294.159 81C294.159 82.744 293.847 84.376 293.223 85.896C292.599 87.416 291.735 88.76 290.631 89.928C289.543 91.08 288.271 91.984 286.815 92.64C285.375 93.296 283.823 93.624 282.159 93.624ZM282.159 88.632C283.487 88.632 284.679 88.28 285.735 87.576C286.791 86.872 287.623 85.944 288.231 84.792C288.855 83.624 289.167 82.36 289.167 81C289.167 79.608 288.847 78.328 288.207 77.16C287.583 75.992 286.743 75.064 285.687 74.376C284.631 73.672 283.455 73.32 282.159 73.32C280.847 73.32 279.655 73.672 278.583 74.376C277.527 75.08 276.687 76.016 276.063 77.184C275.455 78.352 275.151 79.624 275.151 81C275.151 82.424 275.471 83.712 276.111 84.864C276.751 86.016 277.599 86.936 278.655 87.624C279.727 88.296 280.895 88.632 282.159 88.632ZM295.154 93L303.938 80.952L295.202 68.952H301.37L307.01 76.68L312.674 68.952H318.818L310.106 80.952L318.89 93H312.722L307.01 85.176L301.322 93H295.154ZM322.717 95.688L324.205 87.576H329.197L326.029 95.688H322.717ZM357.761 59.4H363.593L375.809 93H370.529L368.201 86.616H353.153L350.849 93H345.545L357.761 59.4ZM355.001 81.624H366.353L360.665 66.024L355.001 81.624ZM393.911 86.184L398.375 88.608C397.287 90.128 395.903 91.344 394.223 92.256C392.559 93.168 390.751 93.624 388.799 93.624C386.591 93.624 384.575 93.056 382.751 91.92C380.943 90.784 379.495 89.264 378.407 87.36C377.335 85.44 376.799 83.32 376.799 81C376.799 79.24 377.111 77.6 377.735 76.08C378.359 74.544 379.215 73.2 380.303 72.048C381.407 70.88 382.687 69.968 384.143 69.312C385.599 68.656 387.151 68.328 388.799 68.328C390.751 68.328 392.559 68.784 394.223 69.696C395.903 70.608 397.287 71.832 398.375 73.368L393.911 75.792C393.239 74.992 392.455 74.384 391.559 73.968C390.663 73.536 389.743 73.32 388.799 73.32C387.487 73.32 386.295 73.68 385.223 74.4C384.167 75.104 383.327 76.04 382.703 77.208C382.095 78.36 381.791 79.624 381.791 81C381.791 82.36 382.103 83.624 382.727 84.792C383.351 85.944 384.191 86.872 385.247 87.576C386.319 88.28 387.503 88.632 388.799 88.632C389.791 88.632 390.735 88.408 391.631 87.96C392.527 87.512 393.287 86.92 393.911 86.184ZM415.38 73.992H410.34L410.316 93H405.324L405.348 73.992H401.532V69H405.348L405.324 61.464H410.316L410.34 69H415.38V73.992ZM418.646 69H423.638V93H418.646V69ZM421.166 65.04C420.414 65.04 419.782 64.792 419.27 64.296C418.758 63.8 418.502 63.176 418.502 62.424C418.502 61.688 418.758 61.072 419.27 60.576C419.782 60.064 420.414 59.808 421.166 59.808C421.902 59.808 422.526 60.064 423.038 60.576C423.55 61.072 423.806 61.688 423.806 62.424C423.806 63.176 423.55 63.8 423.038 64.296C422.526 64.792 421.902 65.04 421.166 65.04ZM444.936 93H438.528L429.768 68.952H435.096L441.72 87.24L448.368 68.952H453.672L444.936 93ZM457.364 69H462.356V93H457.364V69ZM459.884 65.04C459.132 65.04 458.5 64.792 457.988 64.296C457.476 63.8 457.22 63.176 457.22 62.424C457.22 61.688 457.476 61.072 457.988 60.576C458.5 60.064 459.132 59.808 459.884 59.808C460.62 59.808 461.244 60.064 461.756 60.576C462.268 61.072 462.524 61.688 462.524 62.424C462.524 63.176 462.268 63.8 461.756 64.296C461.244 64.792 460.62 65.04 459.884 65.04ZM482.599 73.992H477.559L477.535 93H472.543L472.567 73.992H468.751V69H472.567L472.543 61.464H477.535L477.559 69H482.599V73.992ZM502.586 69H507.914L494.762 105H489.458L493.802 93L485.186 69H490.634L496.298 86.16L502.586 69ZM509.889 95.688L511.377 87.576H516.369L513.201 95.688H509.889ZM542.845 93.624C540.893 93.624 539.149 93.152 537.613 92.208C536.093 91.264 534.893 90.024 534.013 88.488C533.149 86.936 532.717 85.264 532.717 83.472C532.717 82.448 532.813 81.552 533.005 80.784C533.213 80.016 533.557 79.264 534.037 78.528C534.533 77.792 535.205 76.968 536.053 76.056C536.917 75.144 538.005 74.032 539.317 72.72C538.581 71.968 537.965 71.312 537.469 70.752C536.973 70.192 536.581 69.672 536.293 69.192C536.005 68.696 535.797 68.184 535.669 67.656C535.557 67.128 535.501 66.528 535.501 65.856C535.501 64.448 535.837 63.192 536.509 62.088C537.181 60.968 538.077 60.088 539.197 59.448C540.317 58.792 541.533 58.464 542.845 58.464C544.189 58.464 545.421 58.8 546.541 59.472C547.661 60.128 548.549 61.016 549.205 62.136C549.877 63.24 550.213 64.48 550.213 65.856C550.213 66.544 550.149 67.16 550.021 67.704C549.893 68.232 549.677 68.744 549.373 69.24C549.085 69.736 548.693 70.264 548.197 70.824C547.701 71.368 547.093 72 546.373 72.72L553.621 79.968L559.405 74.184V81.24L557.125 83.52L563.101 89.472L559.573 93L553.621 87.072C552.293 88.4 551.165 89.488 550.237 90.336C549.325 91.184 548.501 91.848 547.765 92.328C547.029 92.808 546.277 93.144 545.509 93.336C544.757 93.528 543.869 93.624 542.845 93.624ZM542.845 88.632C543.485 88.632 544.029 88.56 544.477 88.416C544.941 88.256 545.413 87.992 545.893 87.624C546.373 87.24 546.933 86.72 547.573 86.064C548.229 85.392 549.069 84.536 550.093 83.496L542.845 76.248C541.789 77.304 540.925 78.168 540.253 78.84C539.581 79.496 539.061 80.056 538.693 80.52C538.341 80.984 538.093 81.448 537.949 81.912C537.805 82.36 537.733 82.896 537.733 83.52C537.733 84.496 537.965 85.368 538.429 86.136C538.909 86.904 539.533 87.512 540.301 87.96C541.085 88.408 541.933 88.632 542.845 88.632ZM542.845 69.888C543.661 69.072 544.277 68.464 544.693 68.064C545.125 67.648 545.413 67.288 545.557 66.984C545.717 66.664 545.797 66.256 545.797 65.76C545.797 64.88 545.485 64.176 544.861 63.648C544.253 63.104 543.581 62.832 542.845 62.832C542.045 62.832 541.357 63.12 540.781 63.696C540.205 64.272 539.917 64.96 539.917 65.76C539.917 66.256 539.997 66.672 540.157 67.008C540.333 67.328 540.629 67.696 541.045 68.112C541.477 68.528 542.077 69.12 542.845 69.888ZM579.427 93L585.931 59.4H589.963L598.579 82.032L607.147 59.4H611.179L617.707 93H612.619L608.275 70.512L600.235 91.728H596.875L588.859 70.512L584.515 93H579.427ZM631.706 93.624C629.498 93.624 627.482 93.056 625.658 91.92C623.85 90.784 622.402 89.264 621.314 87.36C620.242 85.44 619.706 83.32 619.706 81C619.706 79.24 620.018 77.6 620.642 76.08C621.266 74.544 622.122 73.2 623.21 72.048C624.314 70.88 625.594 69.968 627.05 69.312C628.506 68.656 630.058 68.328 631.706 68.328C633.546 68.328 635.234 68.712 636.77 69.48C638.306 70.232 639.618 71.28 640.706 72.624C641.794 73.952 642.594 75.488 643.106 77.232C643.618 78.96 643.77 80.8 643.562 82.752H625.058C625.266 83.856 625.666 84.856 626.258 85.752C626.866 86.632 627.634 87.328 628.562 87.84C629.506 88.352 630.554 88.616 631.706 88.632C632.922 88.632 634.026 88.328 635.018 87.72C636.026 87.112 636.85 86.272 637.49 85.2L642.554 86.376C641.594 88.504 640.146 90.248 638.21 91.608C636.274 92.952 634.106 93.624 631.706 93.624ZM624.89 78.936H638.522C638.362 77.784 637.954 76.744 637.298 75.816C636.658 74.872 635.85 74.128 634.874 73.584C633.914 73.024 632.858 72.744 631.706 72.744C630.57 72.744 629.514 73.016 628.538 73.56C627.578 74.104 626.778 74.848 626.138 75.792C625.514 76.72 625.098 77.768 624.89 78.936ZM655.445 93.456C654.181 93.376 652.949 93.12 651.749 92.688C650.549 92.256 649.493 91.672 648.581 90.936C647.685 90.184 647.013 89.304 646.565 88.296L650.813 86.472C651.021 86.904 651.381 87.328 651.893 87.744C652.421 88.16 653.037 88.504 653.741 88.776C654.445 89.032 655.181 89.16 655.949 89.16C656.701 89.16 657.397 89.056 658.037 88.848C658.693 88.624 659.229 88.288 659.645 87.84C660.061 87.392 660.269 86.856 660.269 86.232C660.269 85.528 660.029 84.984 659.549 84.6C659.085 84.2 658.501 83.896 657.797 83.688C657.093 83.48 656.389 83.28 655.685 83.088C654.117 82.736 652.677 82.256 651.365 81.648C650.069 81.024 649.037 80.232 648.269 79.272C647.501 78.296 647.117 77.104 647.117 75.696C647.117 74.16 647.525 72.832 648.341 71.712C649.173 70.576 650.269 69.704 651.629 69.096C652.989 68.488 654.437 68.184 655.973 68.184C657.893 68.184 659.653 68.592 661.253 69.408C662.853 70.224 664.077 71.344 664.925 72.768L660.965 75.12C660.725 74.64 660.365 74.208 659.885 73.824C659.405 73.44 658.861 73.136 658.253 72.912C657.645 72.672 657.013 72.536 656.357 72.504C655.541 72.472 654.781 72.568 654.077 72.792C653.389 73 652.837 73.336 652.421 73.8C652.005 74.264 651.797 74.856 651.797 75.576C651.797 76.28 652.045 76.808 652.541 77.16C653.037 77.496 653.661 77.768 654.413 77.976C655.181 78.184 655.965 78.416 656.765 78.672C658.189 79.12 659.525 79.672 660.773 80.328C662.021 80.968 663.029 81.76 663.797 82.704C664.565 83.648 664.933 84.8 664.901 86.16C664.901 87.664 664.445 88.984 663.533 90.12C662.637 91.256 661.469 92.12 660.029 92.712C658.589 93.304 657.061 93.552 655.445 93.456ZM676.679 93.456C675.415 93.376 674.183 93.12 672.983 92.688C671.783 92.256 670.727 91.672 669.815 90.936C668.919 90.184 668.247 89.304 667.799 88.296L672.047 86.472C672.255 86.904 672.615 87.328 673.127 87.744C673.655 88.16 674.271 88.504 674.975 88.776C675.679 89.032 676.415 89.16 677.183 89.16C677.935 89.16 678.631 89.056 679.271 88.848C679.927 88.624 680.463 88.288 680.879 87.84C681.295 87.392 681.503 86.856 681.503 86.232C681.503 85.528 681.263 84.984 680.783 84.6C680.319 84.2 679.735 83.896 679.031 83.688C678.327 83.48 677.623 83.28 676.919 83.088C675.351 82.736 673.911 82.256 672.599 81.648C671.303 81.024 670.271 80.232 669.503 79.272C668.735 78.296 668.351 77.104 668.351 75.696C668.351 74.16 668.759 72.832 669.575 71.712C670.407 70.576 671.503 69.704 672.863 69.096C674.223 68.488 675.671 68.184 677.207 68.184C679.127 68.184 680.887 68.592 682.487 69.408C684.087 70.224 685.311 71.344 686.159 72.768L682.199 75.12C681.959 74.64 681.599 74.208 681.119 73.824C680.639 73.44 680.095 73.136 679.487 72.912C678.879 72.672 678.247 72.536 677.591 72.504C676.775 72.472 676.015 72.568 675.311 72.792C674.623 73 674.071 73.336 673.655 73.8C673.239 74.264 673.031 74.856 673.031 75.576C673.031 76.28 673.279 76.808 673.775 77.16C674.271 77.496 674.895 77.768 675.647 77.976C676.415 78.184 677.199 78.416 677.999 78.672C679.423 79.12 680.759 79.672 682.007 80.328C683.255 80.968 684.263 81.76 685.031 82.704C685.799 83.648 686.167 84.8 686.135 86.16C686.135 87.664 685.679 88.984 684.767 90.12C683.871 91.256 682.703 92.12 681.263 92.712C679.823 93.304 678.295 93.552 676.679 93.456ZM709.082 69H714.074V93H709.058L708.866 89.52C708.162 90.752 707.21 91.744 706.01 92.496C704.826 93.248 703.418 93.624 701.786 93.624C700.01 93.624 698.346 93.296 696.794 92.64C695.258 91.968 693.898 91.04 692.714 89.856C691.546 88.672 690.626 87.312 689.954 85.776C689.298 84.224 688.97 82.56 688.97 80.784C688.97 79.072 689.29 77.464 689.93 75.96C690.57 74.44 691.458 73.112 692.594 71.976C693.73 70.84 695.042 69.952 696.53 69.312C698.034 68.656 699.642 68.328 701.354 68.328C703.098 68.328 704.634 68.728 705.962 69.528C707.306 70.312 708.41 71.32 709.274 72.552L709.082 69ZM701.906 88.8C703.346 88.8 704.586 88.44 705.626 87.72C706.682 87 707.474 86.032 708.002 84.816C708.546 83.6 708.778 82.256 708.698 80.784C708.602 79.376 708.226 78.096 707.57 76.944C706.93 75.792 706.074 74.88 705.002 74.208C703.93 73.52 702.714 73.176 701.354 73.176C699.93 73.176 698.642 73.536 697.49 74.256C696.354 74.976 695.474 75.944 694.85 77.16C694.226 78.376 693.954 79.728 694.034 81.216C694.13 82.608 694.546 83.88 695.282 85.032C696.034 86.184 696.986 87.104 698.138 87.792C699.306 88.464 700.562 88.8 701.906 88.8ZM737.285 69H742.277V93.624C742.277 95.272 741.925 96.792 741.221 98.184C740.533 99.576 739.597 100.776 738.413 101.784C737.229 102.808 735.869 103.6 734.333 104.16C732.813 104.72 731.221 105 729.557 105C727.877 105 726.261 104.64 724.709 103.92C723.157 103.216 721.789 102.256 720.605 101.04C719.437 99.824 718.565 98.448 717.989 96.912L722.573 94.848C722.893 95.84 723.405 96.72 724.109 97.488C724.829 98.256 725.661 98.864 726.605 99.312C727.565 99.76 728.549 99.984 729.557 99.984C730.549 99.984 731.501 99.824 732.413 99.504C733.341 99.2 734.165 98.768 734.885 98.208C735.621 97.648 736.205 96.976 736.637 96.192C737.069 95.408 737.285 94.552 737.285 93.624V89.568C736.501 90.784 735.493 91.768 734.261 92.52C733.029 93.256 731.597 93.624 729.965 93.624C728.269 93.624 726.669 93.296 725.165 92.64C723.661 91.984 722.341 91.08 721.205 89.928C720.069 88.76 719.181 87.416 718.541 85.896C717.901 84.376 717.581 82.744 717.581 81C717.581 79.256 717.901 77.624 718.541 76.104C719.181 74.568 720.069 73.224 721.205 72.072C722.341 70.904 723.661 69.992 725.165 69.336C726.669 68.68 728.269 68.352 729.965 68.352C731.597 68.352 733.029 68.728 734.261 69.48C735.493 70.216 736.501 71.2 737.285 72.432V69ZM730.013 88.8C731.405 88.8 732.621 88.448 733.661 87.744C734.701 87.024 735.509 86.072 736.085 84.888C736.661 83.704 736.949 82.408 736.949 81C736.949 79.56 736.653 78.256 736.061 77.088C735.485 75.904 734.677 74.96 733.637 74.256C732.597 73.536 731.389 73.176 730.013 73.176C728.669 73.176 727.437 73.528 726.317 74.232C725.213 74.936 724.333 75.88 723.677 77.064C723.021 78.248 722.693 79.56 722.693 81C722.693 82.44 723.021 83.752 723.677 84.936C724.349 86.12 725.237 87.064 726.341 87.768C727.461 88.456 728.685 88.8 730.013 88.8ZM757.846 93.624C755.638 93.624 753.622 93.056 751.798 91.92C749.99 90.784 748.542 89.264 747.454 87.36C746.382 85.44 745.846 83.32 745.846 81C745.846 79.24 746.158 77.6 746.782 76.08C747.406 74.544 748.262 73.2 749.35 72.048C750.454 70.88 751.734 69.968 753.19 69.312C754.646 68.656 756.198 68.328 757.846 68.328C759.686 68.328 761.374 68.712 762.91 69.48C764.446 70.232 765.758 71.28 766.846 72.624C767.934 73.952 768.734 75.488 769.246 77.232C769.758 78.96 769.91 80.8 769.702 82.752H751.198C751.406 83.856 751.806 84.856 752.398 85.752C753.006 86.632 753.774 87.328 754.702 87.84C755.646 88.352 756.694 88.616 757.846 88.632C759.062 88.632 760.166 88.328 761.158 87.72C762.166 87.112 762.99 86.272 763.63 85.2L768.694 86.376C767.734 88.504 766.286 90.248 764.35 91.608C762.414 92.952 760.246 93.624 757.846 93.624ZM751.03 78.936H764.662C764.502 77.784 764.094 76.744 763.438 75.816C762.798 74.872 761.99 74.128 761.014 73.584C760.054 73.024 758.998 72.744 757.846 72.744C756.71 72.744 755.654 73.016 754.678 73.56C753.718 74.104 752.918 74.848 752.278 75.792C751.654 76.72 751.238 77.768 751.03 78.936Z" fill="white"/>
</g>
</g>
<defs>
<linearGradient id="paint0_linear_103_2382" x1="152" y1="152" x2="-28.8664" y2="99.5595" gradientUnits="userSpaceOnUse">
<stop stop-color="#FF4D67"/>
<stop offset="1" stop-color="#FF8395"/>
</linearGradient>
</defs>
</svg>
