<svg width="685" height="152" viewBox="0 0 685 152" fill="none" xmlns="http://www.w3.org/2000/svg">
<g id="Elements/Marker Navigation">
<g id="Auto Layout Vertical">
<path d="M0 24C0 10.7452 10.7452 0 24 0H152V152H24C10.7452 152 0 141.255 0 128V24Z" fill="url(#paint0_linear_103_2402)"/>
<path id="00" d="M57.0829 100.897C54.2769 100.897 51.7239 100.253 49.4239 98.965C47.1239 97.654 45.1344 95.8485 43.4554 93.5485C41.7994 91.2485 40.5229 88.592 39.6259 85.579C38.7289 82.543 38.2804 79.3 38.2804 75.85C38.2804 72.4 38.7289 69.1685 39.6259 66.1555C40.5229 63.1195 41.7994 60.4515 43.4554 58.1515C45.1344 55.8515 47.1239 54.0575 49.4239 52.7695C51.7239 51.4585 54.2769 50.803 57.0829 50.803C59.889 50.803 62.442 51.4585 64.7419 52.7695C67.042 54.0575 69.0085 55.8515 70.6415 58.1515C72.2975 60.4515 73.574 63.1195 74.471 66.1555C75.391 69.1685 75.851 72.4 75.851 75.85C75.851 79.3 75.391 82.543 74.471 85.579C73.574 88.592 72.2975 91.2485 70.6415 93.5485C69.0085 95.8485 67.042 97.654 64.7419 98.965C62.442 100.253 59.889 100.897 57.0829 100.897ZM57.0829 92.479C59.5439 92.479 61.5795 91.697 63.1895 90.133C64.7995 88.569 65.9955 86.522 66.7775 83.992C67.5595 81.462 67.9504 78.748 67.9504 75.85C67.9504 72.791 67.5365 70.008 66.7085 67.501C65.8805 64.971 64.6615 62.9585 63.0515 61.4635C61.4414 59.9685 59.4519 59.221 57.0829 59.221C55.22 59.221 53.5985 59.681 52.2184 60.601C50.8615 61.498 49.7345 62.7285 48.8375 64.2925C47.9405 65.8565 47.2735 67.639 46.8365 69.64C46.3994 71.618 46.1809 73.688 46.1809 75.85C46.1809 78.725 46.5719 81.439 47.3539 83.992C48.1589 86.522 49.3664 88.569 50.9765 90.133C52.6094 91.697 54.6449 92.479 57.0829 92.479ZM96.6194 100.897C93.5374 100.897 90.7084 100.126 88.1324 98.5855C85.5564 97.0445 83.4979 94.986 81.9569 92.41C80.4159 89.834 79.6454 86.982 79.6454 83.854C79.6454 82.244 79.8294 80.749 80.1974 79.369C80.5884 77.989 81.1864 76.5975 81.9914 75.1945L95.5154 51.7H105.279L96.2054 67.3975C98.0684 67.2595 99.8624 67.4205 101.587 67.8805C103.312 68.3405 104.911 69.065 106.383 70.054C107.855 71.043 109.143 72.239 110.247 73.642C111.351 75.045 112.202 76.609 112.8 78.334C113.421 80.059 113.731 81.899 113.731 83.854C113.731 86.2 113.283 88.3965 112.386 90.4435C111.512 92.4905 110.293 94.3075 108.729 95.8945C107.165 97.4585 105.348 98.689 103.278 99.586C101.208 100.46 98.9884 100.897 96.6194 100.897ZM96.6194 92.479C98.2984 92.479 99.7934 92.0765 101.104 91.2715C102.415 90.4435 103.439 89.374 104.175 88.063C104.934 86.752 105.313 85.3605 105.313 83.8885C105.313 82.3015 104.934 80.8525 104.175 79.5415C103.416 78.2305 102.381 77.184 101.07 76.402C99.7819 75.62 98.3214 75.229 96.6884 75.229C95.0094 75.229 93.5144 75.643 92.2034 76.471C90.9154 77.276 89.9034 78.334 89.1674 79.645C88.4314 80.956 88.0634 82.3705 88.0634 83.8885C88.0634 85.5215 88.4659 86.982 89.2709 88.27C90.0759 89.558 91.1224 90.5815 92.4104 91.3405C93.7214 92.0995 95.1244 92.479 96.6194 92.479Z" fill="white"/>
</g>
<g id="Auto Layout Vertical_2">
<path d="M152 0H661C674.255 0 685 10.7452 685 24V128C685 141.255 674.255 152 661 152H152V0Z" fill="#35383F"/>
<path id="Section" d="M202.88 93V59.4H213.992C216.312 59.4 218.488 59.84 220.52 60.72C222.552 61.584 224.336 62.792 225.872 64.344C227.408 65.88 228.608 67.664 229.472 69.696C230.352 71.712 230.792 73.88 230.792 76.2C230.792 78.52 230.352 80.696 229.472 82.728C228.608 84.744 227.408 86.528 225.872 88.08C224.336 89.616 222.552 90.824 220.52 91.704C218.488 92.568 216.312 93 213.992 93H202.88ZM207.872 88.008H213.992C215.624 88.008 217.144 87.704 218.552 87.096C219.976 86.488 221.232 85.64 222.32 84.552C223.424 83.464 224.28 82.208 224.888 80.784C225.496 79.36 225.8 77.832 225.8 76.2C225.8 74.568 225.496 73.04 224.888 71.616C224.28 70.192 223.424 68.936 222.32 67.848C221.232 66.76 219.976 65.912 218.552 65.304C217.144 64.696 215.624 64.392 213.992 64.392H207.872V88.008ZM234.802 69H239.794V93H234.802V69ZM237.322 65.04C236.57 65.04 235.938 64.792 235.426 64.296C234.914 63.8 234.658 63.176 234.658 62.424C234.658 61.688 234.914 61.072 235.426 60.576C235.938 60.064 236.57 59.808 237.322 59.808C238.058 59.808 238.682 60.064 239.194 60.576C239.706 61.072 239.962 61.688 239.962 62.424C239.962 63.176 239.706 63.8 239.194 64.296C238.682 64.792 238.058 65.04 237.322 65.04ZM254.476 93.456C253.212 93.376 251.98 93.12 250.78 92.688C249.58 92.256 248.524 91.672 247.612 90.936C246.716 90.184 246.044 89.304 245.596 88.296L249.844 86.472C250.052 86.904 250.412 87.328 250.924 87.744C251.452 88.16 252.068 88.504 252.772 88.776C253.476 89.032 254.212 89.16 254.98 89.16C255.732 89.16 256.428 89.056 257.068 88.848C257.724 88.624 258.26 88.288 258.676 87.84C259.092 87.392 259.3 86.856 259.3 86.232C259.3 85.528 259.06 84.984 258.58 84.6C258.116 84.2 257.532 83.896 256.828 83.688C256.124 83.48 255.42 83.28 254.716 83.088C253.148 82.736 251.708 82.256 250.396 81.648C249.1 81.024 248.068 80.232 247.3 79.272C246.532 78.296 246.148 77.104 246.148 75.696C246.148 74.16 246.556 72.832 247.372 71.712C248.204 70.576 249.3 69.704 250.66 69.096C252.02 68.488 253.468 68.184 255.004 68.184C256.924 68.184 258.684 68.592 260.284 69.408C261.884 70.224 263.108 71.344 263.956 72.768L259.996 75.12C259.756 74.64 259.396 74.208 258.916 73.824C258.436 73.44 257.892 73.136 257.284 72.912C256.676 72.672 256.044 72.536 255.388 72.504C254.572 72.472 253.812 72.568 253.108 72.792C252.42 73 251.868 73.336 251.452 73.8C251.036 74.264 250.828 74.856 250.828 75.576C250.828 76.28 251.076 76.808 251.572 77.16C252.068 77.496 252.692 77.768 253.444 77.976C254.212 78.184 254.996 78.416 255.796 78.672C257.22 79.12 258.556 79.672 259.804 80.328C261.052 80.968 262.06 81.76 262.828 82.704C263.596 83.648 263.964 84.8 263.932 86.16C263.932 87.664 263.476 88.984 262.564 90.12C261.668 91.256 260.5 92.12 259.06 92.712C257.62 93.304 256.092 93.552 254.476 93.456ZM283.615 86.184L288.079 88.608C286.991 90.128 285.607 91.344 283.927 92.256C282.263 93.168 280.455 93.624 278.503 93.624C276.295 93.624 274.279 93.056 272.455 91.92C270.647 90.784 269.199 89.264 268.111 87.36C267.039 85.44 266.503 83.32 266.503 81C266.503 79.24 266.815 77.6 267.439 76.08C268.063 74.544 268.919 73.2 270.007 72.048C271.111 70.88 272.391 69.968 273.847 69.312C275.303 68.656 276.855 68.328 278.503 68.328C280.455 68.328 282.263 68.784 283.927 69.696C285.607 70.608 286.991 71.832 288.079 73.368L283.615 75.792C282.943 74.992 282.159 74.384 281.263 73.968C280.367 73.536 279.447 73.32 278.503 73.32C277.191 73.32 275.999 73.68 274.927 74.4C273.871 75.104 273.031 76.04 272.407 77.208C271.799 78.36 271.495 79.624 271.495 81C271.495 82.36 271.807 83.624 272.431 84.792C273.055 85.944 273.895 86.872 274.951 87.576C276.023 88.28 277.207 88.632 278.503 88.632C279.495 88.632 280.439 88.408 281.335 87.96C282.231 87.512 282.991 86.92 283.615 86.184ZM302.221 93.624C300.013 93.624 297.997 93.056 296.173 91.92C294.365 90.784 292.917 89.264 291.829 87.36C290.757 85.44 290.221 83.32 290.221 81C290.221 79.24 290.533 77.6 291.157 76.08C291.781 74.544 292.637 73.2 293.725 72.048C294.829 70.88 296.109 69.968 297.565 69.312C299.021 68.656 300.573 68.328 302.221 68.328C304.429 68.328 306.437 68.896 308.245 70.032C310.069 71.168 311.517 72.696 312.589 74.616C313.677 76.536 314.221 78.664 314.221 81C314.221 82.744 313.909 84.376 313.285 85.896C312.661 87.416 311.797 88.76 310.693 89.928C309.605 91.08 308.333 91.984 306.877 92.64C305.437 93.296 303.885 93.624 302.221 93.624ZM302.221 88.632C303.549 88.632 304.741 88.28 305.797 87.576C306.853 86.872 307.685 85.944 308.293 84.792C308.917 83.624 309.229 82.36 309.229 81C309.229 79.608 308.909 78.328 308.269 77.16C307.645 75.992 306.805 75.064 305.749 74.376C304.693 73.672 303.517 73.32 302.221 73.32C300.909 73.32 299.717 73.672 298.645 74.376C297.589 75.08 296.749 76.016 296.125 77.184C295.517 78.352 295.213 79.624 295.213 81C295.213 82.424 295.533 83.712 296.173 84.864C296.813 86.016 297.661 86.936 298.717 87.624C299.789 88.296 300.957 88.632 302.221 88.632ZM330.983 93H324.575L315.815 68.952H321.143L327.767 87.24L334.415 68.952H339.719L330.983 93ZM352.706 93.624C350.498 93.624 348.482 93.056 346.658 91.92C344.85 90.784 343.402 89.264 342.314 87.36C341.242 85.44 340.706 83.32 340.706 81C340.706 79.24 341.018 77.6 341.642 76.08C342.266 74.544 343.122 73.2 344.21 72.048C345.314 70.88 346.594 69.968 348.05 69.312C349.506 68.656 351.058 68.328 352.706 68.328C354.546 68.328 356.234 68.712 357.77 69.48C359.306 70.232 360.618 71.28 361.706 72.624C362.794 73.952 363.594 75.488 364.106 77.232C364.618 78.96 364.77 80.8 364.562 82.752H346.058C346.266 83.856 346.666 84.856 347.258 85.752C347.866 86.632 348.634 87.328 349.562 87.84C350.506 88.352 351.554 88.616 352.706 88.632C353.922 88.632 355.026 88.328 356.018 87.72C357.026 87.112 357.85 86.272 358.49 85.2L363.554 86.376C362.594 88.504 361.146 90.248 359.21 91.608C357.274 92.952 355.106 93.624 352.706 93.624ZM345.89 78.936H359.522C359.362 77.784 358.954 76.744 358.298 75.816C357.658 74.872 356.85 74.128 355.874 73.584C354.914 73.024 353.858 72.744 352.706 72.744C351.57 72.744 350.514 73.016 349.538 73.56C348.578 74.104 347.778 74.848 347.138 75.792C346.514 76.72 346.098 77.768 345.89 78.936ZM382.767 74.016C382.351 73.76 381.895 73.56 381.399 73.416C380.919 73.256 380.391 73.176 379.815 73.176C378.567 73.176 377.479 73.504 376.551 74.16C375.623 74.816 374.895 75.704 374.367 76.824C373.855 77.944 373.599 79.184 373.599 80.544V93H368.583V69H373.575V72.24C374.407 71.04 375.415 70.096 376.599 69.408C377.799 68.704 379.135 68.352 380.607 68.352C381.151 68.352 381.663 68.376 382.143 68.424C382.639 68.472 383.111 68.568 383.559 68.712L382.767 74.016ZM407.845 93.624C405.893 93.624 404.149 93.152 402.613 92.208C401.093 91.264 399.893 90.024 399.013 88.488C398.149 86.936 397.717 85.264 397.717 83.472C397.717 82.448 397.813 81.552 398.005 80.784C398.213 80.016 398.557 79.264 399.037 78.528C399.533 77.792 400.205 76.968 401.053 76.056C401.917 75.144 403.005 74.032 404.317 72.72C403.581 71.968 402.965 71.312 402.469 70.752C401.973 70.192 401.581 69.672 401.293 69.192C401.005 68.696 400.797 68.184 400.669 67.656C400.557 67.128 400.501 66.528 400.501 65.856C400.501 64.448 400.837 63.192 401.509 62.088C402.181 60.968 403.077 60.088 404.197 59.448C405.317 58.792 406.533 58.464 407.845 58.464C409.189 58.464 410.421 58.8 411.541 59.472C412.661 60.128 413.549 61.016 414.205 62.136C414.877 63.24 415.213 64.48 415.213 65.856C415.213 66.544 415.149 67.16 415.021 67.704C414.893 68.232 414.677 68.744 414.373 69.24C414.085 69.736 413.693 70.264 413.197 70.824C412.701 71.368 412.093 72 411.373 72.72L418.621 79.968L424.405 74.184V81.24L422.125 83.52L428.101 89.472L424.573 93L418.621 87.072C417.293 88.4 416.165 89.488 415.237 90.336C414.325 91.184 413.501 91.848 412.765 92.328C412.029 92.808 411.277 93.144 410.509 93.336C409.757 93.528 408.869 93.624 407.845 93.624ZM407.845 88.632C408.485 88.632 409.029 88.56 409.477 88.416C409.941 88.256 410.413 87.992 410.893 87.624C411.373 87.24 411.933 86.72 412.573 86.064C413.229 85.392 414.069 84.536 415.093 83.496L407.845 76.248C406.789 77.304 405.925 78.168 405.253 78.84C404.581 79.496 404.061 80.056 403.693 80.52C403.341 80.984 403.093 81.448 402.949 81.912C402.805 82.36 402.733 82.896 402.733 83.52C402.733 84.496 402.965 85.368 403.429 86.136C403.909 86.904 404.533 87.512 405.301 87.96C406.085 88.408 406.933 88.632 407.845 88.632ZM407.845 69.888C408.661 69.072 409.277 68.464 409.693 68.064C410.125 67.648 410.413 67.288 410.557 66.984C410.717 66.664 410.797 66.256 410.797 65.76C410.797 64.88 410.485 64.176 409.861 63.648C409.253 63.104 408.581 62.832 407.845 62.832C407.045 62.832 406.357 63.12 405.781 63.696C405.205 64.272 404.917 64.96 404.917 65.76C404.917 66.256 404.997 66.672 405.157 67.008C405.333 67.328 405.629 67.696 406.045 68.112C406.477 68.528 407.077 69.12 407.845 69.888ZM469.843 59.4V64.392H459.139V93H454.147V64.392H443.467V59.4H469.843ZM485.377 74.016C484.961 73.76 484.505 73.56 484.009 73.416C483.529 73.256 483.001 73.176 482.424 73.176C481.177 73.176 480.089 73.504 479.161 74.16C478.233 74.816 477.505 75.704 476.977 76.824C476.465 77.944 476.209 79.184 476.209 80.544V93H471.193V69H476.185V72.24C477.017 71.04 478.025 70.096 479.209 69.408C480.409 68.704 481.745 68.352 483.217 68.352C483.761 68.352 484.273 68.376 484.753 68.424C485.249 68.472 485.721 68.568 486.169 68.712L485.377 74.016ZM498.721 93.624C496.513 93.624 494.497 93.056 492.673 91.92C490.865 90.784 489.417 89.264 488.329 87.36C487.257 85.44 486.721 83.32 486.721 81C486.721 79.24 487.033 77.6 487.657 76.08C488.281 74.544 489.137 73.2 490.225 72.048C491.329 70.88 492.609 69.968 494.065 69.312C495.521 68.656 497.073 68.328 498.721 68.328C500.561 68.328 502.249 68.712 503.785 69.48C505.321 70.232 506.633 71.28 507.721 72.624C508.809 73.952 509.609 75.488 510.121 77.232C510.633 78.96 510.785 80.8 510.577 82.752H492.073C492.281 83.856 492.681 84.856 493.273 85.752C493.881 86.632 494.649 87.328 495.577 87.84C496.521 88.352 497.569 88.616 498.721 88.632C499.937 88.632 501.041 88.328 502.033 87.72C503.041 87.112 503.865 86.272 504.505 85.2L509.569 86.376C508.609 88.504 507.161 90.248 505.225 91.608C503.289 92.952 501.121 93.624 498.721 93.624ZM491.905 78.936H505.537C505.377 77.784 504.969 76.744 504.313 75.816C503.673 74.872 502.865 74.128 501.889 73.584C500.929 73.024 499.873 72.744 498.721 72.744C497.585 72.744 496.529 73.016 495.553 73.56C494.593 74.104 493.793 74.848 493.153 75.792C492.529 76.72 492.113 77.768 491.905 78.936ZM536.871 80.424V93H531.879V80.52C531.879 79.16 531.591 77.928 531.015 76.824C530.455 75.704 529.679 74.816 528.687 74.16C527.711 73.488 526.599 73.152 525.351 73.152C524.103 73.152 523.007 73.488 522.063 74.16C521.135 74.816 520.407 75.704 519.879 76.824C519.367 77.928 519.111 79.16 519.111 80.52V93H514.119V69H519.111V72.24C519.943 71.024 520.951 70.072 522.135 69.384C523.319 68.68 524.655 68.328 526.143 68.328C528.303 68.328 530.175 68.88 531.759 69.984C533.359 71.088 534.607 72.552 535.503 74.376C536.399 76.2 536.855 78.216 536.871 80.424ZM560.06 57H565.052V93H560.06V89.472C559.276 90.72 558.252 91.728 556.988 92.496C555.724 93.248 554.244 93.624 552.548 93.624C550.804 93.624 549.172 93.296 547.652 92.64C546.132 91.984 544.788 91.08 543.62 89.928C542.468 88.76 541.564 87.416 540.908 85.896C540.252 84.376 539.924 82.744 539.924 81C539.924 79.256 540.252 77.624 540.908 76.104C541.564 74.568 542.468 73.224 543.62 72.072C544.788 70.904 546.132 69.992 547.652 69.336C549.172 68.68 550.804 68.352 552.548 68.352C554.244 68.352 555.724 68.736 556.988 69.504C558.252 70.256 559.276 71.248 560.06 72.48V57ZM552.596 88.8C554.004 88.8 555.236 88.456 556.292 87.768C557.348 87.064 558.164 86.12 558.74 84.936C559.332 83.752 559.628 82.44 559.628 81C559.628 79.544 559.332 78.224 558.74 77.04C558.148 75.856 557.324 74.92 556.268 74.232C555.228 73.528 554.004 73.176 552.596 73.176C551.204 73.176 549.932 73.528 548.78 74.232C547.644 74.936 546.732 75.88 546.044 77.064C545.372 78.248 545.036 79.56 545.036 81C545.036 82.456 545.38 83.776 546.068 84.96C546.772 86.128 547.692 87.064 548.828 87.768C549.98 88.456 551.236 88.8 552.596 88.8ZM570.802 69H575.794V93H570.802V69ZM573.322 65.04C572.57 65.04 571.938 64.792 571.426 64.296C570.914 63.8 570.658 63.176 570.658 62.424C570.658 61.688 570.914 61.072 571.426 60.576C571.938 60.064 572.57 59.808 573.322 59.808C574.058 59.808 574.682 60.064 575.194 60.576C575.706 61.072 575.962 61.688 575.962 62.424C575.962 63.176 575.706 63.8 575.194 64.296C574.682 64.792 574.058 65.04 573.322 65.04ZM605.449 80.424V93H600.457V80.52C600.457 79.16 600.169 77.928 599.593 76.824C599.033 75.704 598.257 74.816 597.265 74.16C596.289 73.488 595.177 73.152 593.929 73.152C592.681 73.152 591.585 73.488 590.641 74.16C589.713 74.816 588.985 75.704 588.457 76.824C587.945 77.928 587.689 79.16 587.689 80.52V93H582.697V69H587.689V72.24C588.521 71.024 589.529 70.072 590.713 69.384C591.897 68.68 593.233 68.328 594.721 68.328C596.881 68.328 598.753 68.88 600.337 69.984C601.937 71.088 603.185 72.552 604.081 74.376C604.977 76.2 605.433 78.216 605.449 80.424ZM628.207 69H633.199V93.624C633.199 95.272 632.847 96.792 632.143 98.184C631.455 99.576 630.519 100.776 629.335 101.784C628.151 102.808 626.791 103.6 625.255 104.16C623.735 104.72 622.143 105 620.479 105C618.799 105 617.183 104.64 615.631 103.92C614.079 103.216 612.711 102.256 611.527 101.04C610.359 99.824 609.487 98.448 608.911 96.912L613.495 94.848C613.815 95.84 614.327 96.72 615.031 97.488C615.751 98.256 616.583 98.864 617.527 99.312C618.487 99.76 619.471 99.984 620.479 99.984C621.471 99.984 622.423 99.824 623.335 99.504C624.263 99.2 625.087 98.768 625.807 98.208C626.543 97.648 627.127 96.976 627.559 96.192C627.991 95.408 628.207 94.552 628.207 93.624V89.568C627.423 90.784 626.415 91.768 625.183 92.52C623.951 93.256 622.519 93.624 620.887 93.624C619.191 93.624 617.591 93.296 616.087 92.64C614.583 91.984 613.263 91.08 612.127 89.928C610.991 88.76 610.103 87.416 609.463 85.896C608.823 84.376 608.503 82.744 608.503 81C608.503 79.256 608.823 77.624 609.463 76.104C610.103 74.568 610.991 73.224 612.127 72.072C613.263 70.904 614.583 69.992 616.087 69.336C617.591 68.68 619.191 68.352 620.887 68.352C622.519 68.352 623.951 68.728 625.183 69.48C626.415 70.216 627.423 71.2 628.207 72.432V69ZM620.935 88.8C622.327 88.8 623.543 88.448 624.583 87.744C625.623 87.024 626.431 86.072 627.007 84.888C627.583 83.704 627.871 82.408 627.871 81C627.871 79.56 627.575 78.256 626.983 77.088C626.407 75.904 625.599 74.96 624.559 74.256C623.519 73.536 622.311 73.176 620.935 73.176C619.591 73.176 618.359 73.528 617.239 74.232C616.135 74.936 615.255 75.88 614.599 77.064C613.943 78.248 613.615 79.56 613.615 81C613.615 82.44 613.943 83.752 614.599 84.936C615.271 86.12 616.159 87.064 617.263 87.768C618.383 88.456 619.607 88.8 620.935 88.8Z" fill="white"/>
</g>
</g>
<defs>
<linearGradient id="paint0_linear_103_2402" x1="152" y1="152" x2="-28.8664" y2="99.5595" gradientUnits="userSpaceOnUse">
<stop stop-color="#FF4D67"/>
<stop offset="1" stop-color="#FF8395"/>
</linearGradient>
</defs>
</svg>
