<svg width="4066" height="300" viewBox="0 0 4066 300" fill="none" xmlns="http://www.w3.org/2000/svg">
<path id="SCREEN PREVIEW" d="M871.178 257.1C856.578 257.1 843.378 254.6 831.578 249.6C819.978 244.6 810.778 237.4 803.978 228C797.178 218.6 793.678 207.5 793.478 194.7H838.478C839.078 203.3 842.078 210.1 847.478 215.1C853.078 220.1 860.678 222.6 870.278 222.6C880.078 222.6 887.778 220.3 893.378 215.7C898.978 210.9 901.778 204.7 901.778 197.1C901.778 190.9 899.878 185.8 896.078 181.8C892.278 177.8 887.478 174.7 881.678 172.5C876.078 170.1 868.278 167.5 858.278 164.7C844.678 160.7 833.578 156.8 824.978 153C816.578 149 809.278 143.1 803.078 135.3C797.078 127.3 794.078 116.7 794.078 103.5C794.078 91.1 797.178 80.3 803.378 71.1C809.578 61.9 818.278 54.9 829.478 50.1C840.678 45.1 853.478 42.6 867.878 42.6C889.478 42.6 906.978 47.9 920.378 58.5C933.978 68.9 941.478 83.5 942.878 102.3H896.678C896.278 95.1 893.178 89.2 887.378 84.6C881.778 79.8 874.278 77.4 864.878 77.4C856.678 77.4 850.078 79.5 845.078 83.7C840.278 87.9 837.878 94 837.878 102C837.878 107.6 839.678 112.3 843.278 116.1C847.078 119.7 851.678 122.7 857.078 125.1C862.678 127.3 870.478 129.9 880.478 132.9C894.078 136.9 905.178 140.9 913.778 144.9C922.378 148.9 929.778 154.9 935.978 162.9C942.178 170.9 945.278 181.4 945.278 194.4C945.278 205.6 942.378 216 936.578 225.6C930.778 235.2 922.278 242.9 911.078 248.7C899.878 254.3 886.578 257.1 871.178 257.1ZM971.091 150C971.091 129.4 975.691 111 984.891 94.8C994.291 78.4 1006.99 65.7 1022.99 56.7C1039.19 47.5 1057.29 42.9 1077.29 42.9C1100.69 42.9 1121.19 48.9 1138.79 60.9C1156.39 72.9 1168.69 89.5 1175.69 110.7H1127.39C1122.59 100.7 1115.79 93.2 1106.99 88.2C1098.39 83.2 1088.39 80.7 1076.99 80.7C1064.79 80.7 1053.89 83.6 1044.29 89.4C1034.89 95 1027.49 103 1022.09 113.4C1016.89 123.8 1014.29 136 1014.29 150C1014.29 163.8 1016.89 176 1022.09 186.6C1027.49 197 1034.89 205.1 1044.29 210.9C1053.89 216.5 1064.79 219.3 1076.99 219.3C1088.39 219.3 1098.39 216.8 1106.99 211.8C1115.79 206.6 1122.59 199 1127.39 189H1175.69C1168.69 210.4 1156.39 227.1 1138.79 239.1C1121.39 250.9 1100.89 256.8 1077.29 256.8C1057.29 256.8 1039.19 252.3 1022.99 243.3C1006.99 234.1 994.291 221.4 984.891 205.2C975.691 189 971.091 170.6 971.091 150ZM1319.16 255L1272.96 173.4H1253.16V255H1211.16V45.6H1289.76C1305.96 45.6 1319.76 48.5 1331.16 54.3C1342.56 59.9 1351.06 67.6 1356.66 77.4C1362.46 87 1365.36 97.8 1365.36 109.8C1365.36 123.6 1361.36 136.1 1353.36 147.3C1345.36 158.3 1333.46 165.9 1317.66 170.1L1367.76 255H1319.16ZM1253.16 141.9H1288.26C1299.66 141.9 1308.16 139.2 1313.76 133.8C1319.36 128.2 1322.16 120.5 1322.16 110.7C1322.16 101.1 1319.36 93.7 1313.76 88.5C1308.16 83.1 1299.66 80.4 1288.26 80.4H1253.16V141.9ZM1444.95 79.5V132H1515.45V165.3H1444.95V220.8H1524.45V255H1402.95V45.3H1524.45V79.5H1444.95ZM1604.22 79.5V132H1674.72V165.3H1604.22V220.8H1683.72V255H1562.22V45.3H1683.72V79.5H1604.22ZM1900.59 255H1858.59L1763.49 111.3V255H1721.49V45.3H1763.49L1858.59 189.3V45.3H1900.59V255ZM2165.48 110.4C2165.48 121.6 2162.78 132.1 2157.38 141.9C2152.18 151.7 2143.88 159.6 2132.48 165.6C2121.28 171.6 2107.08 174.6 2089.88 174.6H2054.78V255H2012.78V45.6H2089.88C2106.08 45.6 2119.88 48.4 2131.28 54C2142.68 59.6 2151.18 67.3 2156.78 77.1C2162.58 86.9 2165.48 98 2165.48 110.4ZM2088.08 140.7C2099.68 140.7 2108.28 138.1 2113.88 132.9C2119.48 127.5 2122.28 120 2122.28 110.4C2122.28 90 2110.88 79.8 2088.08 79.8H2054.78V140.7H2088.08ZM2302.9 255L2256.7 173.4H2236.9V255H2194.9V45.6H2273.5C2289.7 45.6 2303.5 48.5 2314.9 54.3C2326.3 59.9 2334.8 67.6 2340.4 77.4C2346.2 87 2349.1 97.8 2349.1 109.8C2349.1 123.6 2345.1 136.1 2337.1 147.3C2329.1 158.3 2317.2 165.9 2301.4 170.1L2351.5 255H2302.9ZM2236.9 141.9H2272C2283.4 141.9 2291.9 139.2 2297.5 133.8C2303.1 128.2 2305.9 120.5 2305.9 110.7C2305.9 101.1 2303.1 93.7 2297.5 88.5C2291.9 83.1 2283.4 80.4 2272 80.4H2236.9V141.9ZM2428.68 79.5V132H2499.18V165.3H2428.68V220.8H2508.18V255H2386.68V45.3H2508.18V79.5H2428.68ZM2734.05 45.6L2657.25 255H2606.25L2529.45 45.6H2574.45L2632.05 212.1L2689.35 45.6H2734.05ZM2800.83 45.6V255H2758.83V45.6H2800.83ZM2883.93 79.5V132H2954.43V165.3H2883.93V220.8H2963.43V255H2841.93V45.3H2963.43V79.5H2883.93ZM3281.1 45.6L3222.6 255H3173.1L3133.8 105.9L3092.7 255L3043.5 255.3L2987.1 45.6H3032.1L3069 208.2L3111.6 45.6H3158.4L3198.6 207.3L3235.8 45.6H3281.1Z" fill="black"/>
</svg>
